<svg width="65" height="65" viewBox="0 0 65 65" fill="none" xmlns="http://www.w3.org/2000/svg">
<g clip-path="url(#clip0_736_485)">
<path fill-rule="evenodd" clip-rule="evenodd" d="M5.90096 58.6027C7.57832 51.4146 10.001 48.2423 12.9364 47.167C15.8718 46.0894 19.1799 47.11 22.488 48.1329C24.7711 48.8524 27.1008 49.5866 29.2441 49.7187C31.4805 49.8578 33.5773 49.3455 35.3945 47.5414C35.8138 47.1082 36.1867 46.4056 36.4196 45.4688C36.7924 44.198 37.0253 42.4683 37.1185 40.4389C37.5845 32.7402 36.6528 20.6228 37.771 13.2432C38.004 11.5467 38.3765 10.1082 38.889 9.04977C39.3549 8.12877 39.9139 7.50642 40.6594 7.34807C41.2652 7.21883 41.9641 7.39987 42.8494 7.89123C44.3404 8.73014 46.1109 10.4412 48.3473 13.2164C50.3043 15.6458 51.9354 18.3826 53.8457 20.8679C56.8277 24.7586 59.9493 28.7016 63.4438 31.8232C63.6768 32.0206 64.0027 32.0008 64.1891 31.7796C64.4221 31.5578 64.3757 31.2178 64.1427 31.0204C60.6948 27.9431 57.6197 24.0512 54.6843 20.2153C52.8206 17.7236 51.1433 14.9798 49.1864 12.544C46.8567 9.6232 44.9464 7.84001 43.3622 6.95685C42.244 6.30074 41.2652 6.12258 40.4265 6.29549C39.5878 6.47364 38.8425 7.02612 38.2834 7.91219C37.5379 9.08469 37.0252 10.8801 36.699 13.0842C35.5808 20.4901 36.5129 32.6511 36.047 40.3771C35.9538 42.3135 35.7206 43.9651 35.3945 45.1778C35.2081 45.8967 34.975 46.451 34.6023 46.7834C33.0647 48.3425 31.2478 48.7651 29.2909 48.6452C27.2408 48.5177 25.0043 47.7987 22.7679 47.1059C19.2733 46.0097 15.6855 45.0031 12.5637 46.1575C9.44196 47.3137 6.64636 50.6316 4.87581 58.3593C4.78262 58.6487 4.96891 58.938 5.24847 59.005C5.52803 59.0719 5.85436 58.892 5.90096 58.6027Z" fill="#F0F9F1"/>
<path fill-rule="evenodd" clip-rule="evenodd" d="M4.35246 58.1835C4.30587 58.1084 4.2125 57.9041 4.16591 57.7352C3.88635 56.9144 3.60706 55.6406 3.51387 55.2668C2.48882 51.9606 1.65014 48.2598 1.65014 44.7184C1.65014 44.4215 1.4169 44.1811 1.13734 44.1816C0.811183 44.1822 0.578125 44.4232 0.578125 44.7201C0.578125 48.364 1.4634 52.1726 2.44186 55.5748C2.58164 55.9538 2.8612 57.2468 3.14076 58.0805C3.23395 58.3803 3.32741 58.6283 3.42059 58.7843C3.51378 58.9124 3.60679 59.0003 3.69997 59.0556C3.88635 59.1988 4.16618 59.2687 4.44574 59.2594C4.77189 59.2489 5.14455 59.1412 5.5173 58.9584C6.30938 58.6009 7.24116 57.9471 7.98666 57.4302C8.406 57.1333 8.77883 56.88 9.0118 56.8026C11.0153 56.1383 13.205 56.8463 14.8824 59.1447C15.0688 59.3834 15.3952 59.4352 15.6282 59.2594C15.8611 59.0835 15.9076 58.7465 15.7678 58.5072C13.7177 55.7506 11.1084 54.9839 8.68556 55.7815C8.07984 55.9736 6.77541 57.0343 5.61057 57.7119C5.23783 57.9058 4.9114 58.0653 4.63184 58.1433C4.53865 58.166 4.49206 58.1818 4.39887 58.1841C4.39887 58.1853 4.35246 58.187 4.35246 58.1835Z" fill="#F0F9F1"/>
</g>
<defs>
<clipPath id="clip0_736_485">
<rect width="63.8873" height="63.8873" fill="white" transform="translate(0.578125 0.961914)"/>
</clipPath>
</defs>
</svg>
