<svg width="97" height="97" viewBox="0 0 97 97" fill="none" xmlns="http://www.w3.org/2000/svg">
<path fill-rule="evenodd" clip-rule="evenodd" d="M63.1627 21.5319L32.726 21.8775L18.1772 47.0768L32.1184 75.2724L63.4021 75.4117L78.9165 48.5399L63.1627 21.5319ZM69.9944 62.0886L77.5433 49.0136L65.4774 48.9599L57.835 62.1969L69.9944 62.0886ZM69.4417 63.0459L62.8536 74.4568L50.7878 74.4031L57.2823 63.1542L69.4417 63.0459ZM56.1769 63.1641L49.6909 74.3982L33.2375 74.3249L39.5959 63.3117L56.1769 63.1641ZM38.7737 62.8312L32.4473 73.7888L25.0911 58.9111L31.0339 48.6179L38.7737 62.8312ZM31.5919 47.6513L39.3318 61.8646L47.1048 48.4012L39.2784 34.4829L39.1939 34.4843L31.5919 47.6513ZM30.5001 47.6377L24.5837 57.8851L19.2568 47.1116L24.8954 37.3453L30.5001 47.6377ZM25.4534 36.3787L31.0581 46.6711L38.6387 33.5411L38.7479 33.5393L32.9972 23.3124L25.4534 36.3787ZM40.1487 62.3544L56.7296 62.2067L64.3805 48.955L47.9271 48.8817L40.1487 62.3544ZM64.2349 48.002L47.9321 47.9294L40.3608 34.4646L56.1833 34.1985L64.2349 48.002ZM55.6331 33.2552L39.8302 33.5211L33.8116 22.8176L49.4413 22.6401L55.6331 33.2552ZM50.5366 22.6277L56.7249 33.2369L68.7695 33.0342L62.6193 22.4905L50.5366 22.6277ZM69.3197 33.9775L57.2751 34.1801L65.3403 48.0069L77.5347 48.0612L69.3197 33.9775Z" fill="url(#paint0_linear_736_466)"/>
<defs>
<linearGradient id="paint0_linear_736_466" x1="31.9109" y1="21.7721" x2="62.8633" y2="77.0102" gradientUnits="userSpaceOnUse">
<stop stop-color="white"/>
<stop offset="1" stop-color="#3C3C3C"/>
</linearGradient>
</defs>
</svg>
