<svg width="151" height="81" viewBox="0 0 151 81" fill="none" xmlns="http://www.w3.org/2000/svg">
<path fill-rule="evenodd" clip-rule="evenodd" d="M70.5414 9.40654C75.2379 9.64247 78.9709 11.9708 82.704 14.5852C94.947 23.1707 99.0417 36.4916 90.6523 49.5817C77.6064 69.8814 47.2196 83.167 23.6568 77.0356C18.4385 75.6843 11.3737 74.4933 6.1955 67.8944C1.37859 61.7587 1.57929 54.4645 3.78704 47.7116C6.03494 40.7877 10.3702 34.4153 13.8223 30.3191C28.9153 12.4473 59.1414 -3.79564 86.4774 4.76753C87.0394 4.93253 87.6015 4.64879 87.762 4.13382C87.9226 3.61885 87.6414 3.06666 87.1195 2.90166C58.9807 -5.91115 27.7912 10.6806 12.2566 29.0732C7.96155 34.181 2.34213 42.7073 0.736488 51.5291C-0.347318 57.5586 0.415203 63.7221 4.58986 69.0838C10.0892 76.1131 17.5956 77.4898 23.1351 78.9289C47.4605 85.2618 78.8906 71.5877 92.3379 50.6222C101.37 36.5528 97.0345 22.2215 83.8683 12.9933C79.8542 10.1567 75.7596 7.70527 70.6617 7.44975C70.0998 7.42192 69.6182 7.83774 69.6182 8.37778C69.5781 8.91783 70.0196 9.37872 70.5414 9.40654Z" fill="#87CEEB"/>
<g clip-path="url(#clip0_307_14)">
<path fill-rule="evenodd" clip-rule="evenodd" d="M98.8001 47.8324C98.9741 47.2752 99.1211 46.7944 99.1975 46.5399C99.6585 44.99 101.271 41.2794 101.512 38.3211C101.698 36.0642 101.088 34.2372 99.008 33.7253C97.1173 33.2601 95.2083 34.4097 93.517 36.4814C89.8771 40.9401 87.1168 49.617 86.9598 52.4537C86.9429 52.7634 87.179 53.0278 87.4887 53.0448C87.797 53.0617 88.0614 52.8256 88.0784 52.5159C88.2297 49.7937 90.8911 41.4703 94.3853 37.1899C95.7513 35.517 97.2135 34.438 98.7407 34.8142C100.248 35.1846 100.53 36.5931 100.395 38.2292C100.16 41.1083 98.5724 44.7114 98.1228 46.2203C97.8414 47.1663 96.6662 50.744 96.6394 51.0749C96.6054 51.4893 96.901 51.6278 97.0014 51.666C97.0792 51.6957 97.4765 51.8187 97.724 51.3733C101.256 45.024 111.072 37.7258 121.528 34.817C131.892 31.9336 142.917 33.3831 149.009 44.5729C149.158 44.8444 149.499 44.9448 149.77 44.7977C150.042 44.6492 150.142 44.3084 149.993 44.0369C143.61 32.3126 132.085 30.7161 121.228 33.7366C112.077 36.282 103.424 42.1222 98.8001 47.8324Z" fill="#87CEEB"/>
<path fill-rule="evenodd" clip-rule="evenodd" d="M149.106 43.7664C147.883 43.2658 146.681 42.7284 145.418 42.3226C142.054 41.2408 138.33 40.8293 134.838 41.4515C134.533 41.5066 134.33 41.798 134.384 42.102C134.439 42.4074 134.731 42.6096 135.035 42.5559C138.348 41.9634 141.883 42.3636 145.075 43.3902C146.52 43.8555 147.886 44.496 149.296 45.0518C149.367 45.0787 149.972 45.3389 150.115 45.3587C150.447 45.4067 150.615 45.2144 150.682 45.1154C150.738 45.0334 150.786 44.9217 150.791 44.7718C150.793 44.6488 150.744 44.414 150.611 44.1142C150.188 43.1527 148.88 41.0513 148.702 40.6836C146.659 36.4696 145.465 32.2061 144.096 27.7488C144.004 27.4533 143.69 27.2864 143.395 27.3769C143.099 27.4674 142.934 27.7814 143.024 28.0769C144.41 32.5907 145.625 36.9066 147.694 41.1715C147.815 41.4246 148.566 42.7892 149.106 43.7664Z" fill="#87CEEB"/>
</g>
<defs>
<clipPath id="clip0_307_14">
<rect width="63.8873" height="63.8873" fill="white" transform="translate(86.959 8.2959)"/>
</clipPath>
</defs>
</svg>
