<svg width="87" height="86" viewBox="0 0 87 86" fill="none" xmlns="http://www.w3.org/2000/svg">
<g clip-path="url(#clip0_683_297)">
<path fill-rule="evenodd" clip-rule="evenodd" d="M82.0573 27.1175C65.9699 57.0317 33.8336 69.1935 3.98596 52.3526C2.99233 51.7918 1.73229 52.1424 1.1715 53.1237C0.610723 54.1226 0.961249 55.3844 1.95489 55.9451C33.9475 74.0128 68.4513 61.1325 85.6954 29.0803C86.2351 28.0814 85.8584 26.8194 84.8542 26.2762C83.8501 25.7504 82.5971 26.1186 82.0573 27.1175Z" fill="#87CEEB"/>
<path d="M29.1039 39.5223C32.4271 39.5223 35.1211 36.8284 35.1211 33.5053C35.1211 30.1822 32.4271 27.4883 29.1039 27.4883C25.7808 27.4883 23.0869 30.1822 23.0869 33.5053C23.0869 36.8284 25.7808 39.5223 29.1039 39.5223Z" fill="#87CEEB"/>
<path d="M54.0127 33.1221C57.2709 33.1221 59.9122 30.4809 59.9122 27.2227C59.9122 23.9645 57.2709 21.3232 54.0127 21.3232C50.7545 21.3232 48.1133 23.9645 48.1133 27.2227C48.1133 30.4809 50.7545 33.1221 54.0127 33.1221Z" fill="#87CEEB"/>
</g>
<defs>
<clipPath id="clip0_683_297">
<rect width="85.7143" height="85.7143" fill="white" transform="translate(0.904297 0.142578)"/>
</clipPath>
</defs>
</svg>
