<svg width="126" height="76" viewBox="0 0 126 76" fill="none" xmlns="http://www.w3.org/2000/svg">
<path fill-rule="evenodd" clip-rule="evenodd" d="M90.7699 71.7312C101.98 72.0015 113.435 71.4609 124.153 75.2941C124.792 75.5202 125.495 75.1909 125.726 74.552C125.952 73.9131 125.623 73.2104 124.984 72.9794C114.015 69.0577 102.299 69.5492 90.8289 69.274C90.1507 69.2543 89.5856 69.7949 89.5708 70.4731C89.5512 71.1513 90.0917 71.7115 90.7699 71.7312Z" fill="#87CEEB"/>
<path fill-rule="evenodd" clip-rule="evenodd" d="M89.7624 55.456C93.2566 52.241 97.0701 49.8325 101.68 48.6388C102.338 48.4688 102.732 47.7979 102.564 47.1413C102.392 46.4848 101.719 46.0902 101.066 46.2602C96.0529 47.5576 91.9002 50.1534 88.1014 53.6471C87.6001 54.1061 87.5657 54.884 88.0276 55.3833C88.4847 55.8821 89.2661 55.915 89.7624 55.456Z" fill="#87CEEB"/>
<path fill-rule="evenodd" clip-rule="evenodd" d="M80.0416 20.355C81.6437 14.8632 84.7988 10.567 89.6345 7.46457C90.2046 7.09845 90.3717 6.33771 90.0031 5.76715C89.6394 5.19659 88.8777 5.03047 88.3076 5.39659C82.9558 8.83176 79.4568 13.5859 77.6827 19.6665C77.491 20.3172 77.8694 21.0003 78.5182 21.19C79.1718 21.3802 79.8549 21.0057 80.0416 20.355Z" fill="#87CEEB"/>
<path fill-rule="evenodd" clip-rule="evenodd" d="M24.8284 12.9021C23.875 14.0241 23.0199 15.233 22.2925 16.5201C21.9682 17.0931 21.3981 18.3109 21.3097 19.3552C21.2114 20.4678 21.5898 21.4065 22.5628 21.9009C23.8553 22.5565 24.8874 22.4882 25.6835 22.0916C26.4501 21.7107 27.0497 20.9622 27.4281 19.9587C28.1505 18.0406 28.0424 15.1092 27.664 13.4363C28.6812 12.3866 29.7968 11.4347 30.991 10.5884C39.8861 4.28568 52.9339 6.60971 62.974 16.0336C66.4878 19.3331 68.1784 26.2624 69.058 33.7387C70.4292 45.3794 69.6478 58.381 69.5396 62.1902C69.5151 63.1308 69.6035 63.689 69.6527 63.8006C69.8836 64.349 70.2915 64.4916 70.5766 64.5456C70.9894 64.6193 71.3186 64.5407 71.584 64.4031C71.9427 64.2144 72.2377 63.8822 72.3753 63.3696C72.449 63.0865 72.4686 62.6924 72.4588 62.2722C72.4489 61.9808 72.39 61.6623 72.4489 61.4535C72.8322 60.1158 73.2942 58.8095 73.7463 57.4939C75.2551 53.0715 77.2061 48.9272 79.3734 44.7878C86.2584 31.6348 92.9174 17.7374 104.206 7.71643C104.712 7.26676 104.761 6.48931 104.309 5.98214C103.862 5.47497 103.085 5.42877 102.574 5.87893C91.0598 16.0979 84.2189 30.2347 77.1963 43.6481C75.3534 47.1693 73.6628 50.6954 72.2573 54.3836C72.3998 47.8593 72.3457 38.828 71.1515 30.8372C70.09 23.7305 68.0702 17.4499 64.6547 14.2423C53.6562 3.91857 39.3111 1.67909 29.5707 8.58383C28.5289 9.32296 27.5362 10.1358 26.6123 11.0175C21.5161 1.81523 10.6061 -1.87305 0.96402 2.52829C0.344805 2.80989 0.0745178 3.53919 0.354639 4.15595C0.639674 4.7727 1.36698 5.04497 1.98619 4.76338C10.6749 0.797454 20.5283 4.33679 24.8284 12.9021ZM25.541 15.9829C25.1429 16.5451 24.7743 17.128 24.4303 17.7305C24.2485 18.0539 23.9339 18.6756 23.8012 19.284C23.7718 19.4265 23.7669 19.6496 23.7669 19.7528C24.106 19.9199 24.3713 20.0005 24.5875 19.8919C24.8578 19.7582 24.9955 19.4437 25.1282 19.0923C25.4623 18.2107 25.5704 17.042 25.541 15.9829Z" fill="#87CEEB"/>
</svg>
