<svg width="203" height="203" viewBox="0 0 203 203" fill="none" xmlns="http://www.w3.org/2000/svg">
<g clip-path="url(#clip0_683_348)">
<path fill-rule="evenodd" clip-rule="evenodd" d="M113.102 103.747C116.185 100.973 118.21 98.2305 119.632 96.0222C133.152 74.8491 120.874 54.1606 104.368 39.6535C99.9473 35.7641 91.8554 31.2966 84.4804 30.6733C79.2982 30.2332 74.4696 31.6487 71.3204 36.2104C67.8688 41.1706 67.9042 48.0336 69.818 55.093C72.5777 65.3055 79.2243 75.9375 83.9593 81.4075C89.4226 87.7152 98.8988 96.5343 109.251 103.917C105.69 106.648 100.973 109.312 94.6121 111.374C91.7883 112.301 88.3445 112.618 84.6711 112.456C84.4293 106.862 83.0709 101.067 80.4837 95.3128C78.302 90.4788 71.8178 81.191 64.6907 75.9697C59.6002 72.2466 54.1786 70.6291 49.6085 73.4378C43.9381 76.9342 42.9437 82.173 44.3965 87.6095C46.4382 95.2656 53.5221 103.305 58.3355 106.703C63.9378 110.654 73.4944 113.798 82.3503 114.605C82.1722 133.548 68.5141 149.623 47.2854 152.134C46.6547 152.215 46.1959 152.798 46.2582 153.434C46.3401 154.079 46.9328 154.543 47.5635 154.461C70.0241 151.8 84.5083 134.809 84.7204 114.764C88.6305 114.928 92.3205 114.592 95.3386 113.604C102.344 111.327 107.464 108.355 111.259 105.324C113.222 106.674 115.212 107.965 117.215 109.175C126.211 114.614 135.313 118.282 142.569 117.929C159.337 117.116 169.539 104.881 173.269 90.0646C176.958 75.3882 174.273 58.2277 165.515 47.443C165.106 46.9405 164.36 46.8609 163.862 47.2709C163.365 47.681 163.285 48.4185 163.694 48.9207C172.029 59.1834 174.519 75.5324 170.995 89.4911C167.512 103.31 158.092 114.827 142.462 115.59C135.551 115.915 126.978 112.336 118.426 107.168C116.646 106.092 114.872 104.948 113.102 103.747ZM82.3016 112.295C82.036 107.062 80.7613 101.651 78.3338 96.2699C76.2583 91.6684 70.1078 82.8401 63.2975 77.8573C59.0768 74.7686 54.6281 73.099 50.8446 75.437C46.2114 78.2797 45.4842 82.5799 46.6666 87.0089C48.5485 94.1374 55.2012 101.62 59.6928 104.79C64.9534 108.505 73.9595 111.505 82.3016 112.295ZM111.125 102.374C114.235 99.6455 116.248 96.9299 117.653 94.7589C130.476 74.6857 118.465 55.1664 102.82 41.4142C98.7041 37.7898 91.1738 33.5961 84.2806 33.0083C79.9635 32.6471 75.8794 33.7344 73.2428 37.5453C70.1482 41.9889 70.3637 48.1533 72.0718 54.4759C74.7352 64.3317 81.1709 74.5983 85.7343 79.8745C91.1975 86.1826 100.729 95.0364 111.125 102.374Z" fill="#87CEEB"/>
<path fill-rule="evenodd" clip-rule="evenodd" d="M48.4768 153.057C49.3355 152.224 51.7979 149.819 52.1602 149.445C53.1681 148.392 53.525 147.722 53.8108 147C54.0326 146.416 54.1833 145.781 54.733 144.744C55.0429 144.176 54.8036 143.46 54.2304 143.16C53.6572 142.86 52.9588 143.088 52.6489 143.657C52.1648 144.603 51.9411 145.242 51.7524 145.805C51.5259 146.45 51.3234 146.941 50.4653 147.823C50.0518 148.256 47.4892 150.416 46.5249 151.632C46.0194 152.265 45.8698 152.846 45.8984 153.143C45.9388 153.57 46.1447 154.049 46.5921 154.519C47.1689 155.12 48.2684 155.822 49.4822 156.636C50.6249 157.398 51.8998 158.285 52.8722 159.365C53.6844 160.279 54.2685 161.326 54.2059 162.593C54.1692 163.238 54.651 163.788 55.2979 163.825C55.9448 163.863 56.5047 163.369 56.5413 162.724C56.6611 160.82 55.8497 159.186 54.6142 157.802C53.5186 156.577 52.0921 155.556 50.785 154.687C50.0063 154.164 49.2717 153.699 48.7295 153.28C48.6417 153.214 48.5592 153.135 48.4768 153.057Z" fill="#87CEEB"/>
</g>
<defs>
<clipPath id="clip0_683_348">
<rect width="152.381" height="152.381" fill="white" transform="translate(64.3193 0.608398) rotate(24.7738)"/>
</clipPath>
</defs>
</svg>
