<svg width="108" height="114" viewBox="0 0 108 114" fill="none" xmlns="http://www.w3.org/2000/svg">
<path fill-rule="evenodd" clip-rule="evenodd" d="M81.2787 48.2415C78.3199 38.2698 71.3574 31.8997 62.8277 25.7195C61.3872 24.6762 57.7793 22.2566 54.4709 21.2043C52.1317 20.4595 49.9389 20.4269 48.6543 21.8359C47.5308 23.0665 47.5595 24.7539 48.2791 26.568C49.8411 30.5075 54.6649 35.0859 56.253 36.3588C63.4081 42.0906 71.8444 46.3424 80.6664 48.8581C80.8401 49.4733 80.9994 50.1041 81.143 50.7497C81.5725 52.695 81.8857 55.0555 81.642 57.2702C81.4056 59.4227 80.6436 61.4409 78.9091 62.7668C75.2906 65.5342 69.4329 65.1682 63.2453 63.4242C61.8965 63.0451 60.534 62.5985 59.1726 62.1021C58.8949 61.1812 58.5046 60.2262 58.0205 59.2503C54.265 51.6781 45.0058 42.8261 41.88 40.5584C40.4885 39.5486 37.953 37.656 35.5386 36.9853C33.8123 36.5054 32.1475 36.6401 30.9335 38.0026C29.8512 39.2156 29.9121 40.8412 30.6582 42.5812C32.2697 46.3384 37.1043 50.6642 38.7585 51.9708C42.5184 54.9434 50.4469 59.6697 58.5632 62.686C59.0747 64.5511 59.0554 66.2329 58.2312 67.5697C57.0855 69.4295 54.6136 69.9929 51.6215 69.8692C50.7191 69.8315 49.7701 69.731 48.7959 69.5772C48.7476 69.5092 48.6996 69.4432 48.6513 69.3752C44.7433 63.943 38.4266 58.7588 35.4441 56.7212C34.0988 55.8012 31.5464 54.3043 29.2082 53.8917C27.5396 53.5986 25.9807 53.8554 24.9633 55.1304C23.9183 56.4397 24.3272 57.9514 25.3799 59.361C26.8174 61.2828 29.4456 63.0141 30.4262 63.6506C33.1863 65.4451 41.3883 69.0992 48.3549 70.2731C49.4726 71.887 50.36 73.5165 50.8514 75.0828C51.3725 76.7354 51.4522 78.3157 50.8693 79.7198C49.4283 83.1818 45.4436 83.86 40.8984 83.2513C39.5142 83.066 38.0782 82.7591 36.6404 82.365C36.5305 80.8754 35.9527 79.2571 35.0562 77.634C32.9425 73.8102 29.077 69.942 25.7254 67.7012C24.5695 66.9277 22.4966 65.6994 20.601 65.4108C19.2304 65.2013 17.9515 65.4748 17.0977 66.6357C16.0592 68.0458 16.2997 69.6268 17.1438 71.1338C18.3195 73.2289 20.678 75.1798 21.9134 76.2219C24.3401 78.2667 30.0874 81.2664 35.9077 82.9452C35.8987 83.5557 35.7916 84.1361 35.5693 84.6784C34.7354 86.7207 32.2947 88.1394 27.5258 88.4929C25.2166 88.663 22.8956 88.5916 20.6355 88.082C17.3775 87.3488 14.4646 86.0005 11.5626 84.3921C11.3792 84.2915 11.1479 84.3569 11.0468 84.5406C10.9445 84.7234 11.0104 84.9556 11.1937 85.0563C14.1588 86.6998 17.1391 88.0731 20.4678 88.8222C22.8008 89.3475 25.1968 89.4246 27.5799 89.2497C32.7704 88.8649 35.3634 87.1867 36.2718 84.9646C36.5032 84.3965 36.6259 83.7896 36.6537 83.1533C38.053 83.53 39.4476 83.8231 40.7955 84.0027C45.7336 84.6642 50.0046 83.77 51.569 80.0096C52.7241 77.2317 51.5865 73.8108 49.3734 70.4274C50.1337 70.5282 50.8745 70.5977 51.5873 70.6271C54.9044 70.7647 57.6069 70.0281 58.8767 67.968C59.7219 66.5954 59.8344 64.8871 59.4083 62.9932C60.6215 63.4249 61.8357 63.8167 63.0389 64.1546C69.4899 65.9722 75.5953 66.2548 79.3694 63.3688C80.8975 62.2005 81.7542 60.5526 82.1688 58.7248C82.7699 56.0607 82.4196 53.0117 81.8823 50.5841C81.7711 50.0796 81.6499 49.5827 81.519 49.0954C82.5065 49.3632 83.4983 49.6111 84.494 49.8349C86.9564 50.3902 89.9387 50.9563 92.7333 50.7576C94.6427 50.6208 96.4644 50.1289 97.9896 49.0537C100.176 47.5162 100.908 45.2985 100.858 42.9446C100.81 40.6671 100.02 38.2608 99.1502 36.2593C95.3418 27.4987 88.345 20.2942 79.0104 17.534C78.811 17.4751 78.6001 17.59 78.5396 17.7908C78.4801 17.9905 78.5934 18.2024 78.7949 18.2612C87.9112 20.9569 94.7351 28.0068 98.4548 36.5635C99.2888 38.4794 100.053 40.7816 100.1 42.9632C100.144 45.0664 99.5101 47.0587 97.5554 48.4337C95.7824 49.6818 93.5737 50.0652 91.3221 50.038C89.0166 50.0102 86.6644 49.5474 84.6617 49.0947C83.5288 48.8386 82.3993 48.554 81.2787 48.2415ZM35.8663 82.146C35.7173 80.8354 35.1778 79.4233 34.3925 78.0026C32.3348 74.2785 28.5678 70.5148 25.3034 68.3324C24.2138 67.6044 22.2698 66.431 20.486 66.1603C19.4039 65.9956 18.3807 66.1687 17.7066 67.0844C16.8584 68.2383 17.1153 69.5283 17.8061 70.762C18.9364 72.7758 21.2154 74.6395 22.4034 75.6415C24.7459 77.6146 30.2502 80.4912 35.8663 82.146ZM47.7221 69.3901C43.8523 64.1932 37.8766 59.3026 35.015 57.3467C33.7337 56.4704 31.3039 55.0311 29.0736 54.6391C27.6973 54.3957 26.3947 54.5488 25.5553 55.6025C24.7356 56.6291 25.1619 57.8002 25.9877 58.9047C27.3676 60.7508 29.9 62.4031 30.8402 63.0149C33.4553 64.7142 41.0459 68.1184 47.7221 69.3901ZM58.2737 61.7652C58.0255 61.0589 57.7092 60.331 57.3418 59.5893C53.6413 52.1277 44.5137 43.4068 41.4347 41.1727C40.0934 40.1994 37.6599 38.3636 35.3333 37.7167C33.9003 37.3167 32.5067 37.3752 31.4976 38.5069C30.92 39.1552 30.7748 39.9544 30.9137 40.8281C31.0627 41.7761 31.5384 42.8037 32.1853 43.8383C34.1896 47.044 37.8499 50.2854 39.2296 51.3752C42.8635 54.2484 50.4376 58.7775 58.2737 61.7652ZM80.4088 47.9942C77.4232 38.457 70.636 32.3136 62.3823 26.3338C60.9782 25.3179 57.4635 22.9537 54.2399 21.9266C53.1982 21.5957 52.1896 21.4025 51.2968 21.4544C50.4684 21.5035 49.7445 21.7634 49.2137 22.3462C48.6057 23.0129 48.4405 23.8467 48.5636 24.7642C48.6978 25.7549 49.1598 26.8357 49.7962 27.9244C51.7649 31.2904 55.404 34.7057 56.7277 35.7661C63.6786 41.3337 71.8534 45.4903 80.4088 47.9942Z" fill="#00A86B"/>
</svg>
