<svg width="27" height="27" viewBox="0 0 27 27" fill="none" xmlns="http://www.w3.org/2000/svg">
<g clip-path="url(#clip0_683_317)">
<path fill-rule="evenodd" clip-rule="evenodd" d="M4.12669 12.4724C5.28876 12.0583 6.51163 11.508 7.45464 10.7113C8.57463 9.76492 9.03012 8.54611 9.336 7.26316C9.72869 5.61489 9.88561 3.85908 10.3618 2.20814C10.5381 1.59505 10.8774 1.3633 11.023 1.26045C11.391 1.00065 11.763 0.931211 12.1129 0.957258C12.5276 0.987311 13.0974 1.14425 13.472 1.83948C13.5254 1.93899 13.5949 2.0906 13.6416 2.29831C13.6757 2.45058 13.6977 2.92675 13.7338 3.1231C13.824 3.60663 13.8994 4.09017 13.9702 4.57637C14.206 6.19458 14.3416 7.56901 15.0862 9.05565C16.0967 11.0739 17.1092 12.3088 18.4823 12.8557C19.81 13.3847 21.3974 13.2852 23.4257 12.8705C23.6187 12.8237 23.8097 12.7836 23.9987 12.7509C24.893 12.5946 25.7478 13.1817 25.9235 14.0726C26.0991 14.9628 25.5308 15.8304 24.6446 16.0261C24.4596 16.0668 24.2772 16.1055 24.0969 16.1409C21.356 16.8195 18.183 19.2411 16.3391 21.3616C15.7708 22.0154 14.9386 23.8433 14.0898 25.0094C13.4633 25.8696 12.7594 26.4366 12.1683 26.6369C11.7723 26.7719 11.4384 26.7512 11.1626 26.683C10.7619 26.5842 10.4293 26.3671 10.1742 26.0218C10.0352 25.8328 9.90632 25.5797 9.84488 25.2565C9.81549 25.1009 9.81217 24.7055 9.81284 24.5265C9.63986 23.9315 9.42815 23.3504 9.27387 22.75C8.90589 21.3175 8.18392 20.4105 7.3264 19.2124C6.5243 18.0911 5.6628 17.3865 4.39989 16.8242C4.23559 16.7841 2.9099 16.4595 2.44173 16.2732C1.75785 16 1.43192 15.5425 1.31371 15.2961C1.11268 14.878 1.092 14.5127 1.13207 14.2082C1.19151 13.7587 1.3932 13.374 1.75117 13.0635C1.9729 12.8705 2.30416 12.6828 2.74761 12.5913C3.09022 12.5198 3.99913 12.4784 4.12669 12.4724ZM11.9039 10.1376C11.9653 10.2745 12.0308 10.4121 12.1002 10.551C13.5802 13.5069 15.2351 15.1572 17.2467 15.9579L17.3142 15.984C15.9685 16.9831 14.7503 18.0998 13.8193 19.1703C13.4359 19.6111 12.9284 20.5268 12.3801 21.4658C11.8818 19.8462 11.0671 18.7015 10.0426 17.269C9.25985 16.1757 8.43973 15.3529 7.43193 14.6824C8.21399 14.281 8.95998 13.8108 9.6098 13.2618C10.6917 12.3475 11.407 11.2883 11.9039 10.1376Z" fill="#87CEEB"/>
</g>
<defs>
<clipPath id="clip0_683_317">
<rect width="26.0463" height="26.0463" fill="white" transform="translate(0.80957 0.952148)"/>
</clipPath>
</defs>
</svg>
