<svg width="32" height="34" viewBox="0 0 32 34" fill="none" xmlns="http://www.w3.org/2000/svg">
<path fill-rule="evenodd" clip-rule="evenodd" d="M12.819 6.77901C12.7268 6.23228 12.6574 5.69176 12.6126 5.15117C12.545 4.3403 12.5868 3.52322 12.5628 2.71234C12.5524 2.36833 12.5112 1.47147 12.5278 1.34246C12.6783 0.218294 13.5856 0.0462686 13.851 0.0155536C13.9794 -0.00287541 15.2977 -0.150242 15.5821 1.31179C15.931 3.09941 16.0428 4.89928 15.9193 6.66233C16.2074 8.16122 16.7001 9.65394 17.3507 11.0054C19.9393 16.3805 24.8721 16.9027 30.2166 16.8536C31.0385 16.8413 31.721 17.4863 31.764 18.3033C31.807 19.1265 31.1952 19.839 30.3769 19.9128C27.3896 20.2015 22.0894 22.5973 20.2569 25.0913C19.8736 25.6135 19.6506 26.8728 19.3557 28.1076C18.9442 29.8215 18.4546 31.5169 17.906 32.2295C17.8237 32.3401 16.823 33.4704 16.5244 33.6363C15.8069 34.0294 15.2326 33.8021 14.9064 33.5932C14.5802 33.3844 14.211 32.9728 14.0635 32.2909C13.9093 31.5783 14.0396 30.1163 14.0156 29.803C13.9284 28.6665 13.7011 26.4366 13.2373 24.52C12.9873 23.488 12.7207 22.5358 12.2796 22.0628C10.6468 20.3121 8.03603 20.5701 5.83744 20.8588C5.58497 20.8895 5.33249 20.9264 5.08063 20.9571C4.18559 21.2213 3.23525 21.4178 2.23087 21.5345C0.714158 21.7127 0.464769 20.3182 0.451254 20.2261C0.422996 20.0233 0.31794 18.979 1.46115 18.5613C1.58586 18.5183 2.50609 18.3156 2.86054 18.2357C3.35444 18.1252 3.85385 18.0392 4.35512 17.9593C9.53306 16.3499 12.3453 11.8286 12.819 6.77901ZM14.5961 12.3631C16.5508 16.4052 19.5173 18.3586 23.0335 19.2432H23.0329C20.8374 20.3919 18.8403 21.8294 17.7819 23.273C17.3801 23.8198 17.0116 24.9193 16.6792 26.1541C16.4992 25.0053 16.256 23.7828 15.9347 22.7385C15.5692 21.5468 15.0771 20.5578 14.5279 19.9681C13.4677 18.8316 12.1371 18.1989 10.7064 17.8856C12.419 16.3683 13.7177 14.4762 14.5961 12.3631Z" fill="#00A86B"/>
</svg>
