<svg width="40" height="40" viewBox="0 0 40 40" fill="none" xmlns="http://www.w3.org/2000/svg">
<g clip-path="url(#clip0_683_305)">
<path fill-rule="evenodd" clip-rule="evenodd" d="M18.0707 14.8187C14.4212 11.8187 11.4641 8.24619 9.24189 4.0839C8.79745 3.25486 7.76332 2.93863 6.92574 3.38306C6.0967 3.82749 5.78041 4.86167 6.22484 5.69926C8.66923 10.2547 11.9 14.1691 15.8999 17.4597C16.6263 18.0579 17.7117 17.9553 18.31 17.2289C18.9083 16.4938 18.7972 15.4169 18.0707 14.8187Z" fill="#00A86B"/>
<path fill-rule="evenodd" clip-rule="evenodd" d="M16.1245 3.1352C16.3126 6.58811 16.4835 10.041 16.6972 13.4939C16.757 14.4341 17.569 15.152 18.5091 15.0922C19.4493 15.0323 20.1672 14.2204 20.1074 13.2802C19.8937 9.83588 19.7227 6.39155 19.5347 2.93864C19.4834 2.00106 18.6715 1.27885 17.7313 1.33184C16.7912 1.38483 16.0647 2.19249 16.1245 3.1352Z" fill="#00A86B"/>
<path fill-rule="evenodd" clip-rule="evenodd" d="M28.8129 3.83594C26.6249 7.135 24.1464 10.1776 21.6507 13.2545C21.0525 13.9895 21.1635 15.0664 21.8985 15.6562C22.6336 16.2544 23.7105 16.1433 24.3002 15.4083C26.8643 12.2545 29.4112 9.11782 31.6676 5.72475C32.1889 4.93844 31.9666 3.87867 31.1803 3.35732C30.4026 2.83597 29.3342 3.04963 28.8129 3.83594Z" fill="#00A86B"/>
<path fill-rule="evenodd" clip-rule="evenodd" d="M37.2879 16.1003C31.3564 16.3652 25.0574 16.3738 19.1259 15.9977C18.1858 15.9464 17.3739 16.6558 17.314 17.6045C17.2542 18.5447 17.9721 19.3566 18.9123 19.4164C24.9634 19.7925 31.3906 19.784 37.4418 19.519C38.3819 19.4763 39.1169 18.6729 39.0741 17.7328C39.0314 16.7926 38.228 16.0576 37.2879 16.1003Z" fill="#00A86B"/>
<path fill-rule="evenodd" clip-rule="evenodd" d="M15.8944 17.1859C19.5524 21.6644 23.3387 26.0575 26.7318 30.7411C27.2873 31.5018 28.3557 31.6727 29.1249 31.1171C29.8856 30.5616 30.0564 29.4932 29.5009 28.7326C26.0651 23.9976 22.2362 19.5533 18.5354 15.0235C17.9371 14.297 16.8602 14.186 16.1337 14.7842C15.3987 15.3825 15.2961 16.4594 15.8944 17.1859Z" fill="#00A86B"/>
<path fill-rule="evenodd" clip-rule="evenodd" d="M17.0022 18.4851C17.9595 23.1517 18.2244 27.6131 18.2928 32.3395C18.3014 33.2797 19.0791 34.0317 20.0193 34.0232C20.968 34.0061 21.7201 33.2369 21.703 32.2882C21.6346 27.3396 21.3526 22.6816 20.3526 17.7929C20.156 16.8698 19.2586 16.2715 18.327 16.4681C17.404 16.6561 16.8057 17.5621 17.0022 18.4851Z" fill="#00A86B"/>
<path fill-rule="evenodd" clip-rule="evenodd" d="M17.1565 18.11C14.3873 23.6483 12.96 29.802 9.99429 35.2207C9.54131 36.0412 9.84893 37.0839 10.678 37.5369C11.507 37.9898 12.5412 37.6821 12.9942 36.8616C15.9771 31.4088 17.4214 25.2209 20.2162 19.6399C20.635 18.7937 20.2931 17.7681 19.4555 17.3408C18.6094 16.922 17.5838 17.2639 17.1565 18.11Z" fill="#00A86B"/>
<path fill-rule="evenodd" clip-rule="evenodd" d="M18.6808 16.8534C13.1682 17.8277 7.66402 18.2722 2.11716 18.9303C1.17701 19.0414 0.510362 19.8875 0.62147 20.8277C0.732578 21.7678 1.57879 22.4345 2.51894 22.3234C8.12563 21.6653 13.6981 21.2037 19.2792 20.2208C20.2022 20.0499 20.8261 19.161 20.6638 18.238C20.4928 17.3064 19.6124 16.6825 18.6808 16.8534Z" fill="#00A86B"/>
<path fill-rule="evenodd" clip-rule="evenodd" d="M22.5174 14.2551C21.3807 14.2038 20.3038 14.1269 19.1927 13.9645C18.2526 13.8277 17.3893 14.4773 17.2526 15.4089C17.1158 16.3405 17.7653 17.2123 18.6969 17.349C19.9277 17.5285 21.1157 17.614 22.3635 17.6652C23.3037 17.708 24.107 16.9815 24.1412 16.0328C24.184 15.0926 23.4576 14.2978 22.5174 14.2551Z" fill="#00A86B"/>
</g>
<defs>
<clipPath id="clip0_683_305">
<rect width="39.3152" height="39.3152" fill="white" transform="translate(0.572266 0.0478516)"/>
</clipPath>
</defs>
</svg>
