<svg width="1303" height="101" viewBox="0 0 1303 101" fill="none" xmlns="http://www.w3.org/2000/svg">
<path fill-rule="evenodd" clip-rule="evenodd" d="M29.8138 55.1005C21.237 54.9565 12.673 54.7645 4.11127 54.5365C2.43853 54.4905 1.04505 55.8135 1.00107 57.4885C0.957086 59.1645 2.27945 60.5625 3.95218 60.6085C11.6592 60.8065 19.3677 60.9805 27.0717 61.1295C27.5014 61.4245 28.3648 61.8565 29.8434 62.1085C75.9215 69.6735 125.73 63.9495 172.853 60.7305C217.029 59.7805 261.228 58.1755 305.438 56.2185C300.17 56.7235 294.904 57.2155 289.635 57.6835C288.539 57.7835 285.698 58.0535 285.308 58.1505C283.076 58.7505 283.015 60.6685 283.023 61.1555C283.027 61.3985 283.201 64.0865 286.219 64.1685C318.638 65.0265 351.053 62.1365 383.326 59.5185C395.331 58.5425 407.324 57.5405 419.325 56.5155C423.497 56.1485 434.356 55.6345 435.854 55.3535C437.464 55.0415 438.09 54.0235 438.331 53.2365C464.368 51.6565 490.433 50.2725 516.505 49.0725C521.61 49.0685 526.706 49.0765 531.804 49.0845C587.357 49.2235 642.896 49.5685 698.445 49.4635C667.497 50.8895 636.471 52.4325 605.57 54.5665C599.24 55.0025 592.922 55.6105 586.594 56.0965C583.137 56.3505 574.198 56.4755 572.939 56.8825C571.064 57.5045 570.768 58.9465 570.719 59.6605C570.69 60.0965 570.828 62.5265 573.98 63.1275C632.439 74.3385 692.087 76.7215 751.375 79.8105C766.972 80.6195 782.565 81.4895 798.151 82.4085C760.906 83.0445 723.289 81.6855 686.107 80.7805C685.771 80.4675 685.286 80.1695 684.592 79.9675C683.573 79.6585 680.415 79.2635 674.662 78.8365C673.422 78.7455 672.301 79.4165 671.757 80.4525C662.922 80.2795 654.111 80.1455 645.342 80.0865C616.623 79.8895 587.905 80.7155 559.19 80.6525L552.691 80.5805L551.336 80.5675C546.358 80.4815 540.269 80.3495 536.223 80.2625C533.888 80.1995 527.814 80.1785 526.975 80.1975C524.441 80.2795 524.007 82.6245 523.989 82.7325C523.979 82.7925 524.015 86.2135 527.481 86.2995C529.801 86.3625 538.558 86.4815 550.835 86.6295C553.919 86.6795 556.625 86.7175 558.238 86.7235L559.48 86.7295C598.736 87.1455 661.643 87.5815 679.457 86.6955C737.406 87.9965 796.536 90.7595 853.766 85.7505C855.644 85.5785 856.467 84.9735 856.628 84.8375C857.515 84.0545 857.701 83.1665 857.666 82.3975C857.645 81.9105 857.4 79.9355 855.025 79.4805C853.356 79.1555 841.325 78.9255 836.694 78.6435C808.365 76.9145 780.033 75.2225 751.689 73.7485C700.579 71.0815 649.199 68.9695 598.546 61.1985C601.025 60.9915 603.506 60.7965 605.988 60.6265C637.32 58.4585 668.78 56.8955 700.155 55.4605C797.589 51.0005 897.286 56.9755 994.274 48.7175C996.261 48.5515 997.15 47.9515 997.321 47.8165C998.261 47.0245 998.445 46.0995 998.409 45.3185C998.386 44.8425 998.122 42.8435 995.701 42.3975C993.705 42.0265 979.322 41.8055 973.784 41.5025C951.673 40.2905 929.545 39.0655 907.411 38.3755C870.876 37.2445 834.261 36.5705 797.656 36.4075C794.532 35.6975 791.294 35.0415 787.95 34.4405C812.635 34.0155 837.307 33.7955 861.969 33.8555C963.065 34.0695 1064.14 35.9225 1165.19 38.5175C1207.04 39.5985 1249.49 43.0155 1291.35 42.3205C1292.84 42.2935 1296.12 42.5995 1297.74 42.5685C1298.67 42.5545 1299.34 42.3905 1299.67 42.2655C1301.02 41.7185 1301.45 40.7365 1301.6 39.9675C1301.72 39.3675 1301.96 37.3995 1299.46 36.2915C1245.84 12.4695 1160.66 20.3845 1104.87 17.9685C877.072 8.10348 649.112 14.0305 421.519 26.0985C330.523 30.9195 239.757 35.8145 148.948 43.5175C116.722 46.2485 84.454 48.4545 52.3925 52.7775C48.208 53.3505 39.3606 53.9315 33.6923 54.5435C32.1663 54.7145 30.838 54.9095 29.8138 55.1005ZM1282.35 36.3345C1229.43 19.6375 1154.92 26.2115 1104.61 24.0335C877.006 14.1815 649.24 20.0965 421.841 32.1525C330.909 36.9775 240.208 41.8645 149.461 49.5715C126.376 51.5215 103.267 53.2145 80.2314 55.6055C110.994 55.6645 141.769 55.3225 172.587 54.6675C179.001 54.2235 185.37 53.8255 191.672 53.5215C269.081 49.7465 346.662 46.0805 424.241 44.2385C449.903 42.8655 475.566 41.4565 501.25 40.0615C550.967 35.6445 618.835 29.3905 681.273 28.3245C702.75 27.9635 723.589 28.2185 742.84 29.3815C782.584 28.2965 822.292 27.6955 861.98 27.7865C963.125 27.9905 1064.24 29.8595 1165.35 32.4585C1204.15 33.4535 1243.45 36.4765 1282.35 36.3345ZM797.051 42.4755C773.596 42.3825 750.148 42.5095 726.731 42.8575C716.31 43.0215 705.887 43.1975 695.461 43.3985C701.154 43.3955 706.847 43.3805 712.54 43.3535C739.261 43.2645 766.046 43.2165 792.766 42.6165C794.094 42.5795 795.874 42.6195 797.869 42.6735L797.088 42.4905L797.051 42.4755ZM941.539 45.8615C930.105 45.3055 918.667 44.7965 907.226 44.4465C877.529 43.5305 847.784 42.9045 818.029 42.6175C818.742 43.0765 819.12 43.5145 819.293 43.7925C819.8 44.5795 819.88 45.3505 819.764 46.0485C819.693 46.4825 819.53 46.9955 819.163 47.4825C860.027 47.4535 900.939 47.5135 941.539 45.8615ZM756.791 36.4605C752.312 36.0665 747.723 35.7255 743.037 35.4395C719.802 36.0785 696.565 36.8635 673.353 37.7715C691.107 37.3925 708.876 37.0625 726.637 36.7935C736.685 36.6415 746.737 36.5265 756.791 36.4605Z" fill="#87CEEB"/>
</svg>
