<svg width="80" height="80" viewBox="0 0 80 80" fill="none" xmlns="http://www.w3.org/2000/svg">
<path fill-rule="evenodd" clip-rule="evenodd" d="M75.7428 25.1767C60.7279 53.0966 30.734 64.4476 2.87622 48.7294C1.94883 48.206 0.772791 48.5332 0.249394 49.4491C-0.274003 50.3814 0.0531556 51.559 0.980549 52.0824C30.8403 68.9456 63.0439 56.9239 79.1383 27.0085C79.6421 26.0762 79.2905 24.8984 78.3533 24.3914C77.4161 23.9007 76.2466 24.2444 75.7428 25.1767Z" fill="#87CEEB"/>
<path d="M26.319 36.7547C29.4206 36.7547 31.935 34.2404 31.935 31.1388C31.935 28.0372 29.4206 25.5229 26.319 25.5229C23.2174 25.5229 20.7031 28.0372 20.7031 31.1388C20.7031 34.2404 23.2174 36.7547 26.319 36.7547Z" fill="#87CEEB"/>
<path d="M49.5677 30.7809C52.6086 30.7809 55.0739 28.3158 55.0739 25.2748C55.0739 22.2338 52.6086 19.7687 49.5677 19.7687C46.5267 19.7687 44.0615 22.2338 44.0615 25.2748C44.0615 28.3158 46.5267 30.7809 49.5677 30.7809Z" fill="#87CEEB"/>
</svg>
