<svg width="237" height="111" viewBox="0 0 237 111" fill="none" xmlns="http://www.w3.org/2000/svg">
<path d="M55.9284 24.6117V25.9329C54.4311 25.9769 53.2861 26.1531 52.4935 26.4613C51.7448 26.7255 51.2384 27.254 50.9742 28.0467C50.7099 28.7953 50.5778 29.9843 50.5778 31.6137V64.3779C50.5778 65.9632 50.7099 67.1523 50.9742 67.9449C51.2384 68.7376 51.7448 69.2661 52.4935 69.5303C53.2861 69.7945 54.4311 69.9707 55.9284 70.0587V71.3799C54.9156 71.2918 53.6385 71.2478 52.0971 71.2478C50.5998 71.2037 49.0805 71.1817 47.5392 71.1817C45.8217 71.1817 44.2144 71.2037 42.7171 71.2478C41.2198 71.2478 40.0088 71.2918 39.084 71.3799V70.0587C40.5812 69.9707 41.7042 69.7945 42.4528 69.5303C43.2455 69.2661 43.774 68.7376 44.0382 67.9449C44.3024 67.1523 44.4346 65.9632 44.4346 64.3779V28.0467L44.6988 28.2448L28.5149 71.7102H27.458L10.8117 28.8394V63.7173C10.8117 65.3027 10.9438 66.5577 11.208 67.4825C11.5163 68.3633 12.0888 69.0018 12.9255 69.3982C13.8063 69.7505 15.1054 69.9707 16.8228 70.0587V71.3799C16.0302 71.2918 14.9953 71.2478 13.7182 71.2478C12.4411 71.2037 11.23 71.1817 10.0851 71.1817C8.98412 71.1817 7.86115 71.2037 6.71617 71.2478C5.61522 71.2478 4.69043 71.2918 3.94179 71.3799V70.0587C5.43907 69.9707 6.56204 69.7505 7.31068 69.3982C8.10336 69.0018 8.63181 68.3633 8.89604 67.4825C9.16027 66.5577 9.29238 65.3027 9.29238 63.7173V31.6137C9.29238 29.9843 9.16027 28.7953 8.89604 28.0467C8.63181 27.254 8.10336 26.7255 7.31068 26.4613C6.56204 26.1531 5.43907 25.9769 3.94179 25.9329V24.6117C4.69043 24.6558 5.61522 24.6998 6.71617 24.7438C7.86115 24.7879 8.98412 24.8099 10.0851 24.8099C11.0539 24.8099 12.0447 24.7879 13.0576 24.7438C14.1145 24.6998 14.9953 24.6558 15.6999 24.6117L30.6948 64.1136L29.5718 64.6421L44.4346 24.8099C44.963 24.8099 45.4694 24.8099 45.9539 24.8099C46.4823 24.8099 47.0108 24.8099 47.5392 24.8099C49.0805 24.8099 50.5998 24.7879 52.0971 24.7438C53.6385 24.6998 54.9156 24.6558 55.9284 24.6117ZM80.0453 24.2814L96.1631 65.8311C96.8237 67.5046 97.5724 68.6275 98.4091 69.2C99.2458 69.7285 100.016 70.0147 100.721 70.0587V71.3799C99.8403 71.2918 98.7614 71.2478 97.4843 71.2478C96.2072 71.2037 94.9301 71.1817 93.653 71.1817C91.9355 71.1817 90.3281 71.2037 88.8309 71.2478C87.3336 71.2478 86.1225 71.2918 85.1977 71.3799V70.0587C87.4437 69.9707 88.8749 69.5964 89.4914 68.9358C90.1079 68.2312 89.9758 66.7559 89.0951 64.51L76.8085 31.6798L77.8654 30.8211L66.3716 60.6787C65.667 62.4402 65.2486 63.9375 65.1165 65.1706C64.9844 66.3596 65.0945 67.3064 65.4468 68.011C65.8431 68.7156 66.4817 69.222 67.3624 69.5303C68.2872 69.8386 69.4322 70.0147 70.7974 70.0587V71.3799C69.5643 71.2918 68.2652 71.2478 66.9 71.2478C65.5789 71.2037 64.3458 71.1817 63.2008 71.1817C62.0999 71.1817 61.1531 71.2037 60.3604 71.2478C59.6118 71.2478 58.9072 71.2918 58.2466 71.3799V70.0587C59.1274 69.8386 60.0301 69.3321 60.9549 68.5394C61.8797 67.7027 62.7164 66.2935 63.4651 64.3118L78.9884 24.2814C79.1646 24.2814 79.3407 24.2814 79.5169 24.2814C79.693 24.2814 79.8692 24.2814 80.0453 24.2814ZM88.1042 52.3555V53.6767H68.4193L69.0799 52.3555H88.1042ZM118.646 24.6117V25.9329C117.148 25.9769 116.003 26.1531 115.211 26.4613C114.462 26.7255 113.956 27.254 113.691 28.0467C113.427 28.7953 113.295 29.9843 113.295 31.6137V64.3779C113.295 65.9632 113.427 67.1523 113.691 67.9449C113.956 68.7376 114.462 69.2661 115.211 69.5303C116.003 69.7505 117.148 69.8606 118.646 69.8606H123.468C125.538 69.8606 127.211 69.6404 128.488 69.2C129.809 68.7596 130.844 68.077 131.593 67.1523C132.385 66.1834 132.98 64.9063 133.376 63.321C133.773 61.7356 134.081 59.7979 134.301 57.508H135.82C135.688 58.8731 135.622 60.6787 135.622 62.9246C135.622 63.7613 135.644 64.9724 135.688 66.5577C135.776 68.0991 135.908 69.7064 136.085 71.3799C133.839 71.2918 131.307 71.2478 128.488 71.2478C125.67 71.2037 123.16 71.1817 120.958 71.1817C119.989 71.1817 118.734 71.1817 117.192 71.1817C115.695 71.1817 114.066 71.2037 112.304 71.2478C110.543 71.2478 108.759 71.2698 106.954 71.3138C105.148 71.3138 103.431 71.3358 101.801 71.3799V70.0587C103.298 69.9707 104.421 69.7945 105.17 69.5303C105.963 69.2661 106.491 68.7376 106.755 67.9449C107.02 67.1523 107.152 65.9632 107.152 64.3779V31.6137C107.152 29.9843 107.02 28.7953 106.755 28.0467C106.491 27.254 105.963 26.7255 105.17 26.4613C104.421 26.1531 103.298 25.9769 101.801 25.9329V24.6117C102.726 24.6558 103.937 24.6998 105.434 24.7438C106.932 24.7879 108.539 24.8099 110.256 24.8099C111.798 24.8099 113.317 24.7879 114.814 24.7438C116.356 24.6998 117.633 24.6558 118.646 24.6117ZM174.649 24.6117V25.9329C173.813 26.109 172.91 26.6155 171.941 27.4522C171.016 28.2889 170.18 29.6981 169.431 31.6798L153.908 71.7102C153.819 71.7102 153.731 71.7102 153.643 71.7102C153.555 71.7102 153.467 71.7102 153.379 71.7102C153.291 71.7102 153.203 71.7102 153.115 71.7102C153.027 71.7102 152.939 71.7102 152.851 71.7102L136.733 30.1605C136.072 28.4871 135.324 27.3861 134.487 26.8577C133.65 26.2852 132.879 25.9769 132.175 25.9329V24.6117C133.056 24.6558 134.135 24.6998 135.412 24.7438C136.733 24.7879 138.01 24.8099 139.243 24.8099C140.96 24.8099 142.568 24.7879 144.065 24.7438C145.562 24.6998 146.773 24.6558 147.698 24.6117V25.9329C146.201 25.9769 145.056 26.1531 144.263 26.4613C143.515 26.7696 143.096 27.3201 143.008 28.1127C142.964 28.8614 143.228 29.9843 143.801 31.4816L156.087 64.0476L155.031 65.1706L166.524 35.3129C167.449 32.9349 167.89 31.0853 167.846 29.7642C167.801 28.399 167.295 27.4302 166.326 26.8577C165.357 26.2852 163.948 25.9769 162.099 25.9329V24.6117C163.376 24.6558 164.675 24.6998 165.996 24.7438C167.317 24.7879 168.55 24.8099 169.695 24.8099C170.84 24.8099 171.787 24.7879 172.536 24.7438C173.284 24.6998 173.989 24.6558 174.649 24.6117ZM193.798 24.6117V25.9329C192.301 25.9769 191.156 26.1531 190.363 26.4613C189.614 26.7255 189.108 27.254 188.844 28.0467C188.58 28.7953 188.447 29.9843 188.447 31.6137V64.3779C188.447 65.9632 188.58 67.1523 188.844 67.9449C189.108 68.7376 189.614 69.2661 190.363 69.5303C191.156 69.7945 192.301 69.9707 193.798 70.0587V71.3799C192.785 71.2918 191.508 71.2478 189.967 71.2478C188.469 71.2037 186.95 71.1817 185.409 71.1817C183.691 71.1817 182.084 71.2037 180.587 71.2478C179.089 71.2478 177.878 71.2918 176.954 71.3799V70.0587C178.451 69.9707 179.574 69.7945 180.322 69.5303C181.115 69.2661 181.644 68.7376 181.908 67.9449C182.172 67.1523 182.304 65.9632 182.304 64.3779V31.6137C182.304 29.9843 182.172 28.7953 181.908 28.0467C181.644 27.254 181.115 26.7255 180.322 26.4613C179.574 26.1531 178.451 25.9769 176.954 25.9329V24.6117C177.878 24.6558 179.089 24.6998 180.587 24.7438C182.084 24.7879 183.691 24.8099 185.409 24.8099C186.95 24.8099 188.469 24.7879 189.967 24.7438C191.508 24.6998 192.785 24.6558 193.798 24.6117ZM232.3 24.6117C232.124 26.1531 231.992 27.6503 231.904 29.1036C231.86 30.5568 231.838 31.6578 231.838 32.4064C231.838 33.1991 231.86 33.9698 231.904 34.7184C231.948 35.423 231.992 36.0175 232.036 36.5019H230.517C230.253 33.9037 229.878 31.856 229.394 30.3587C228.909 28.8173 228.073 27.7384 226.884 27.1219C225.739 26.4613 223.999 26.131 221.665 26.131H216.183C214.685 26.131 213.54 26.2631 212.748 26.5274C211.999 26.7476 211.492 27.254 211.228 28.0467C210.964 28.7953 210.832 29.9843 210.832 31.6137V64.3779C210.832 65.9632 210.964 67.1523 211.228 67.9449C211.492 68.7376 211.999 69.2661 212.748 69.5303C213.54 69.7505 214.685 69.8606 216.183 69.8606H221.005C223.779 69.8606 225.871 69.4863 227.28 68.7376C228.733 67.989 229.768 66.7779 230.385 65.1045C231.045 63.387 231.53 61.075 231.838 58.1685H233.357C233.225 59.3576 233.159 60.9429 233.159 62.9246C233.159 63.7613 233.181 64.9724 233.225 66.5577C233.313 68.0991 233.445 69.7064 233.621 71.3799C231.376 71.2918 228.843 71.2478 226.025 71.2478C223.207 71.2037 220.696 71.1817 218.494 71.1817C217.526 71.1817 216.271 71.1817 214.729 71.1817C213.232 71.1817 211.603 71.2037 209.841 71.2478C208.08 71.2478 206.296 71.2698 204.49 71.3138C202.685 71.3138 200.967 71.3358 199.338 71.3799V70.0587C200.835 69.9707 201.958 69.7945 202.707 69.5303C203.5 69.2661 204.028 68.7376 204.292 67.9449C204.557 67.1523 204.689 65.9632 204.689 64.3779V31.6137C204.689 29.9843 204.557 28.7953 204.292 28.0467C204.028 27.254 203.5 26.7255 202.707 26.4613C201.958 26.1531 200.835 25.9769 199.338 25.9329V24.6117C200.967 24.6558 202.685 24.6998 204.49 24.7438C206.296 24.7438 208.08 24.7659 209.841 24.8099C211.603 24.8099 213.232 24.8099 214.729 24.8099C216.271 24.8099 217.526 24.8099 218.494 24.8099C220.52 24.8099 222.81 24.8099 225.364 24.8099C227.963 24.7659 230.275 24.6998 232.3 24.6117ZM220.939 47.2031C220.939 47.2031 220.939 47.4233 220.939 47.8637C220.939 48.3041 220.939 48.5243 220.939 48.5243H208.85C208.85 48.5243 208.85 48.3041 208.85 47.8637C208.85 47.4233 208.85 47.2031 208.85 47.2031H220.939ZM222.854 38.4836C222.678 40.9938 222.59 42.9094 222.59 44.2306C222.634 45.5517 222.656 46.7627 222.656 47.8637C222.656 48.9646 222.678 50.1757 222.722 51.4968C222.766 52.8179 222.876 54.7336 223.052 57.2437H221.533C221.357 55.8345 221.137 54.4694 220.873 53.1482C220.652 51.7831 220.124 50.6821 219.287 49.8454C218.494 48.9646 217.129 48.5243 215.192 48.5243V47.2031C216.645 47.2031 217.746 46.9169 218.494 46.3444C219.287 45.7279 219.86 44.9572 220.212 44.0324C220.564 43.1076 220.806 42.1608 220.939 41.192C221.071 40.1791 221.203 39.2763 221.335 38.4836H222.854Z" fill="#F0F9F1"/>
<path d="M50.7911 94.7635C50.7471 95.1819 50.7141 95.5892 50.6921 95.9856C50.6811 96.3709 50.6756 96.6682 50.6756 96.8773C50.6756 97.1416 50.6811 97.3893 50.6921 97.6205C50.7031 97.8517 50.7141 98.0554 50.7251 98.2315H50.3453C50.2682 97.4608 50.1636 96.8553 50.0315 96.4149C49.8994 95.9636 49.6682 95.6388 49.3379 95.4406C49.0076 95.2424 48.4957 95.1434 47.8021 95.1434H46.7617C46.3874 95.1434 46.1011 95.1764 45.903 95.2424C45.7158 95.2975 45.5892 95.4241 45.5231 95.6223C45.4571 95.8094 45.424 96.1067 45.424 96.514V104.705C45.424 105.101 45.4626 105.399 45.5396 105.597C45.6277 105.795 45.7929 105.927 46.0351 105.993C46.2773 106.059 46.6296 106.103 47.092 106.125V106.456C46.8057 106.434 46.4424 106.423 46.002 106.423C45.5617 106.412 45.1158 106.406 44.6644 106.406C44.235 106.406 43.8332 106.412 43.4589 106.423C43.0845 106.423 42.7818 106.434 42.5506 106.456V106.125C42.9249 106.103 43.2056 106.059 43.3928 105.993C43.591 105.927 43.7231 105.795 43.7891 105.597C43.8552 105.399 43.8882 105.101 43.8882 104.705V96.514C43.8882 96.1067 43.8552 95.8094 43.7891 95.6223C43.7231 95.4241 43.591 95.292 43.3928 95.2259C43.2056 95.1489 42.9249 95.1048 42.5506 95.0938V94.7635C42.9579 94.7745 43.3873 94.7855 43.8387 94.7966C44.2901 94.7966 44.736 94.8021 45.1763 94.8131C45.6167 94.8131 46.0241 94.8131 46.3984 94.8131C46.7837 94.8131 47.0975 94.8131 47.3397 94.8131C47.8461 94.8131 48.4186 94.8131 49.0572 94.8131C49.7067 94.8021 50.2847 94.7855 50.7911 94.7635ZM48.2315 100.577C48.2315 100.577 48.2315 100.632 48.2315 100.742C48.2315 100.852 48.2315 100.907 48.2315 100.907H44.9286C44.9286 100.907 44.9286 100.852 44.9286 100.742C44.9286 100.632 44.9286 100.577 44.9286 100.577H48.2315ZM48.5452 98.3966C48.5012 99.0242 48.4792 99.5031 48.4792 99.8334C48.4902 100.164 48.4957 100.466 48.4957 100.742C48.4957 101.017 48.5012 101.32 48.5122 101.65C48.5232 101.98 48.5507 102.459 48.5948 103.087H48.2149C48.1709 102.734 48.1159 102.393 48.0498 102.063C47.9947 101.722 47.8626 101.446 47.6535 101.237C47.4553 101.017 47.114 100.907 46.6296 100.907V100.577C46.9929 100.577 47.2681 100.505 47.4553 100.362C47.6535 100.208 47.7966 100.015 47.8847 99.7838C47.9727 99.5526 48.0333 99.3159 48.0663 99.0737C48.0993 98.8205 48.1324 98.5948 48.1654 98.3966H48.5452ZM51.9527 94.7635C52.1839 94.7745 52.4866 94.7855 52.861 94.7966C53.2353 94.8076 53.6041 94.8131 53.9674 94.8131C54.4849 94.8131 54.9803 94.8076 55.4537 94.7966C55.9271 94.7855 56.2629 94.78 56.4611 94.78C57.3528 94.78 58.0905 94.9067 58.674 95.1599C59.2685 95.4131 59.7088 95.7599 59.9951 96.2003C60.2924 96.6296 60.441 97.114 60.441 97.6535C60.441 97.9838 60.3749 98.3361 60.2428 98.7104C60.1107 99.0847 59.8795 99.437 59.5492 99.7673C59.2299 100.098 58.7896 100.373 58.2281 100.593C57.6666 100.802 56.9565 100.907 56.0977 100.907H54.5124V100.577H55.9326C56.7143 100.577 57.3088 100.455 57.7161 100.213C58.1345 99.96 58.4152 99.6297 58.5584 99.2224C58.7125 98.804 58.7896 98.3416 58.7896 97.8352C58.7896 96.9654 58.5804 96.2938 58.162 95.8204C57.7547 95.336 57.0501 95.0938 56.0482 95.0938C55.5418 95.0938 55.2115 95.1874 55.0574 95.3746C54.9032 95.5617 54.8262 95.9415 54.8262 96.514V104.705C54.8262 105.101 54.8592 105.399 54.9252 105.597C54.9913 105.795 55.1179 105.927 55.3051 105.993C55.5032 106.059 55.7895 106.103 56.1638 106.125V106.456C55.9106 106.434 55.5913 106.423 55.206 106.423C54.8317 106.412 54.4518 106.406 54.0665 106.406C53.6371 106.406 53.2353 106.412 52.861 106.423C52.4866 106.423 52.1839 106.434 51.9527 106.456V106.125C52.327 106.103 52.6078 106.059 52.7949 105.993C52.9931 105.927 53.1252 105.795 53.1913 105.597C53.2573 105.399 53.2903 105.101 53.2903 104.705V96.514C53.2903 96.1067 53.2573 95.8094 53.1913 95.6223C53.1252 95.4241 52.9931 95.292 52.7949 95.2259C52.6078 95.1489 52.327 95.1048 51.9527 95.0938V94.7635ZM54.5784 100.626C55.173 100.648 55.6409 100.676 55.9821 100.709C56.3234 100.731 56.5987 100.753 56.8079 100.775C57.028 100.797 57.2372 100.824 57.4354 100.857C58.173 100.978 58.7015 101.204 59.0208 101.534C59.351 101.854 59.5932 102.355 59.7474 103.037L60.1602 104.722C60.2703 105.206 60.3804 105.558 60.4905 105.778C60.6116 105.988 60.7933 106.087 61.0355 106.076C61.2226 106.065 61.3768 106.004 61.4979 105.894C61.63 105.784 61.7676 105.635 61.9107 105.448L62.1585 105.63C61.9273 105.971 61.685 106.235 61.4318 106.423C61.1896 106.599 60.8428 106.687 60.3914 106.687C59.9841 106.687 59.6263 106.566 59.318 106.323C59.0097 106.081 58.7785 105.608 58.6244 104.903L58.2611 103.252C58.162 102.778 58.0464 102.371 57.9143 102.03C57.7932 101.677 57.6171 101.402 57.3859 101.204C57.1657 101.006 56.8354 100.907 56.395 100.907H54.6115L54.5784 100.626ZM70.9017 94.7635C70.8576 95.1489 70.8246 95.5232 70.8026 95.8865C70.7916 96.2498 70.7861 96.525 70.7861 96.7122C70.7861 96.9104 70.7916 97.103 70.8026 97.2902C70.8136 97.4663 70.8246 97.615 70.8356 97.7361H70.4558C70.3897 97.0865 70.2962 96.5746 70.1751 96.2003C70.0539 95.8149 69.8448 95.5452 69.5475 95.3911C69.2613 95.2259 68.8264 95.1434 68.2429 95.1434H66.8722C66.4979 95.1434 66.2117 95.1764 66.0135 95.2424C65.8263 95.2975 65.6997 95.4241 65.6337 95.6223C65.5676 95.8094 65.5346 96.1067 65.5346 96.514V104.705C65.5346 105.101 65.5676 105.399 65.6337 105.597C65.6997 105.795 65.8263 105.927 66.0135 105.993C66.2117 106.048 66.4979 106.076 66.8722 106.076H68.0778C68.7713 106.076 69.2943 105.982 69.6466 105.795C70.0099 105.608 70.2686 105.305 70.4228 104.887C70.5879 104.457 70.709 103.879 70.7861 103.153H71.1659C71.1329 103.45 71.1164 103.846 71.1164 104.342C71.1164 104.551 71.1219 104.854 71.1329 105.25C71.1549 105.635 71.1879 106.037 71.232 106.456C70.6705 106.434 70.0374 106.423 69.3328 106.423C68.6282 106.412 68.0007 106.406 67.4502 106.406C67.208 106.406 66.8942 106.406 66.5089 106.406C66.1346 106.406 65.7272 106.412 65.2869 106.423C64.8465 106.423 64.4006 106.428 63.9492 106.439C63.4978 106.439 63.0685 106.445 62.6611 106.456V106.125C63.0354 106.103 63.3162 106.059 63.5033 105.993C63.7015 105.927 63.8336 105.795 63.8997 105.597C63.9657 105.399 63.9988 105.101 63.9988 104.705V96.514C63.9988 96.1067 63.9657 95.8094 63.8997 95.6223C63.8336 95.4241 63.7015 95.292 63.5033 95.2259C63.3162 95.1489 63.0354 95.1048 62.6611 95.0938V94.7635C63.0685 94.7745 63.4978 94.7855 63.9492 94.7966C64.4006 94.7966 64.8465 94.8021 65.2869 94.8131C65.7272 94.8131 66.1346 94.8131 66.5089 94.8131C66.8942 94.8131 67.208 94.8131 67.4502 94.8131C67.9566 94.8131 68.5291 94.8131 69.1677 94.8131C69.8172 94.8021 70.3952 94.7855 70.9017 94.7635ZM68.0612 100.411C68.0612 100.411 68.0612 100.466 68.0612 100.577C68.0612 100.687 68.0612 100.742 68.0612 100.742H65.0391C65.0391 100.742 65.0391 100.687 65.0391 100.577C65.0391 100.466 65.0391 100.411 65.0391 100.411H68.0612ZM68.5401 98.2315C68.4961 98.859 68.4741 99.338 68.4741 99.6682C68.4851 99.9985 68.4906 100.301 68.4906 100.577C68.4906 100.852 68.4961 101.155 68.5071 101.485C68.5181 101.815 68.5457 102.294 68.5897 102.922H68.2099C68.1658 102.569 68.1108 102.228 68.0447 101.898C67.9897 101.556 67.8576 101.281 67.6484 101.072C67.4502 100.852 67.1089 100.742 66.6245 100.742V100.411C66.9878 100.411 67.2631 100.34 67.4502 100.197C67.6484 100.043 67.7915 99.8499 67.8796 99.6187C67.9677 99.3875 68.0282 99.1508 68.0612 98.9086C68.0943 98.6554 68.1273 98.4297 68.1603 98.2315H68.5401ZM83.0953 94.7635V95.0938C82.721 95.1048 82.4348 95.1599 82.2366 95.259C82.0494 95.358 81.9228 95.5177 81.8568 95.7379C81.7907 95.9581 81.7577 96.2718 81.7577 96.6792V106.538C81.6916 106.538 81.6256 106.538 81.5595 106.538C81.5045 106.538 81.4439 106.538 81.3779 106.538L74.4419 95.8204V104.54C74.4419 104.936 74.4749 105.25 74.541 105.481C74.6181 105.701 74.7612 105.861 74.9704 105.96C75.1905 106.048 75.5153 106.103 75.9447 106.125V106.456C75.7465 106.434 75.4878 106.423 75.1685 106.423C74.8493 106.412 74.5465 106.406 74.2602 106.406C73.985 106.406 73.7043 106.412 73.418 106.423C73.1428 106.423 72.9116 106.434 72.7244 106.456V106.125C73.0988 106.103 73.3795 106.048 73.5667 105.96C73.7648 105.861 73.8969 105.701 73.963 105.481C74.029 105.25 74.0621 104.936 74.0621 104.54V96.514C74.0621 96.1067 74.029 95.8094 73.963 95.6223C73.8969 95.4241 73.7648 95.292 73.5667 95.2259C73.3795 95.1489 73.0988 95.1048 72.7244 95.0938V94.7635C72.9116 94.7745 73.1428 94.7855 73.418 94.7966C73.7043 94.8076 73.985 94.8131 74.2602 94.8131C74.5025 94.8131 74.7337 94.8076 74.9538 94.7966C75.174 94.7855 75.3722 94.7745 75.5484 94.7635L81.3779 103.747V96.6792C81.3779 96.2718 81.3393 95.9581 81.2623 95.7379C81.1962 95.5177 81.0531 95.358 80.8329 95.259C80.6237 95.1599 80.3044 95.1048 79.8751 95.0938V94.7635C80.0732 94.7745 80.332 94.7855 80.6512 94.7966C80.9815 94.8076 81.2843 94.8131 81.5595 94.8131C81.8458 94.8131 82.1265 94.8076 82.4017 94.7966C82.688 94.7855 82.9192 94.7745 83.0953 94.7635ZM89.7046 94.5323C90.4312 94.5323 91.0258 94.6424 91.4881 94.8626C91.9616 95.0718 92.3799 95.3195 92.7432 95.6058C92.9634 95.7709 93.1286 95.7929 93.2387 95.6718C93.3598 95.5397 93.4423 95.2369 93.4864 94.7635H93.8662C93.8442 95.1709 93.8277 95.6663 93.8166 96.2498C93.8056 96.8333 93.8001 97.604 93.8001 98.5618H93.4203C93.3432 98.0884 93.2717 97.7141 93.2056 97.4388C93.1396 97.1526 93.057 96.9104 92.9579 96.7122C92.8698 96.514 92.7487 96.3159 92.5946 96.1177C92.2533 95.6663 91.8239 95.3415 91.3065 95.1434C90.789 94.9342 90.2441 94.8296 89.6716 94.8296C89.1321 94.8296 88.6422 94.9672 88.2018 95.2424C87.7725 95.5067 87.3981 95.892 87.0789 96.3984C86.7706 96.9049 86.5284 97.5159 86.3522 98.2315C86.1871 98.9471 86.1045 99.7508 86.1045 100.643C86.1045 101.567 86.1981 102.388 86.3853 103.103C86.5724 103.808 86.8312 104.402 87.1614 104.887C87.5027 105.371 87.8991 105.74 88.3505 105.993C88.8129 106.235 89.3083 106.356 89.8367 106.356C90.3322 106.356 90.8496 106.257 91.3891 106.059C91.9285 105.861 92.3524 105.542 92.6607 105.101C92.9029 104.782 93.068 104.435 93.1561 104.061C93.2552 103.687 93.3432 103.164 93.4203 102.492H93.8001C93.8001 103.494 93.8056 104.303 93.8166 104.92C93.8277 105.525 93.8442 106.037 93.8662 106.456H93.4864C93.4423 105.982 93.3653 105.685 93.2552 105.564C93.1561 105.443 92.9854 105.459 92.7432 105.613C92.3359 105.9 91.901 106.153 91.4386 106.373C90.9872 106.582 90.4037 106.687 89.6881 106.687C88.6422 106.687 87.7229 106.45 86.9302 105.977C86.1486 105.503 85.5375 104.821 85.0972 103.929C84.6678 103.037 84.4531 101.964 84.4531 100.709C84.4531 99.4756 84.6788 98.3966 85.1302 97.4719C85.5816 96.5471 86.1981 95.8259 86.9798 95.3085C87.7725 94.7911 88.6807 94.5323 89.7046 94.5323ZM102.544 106.456V106.125C102.918 106.103 103.199 106.059 103.386 105.993C103.584 105.927 103.717 105.795 103.783 105.597C103.849 105.399 103.882 105.101 103.882 104.705V96.514C103.882 96.1067 103.849 95.8094 103.783 95.6223C103.717 95.4241 103.584 95.292 103.386 95.2259C103.199 95.1489 102.918 95.1048 102.544 95.0938V94.7635C102.797 94.7745 103.116 94.7855 103.502 94.7966C103.887 94.8076 104.267 94.8131 104.641 94.8131C105.071 94.8131 105.473 94.8076 105.847 94.7966C106.221 94.7855 106.524 94.7745 106.755 94.7635V95.0938C106.381 95.1048 106.095 95.1489 105.896 95.2259C105.709 95.292 105.583 95.4241 105.517 95.6223C105.45 95.8094 105.417 96.1067 105.417 96.514V104.705C105.417 105.101 105.45 105.399 105.517 105.597C105.583 105.795 105.709 105.927 105.896 105.993C106.095 106.059 106.381 106.103 106.755 106.125V106.456C106.524 106.434 106.221 106.423 105.847 106.423C105.473 106.412 105.071 106.406 104.641 106.406C104.267 106.406 103.887 106.412 103.502 106.423C103.116 106.423 102.797 106.434 102.544 106.456ZM95.6411 106.456V106.125C96.0154 106.103 96.2961 106.059 96.4833 105.993C96.6815 105.927 96.8136 105.795 96.8796 105.597C96.9457 105.399 96.9787 105.101 96.9787 104.705V96.514C96.9787 96.1067 96.9457 95.8094 96.8796 95.6223C96.8136 95.4241 96.6815 95.292 96.4833 95.2259C96.2961 95.1489 96.0154 95.1048 95.6411 95.0938V94.7635C95.8723 94.7745 96.175 94.7855 96.5494 94.7966C96.9237 94.8076 97.3255 94.8131 97.7549 94.8131C98.1402 94.8131 98.52 94.8076 98.8944 94.7966C99.2797 94.7855 99.599 94.7745 99.8522 94.7635V95.0938C99.4779 95.1048 99.1916 95.1489 98.9935 95.2259C98.8063 95.292 98.6797 95.4241 98.6136 95.6223C98.5476 95.8094 98.5145 96.1067 98.5145 96.514V104.705C98.5145 105.101 98.5476 105.399 98.6136 105.597C98.6797 105.795 98.8063 105.927 98.9935 105.993C99.1916 106.059 99.4779 106.103 99.8522 106.125V106.456C99.599 106.434 99.2797 106.423 98.8944 106.423C98.52 106.412 98.1402 106.406 97.7549 106.406C97.3255 106.406 96.9237 106.412 96.5494 106.423C96.175 106.423 95.8723 106.434 95.6411 106.456ZM97.9365 100.742V100.411H104.46V100.742H97.9365ZM125.249 94.7635V95.0938C124.874 95.1048 124.588 95.1489 124.39 95.2259C124.203 95.292 124.076 95.4241 124.01 95.6223C123.944 95.8094 123.911 96.1067 123.911 96.514V104.705C123.911 105.101 123.944 105.399 124.01 105.597C124.076 105.795 124.203 105.927 124.39 105.993C124.588 106.059 124.874 106.103 125.249 106.125V106.456C124.995 106.434 124.676 106.423 124.291 106.423C123.917 106.412 123.537 106.406 123.151 106.406C122.722 106.406 122.32 106.412 121.946 106.423C121.572 106.423 121.269 106.434 121.038 106.456V106.125C121.412 106.103 121.693 106.059 121.88 105.993C122.078 105.927 122.21 105.795 122.276 105.597C122.342 105.399 122.375 105.101 122.375 104.705V95.6223L122.441 95.6718L118.395 106.538H118.131L113.969 95.8204V104.54C113.969 104.936 114.003 105.25 114.069 105.481C114.146 105.701 114.289 105.861 114.498 105.96C114.718 106.048 115.043 106.103 115.472 106.125V106.456C115.274 106.434 115.015 106.423 114.696 106.423C114.377 106.412 114.074 106.406 113.788 106.406C113.513 106.406 113.232 106.412 112.946 106.423C112.67 106.423 112.439 106.434 112.252 106.456V106.125C112.626 106.103 112.907 106.048 113.094 105.96C113.292 105.861 113.425 105.701 113.491 105.481C113.557 105.25 113.59 104.936 113.59 104.54V96.514C113.59 96.1067 113.557 95.8094 113.491 95.6223C113.425 95.4241 113.292 95.292 113.094 95.2259C112.907 95.1489 112.626 95.1048 112.252 95.0938V94.7635C112.439 94.7745 112.67 94.7855 112.946 94.7966C113.232 94.8076 113.513 94.8131 113.788 94.8131C114.03 94.8131 114.278 94.8076 114.531 94.7966C114.795 94.7855 115.015 94.7745 115.192 94.7635L118.94 104.639L118.66 104.771L122.375 94.8131C122.507 94.8131 122.634 94.8131 122.755 94.8131C122.887 94.8131 123.019 94.8131 123.151 94.8131C123.537 94.8131 123.917 94.8076 124.291 94.7966C124.676 94.7855 124.995 94.7745 125.249 94.7635ZM131.278 94.681L135.307 105.068C135.472 105.487 135.66 105.767 135.869 105.911C136.078 106.043 136.271 106.114 136.447 106.125V106.456C136.227 106.434 135.957 106.423 135.638 106.423C135.318 106.412 134.999 106.406 134.68 106.406C134.25 106.406 133.849 106.412 133.474 106.423C133.1 106.423 132.797 106.434 132.566 106.456V106.125C133.127 106.103 133.485 106.01 133.639 105.845C133.794 105.668 133.761 105.3 133.54 104.738L130.469 96.5305L130.733 96.3159L127.859 103.78C127.683 104.221 127.579 104.595 127.546 104.903C127.513 105.2 127.54 105.437 127.628 105.613C127.727 105.789 127.887 105.916 128.107 105.993C128.338 106.07 128.625 106.114 128.966 106.125V106.456C128.658 106.434 128.333 106.423 127.992 106.423C127.661 106.412 127.353 106.406 127.067 106.406C126.792 106.406 126.555 106.412 126.357 106.423C126.17 106.423 125.993 106.434 125.828 106.456V106.125C126.048 106.07 126.274 105.944 126.505 105.745C126.736 105.536 126.946 105.184 127.133 104.689L131.014 94.681C131.058 94.681 131.102 94.681 131.146 94.681C131.19 94.681 131.234 94.681 131.278 94.681ZM133.293 101.699V102.03H128.371L128.537 101.699H133.293ZM142.394 94.5323C143.109 94.5323 143.687 94.6424 144.128 94.8626C144.568 95.0718 144.981 95.3195 145.366 95.6058C145.51 95.7158 145.62 95.7709 145.697 95.7709C145.906 95.7709 146.044 95.4351 146.11 94.7635H146.489C146.467 95.1709 146.451 95.6663 146.44 96.2498C146.429 96.8333 146.423 97.604 146.423 98.5618H146.044C145.966 98.0994 145.873 97.6535 145.763 97.2241C145.653 96.7948 145.471 96.426 145.218 96.1177C144.899 95.7103 144.48 95.3966 143.963 95.1764C143.445 94.9452 142.911 94.8296 142.361 94.8296C141.81 94.8296 141.309 94.9672 140.858 95.2424C140.418 95.5067 140.038 95.892 139.719 96.3984C139.399 96.9049 139.152 97.5159 138.975 98.2315C138.81 98.9361 138.728 99.7343 138.728 100.626C138.728 102.608 139.047 104.061 139.686 104.986C140.324 105.9 141.315 106.356 142.658 106.356C143.054 106.356 143.396 106.301 143.682 106.191C143.979 106.07 144.21 105.955 144.376 105.845C144.585 105.701 144.717 105.569 144.772 105.448C144.827 105.316 144.854 105.145 144.854 104.936V103.351C144.854 102.9 144.81 102.564 144.722 102.344C144.634 102.123 144.469 101.975 144.227 101.898C143.996 101.821 143.649 101.777 143.187 101.766V101.435C143.385 101.446 143.616 101.457 143.88 101.468C144.144 101.468 144.42 101.474 144.706 101.485C145.003 101.485 145.273 101.485 145.515 101.485C145.878 101.485 146.203 101.479 146.489 101.468C146.787 101.457 147.034 101.446 147.233 101.435V101.766C146.99 101.777 146.809 101.815 146.688 101.881C146.566 101.947 146.484 102.079 146.44 102.277C146.407 102.476 146.39 102.778 146.39 103.186V106.456H146.06C146.049 106.268 146.005 106.065 145.928 105.845C145.862 105.624 145.757 105.514 145.614 105.514C145.548 105.514 145.482 105.531 145.416 105.564C145.35 105.597 145.234 105.674 145.069 105.795C144.706 106.07 144.321 106.29 143.913 106.456C143.506 106.61 143.032 106.687 142.493 106.687C141.359 106.687 140.385 106.456 139.57 105.993C138.766 105.52 138.15 104.843 137.72 103.962C137.291 103.081 137.076 102.03 137.076 100.808C137.076 99.5196 137.308 98.4077 137.77 97.4719C138.232 96.5361 138.86 95.8149 139.653 95.3085C140.456 94.7911 141.37 94.5323 142.394 94.5323ZM153.13 94.681L157.16 105.068C157.325 105.487 157.512 105.767 157.721 105.911C157.93 106.043 158.123 106.114 158.299 106.125V106.456C158.079 106.434 157.809 106.423 157.49 106.423C157.171 106.412 156.851 106.406 156.532 106.406C156.103 106.406 155.701 106.412 155.327 106.423C154.952 106.423 154.649 106.434 154.418 106.456V106.125C154.98 106.103 155.338 106.01 155.492 105.845C155.646 105.668 155.613 105.3 155.393 104.738L152.321 96.5305L152.585 96.3159L149.712 103.78C149.536 104.221 149.431 104.595 149.398 104.903C149.365 105.2 149.392 105.437 149.481 105.613C149.58 105.789 149.739 105.916 149.959 105.993C150.191 106.07 150.477 106.114 150.818 106.125V106.456C150.51 106.434 150.185 106.423 149.844 106.423C149.514 106.412 149.205 106.406 148.919 106.406C148.644 106.406 148.407 106.412 148.209 106.423C148.022 106.423 147.846 106.434 147.68 106.456V106.125C147.901 106.07 148.126 105.944 148.358 105.745C148.589 105.536 148.798 105.184 148.985 104.689L152.866 94.681C152.91 94.681 152.954 94.681 152.998 94.681C153.042 94.681 153.086 94.681 153.13 94.681ZM155.145 101.699V102.03H150.224L150.389 101.699H155.145ZM167.281 94.7635V95.0938L160.692 106.076H163.928C164.446 106.076 164.864 106.021 165.184 105.911C165.514 105.801 165.773 105.63 165.96 105.399C166.158 105.156 166.307 104.837 166.406 104.441C166.505 104.044 166.582 103.56 166.637 102.988H167.017C166.984 103.329 166.967 103.78 166.967 104.342C166.967 104.551 166.973 104.854 166.984 105.25C167.006 105.635 167.039 106.037 167.083 106.456C166.675 106.434 166.229 106.423 165.745 106.423C165.261 106.412 164.776 106.406 164.292 106.406C163.818 106.406 163.378 106.406 162.971 106.406C162.321 106.406 161.633 106.412 160.906 106.423C160.191 106.423 159.519 106.434 158.892 106.456V106.125L165.53 95.1434H162.31C161.793 95.1434 161.369 95.1984 161.039 95.3085C160.719 95.4186 160.461 95.5947 160.262 95.837C160.075 96.0681 159.932 96.3819 159.833 96.7783C159.734 97.1746 159.657 97.659 159.602 98.2315H159.222C159.244 98.0554 159.255 97.8517 159.255 97.6205C159.266 97.3893 159.271 97.1416 159.271 96.8773C159.271 96.6682 159.26 96.3709 159.238 95.9856C159.227 95.5892 159.2 95.1819 159.156 94.7635C159.563 94.7745 160.009 94.7855 160.494 94.7966C160.978 94.8076 161.462 94.8131 161.947 94.8131C162.431 94.8131 162.872 94.8131 163.268 94.8131C163.895 94.8131 164.567 94.8131 165.283 94.8131C166.009 94.8021 166.675 94.7855 167.281 94.7635ZM172.908 94.7635V95.0938C172.534 95.1048 172.248 95.1489 172.049 95.2259C171.862 95.292 171.736 95.4241 171.67 95.6223C171.603 95.8094 171.57 96.1067 171.57 96.514V104.705C171.57 105.101 171.603 105.399 171.67 105.597C171.736 105.795 171.862 105.927 172.049 105.993C172.248 106.059 172.534 106.103 172.908 106.125V106.456C172.655 106.434 172.336 106.423 171.95 106.423C171.576 106.412 171.196 106.406 170.811 106.406C170.381 106.406 169.98 106.412 169.605 106.423C169.231 106.423 168.928 106.434 168.697 106.456V106.125C169.071 106.103 169.352 106.059 169.539 105.993C169.737 105.927 169.869 105.795 169.936 105.597C170.002 105.399 170.035 105.101 170.035 104.705V96.514C170.035 96.1067 170.002 95.8094 169.936 95.6223C169.869 95.4241 169.737 95.292 169.539 95.2259C169.352 95.1489 169.071 95.1048 168.697 95.0938V94.7635C168.928 94.7745 169.231 94.7855 169.605 94.7966C169.98 94.8076 170.381 94.8131 170.811 94.8131C171.196 94.8131 171.576 94.8076 171.95 94.7966C172.336 94.7855 172.655 94.7745 172.908 94.7635ZM184.664 94.7635V95.0938C184.29 95.1048 184.003 95.1599 183.805 95.259C183.618 95.358 183.491 95.5177 183.425 95.7379C183.359 95.9581 183.326 96.2718 183.326 96.6792V106.538C183.26 106.538 183.194 106.538 183.128 106.538C183.073 106.538 183.013 106.538 182.946 106.538L176.011 95.8204V104.54C176.011 104.936 176.044 105.25 176.11 105.481C176.187 105.701 176.33 105.861 176.539 105.96C176.759 106.048 177.084 106.103 177.513 106.125V106.456C177.315 106.434 177.056 106.423 176.737 106.423C176.418 106.412 176.115 106.406 175.829 106.406C175.554 106.406 175.273 106.412 174.987 106.423C174.711 106.423 174.48 106.434 174.293 106.456V106.125C174.667 106.103 174.948 106.048 175.135 105.96C175.333 105.861 175.466 105.701 175.532 105.481C175.598 105.25 175.631 104.936 175.631 104.54V96.514C175.631 96.1067 175.598 95.8094 175.532 95.6223C175.466 95.4241 175.333 95.292 175.135 95.2259C174.948 95.1489 174.667 95.1048 174.293 95.0938V94.7635C174.48 94.7745 174.711 94.7855 174.987 94.7966C175.273 94.8076 175.554 94.8131 175.829 94.8131C176.071 94.8131 176.302 94.8076 176.522 94.7966C176.743 94.7855 176.941 94.7745 177.117 94.7635L182.946 103.747V96.6792C182.946 96.2718 182.908 95.9581 182.831 95.7379C182.765 95.5177 182.622 95.358 182.402 95.259C182.192 95.1599 181.873 95.1048 181.444 95.0938V94.7635C181.642 94.7745 181.901 94.7855 182.22 94.7966C182.55 94.8076 182.853 94.8131 183.128 94.8131C183.414 94.8131 183.695 94.8076 183.97 94.7966C184.257 94.7855 184.488 94.7745 184.664 94.7635ZM194.194 94.7635C194.15 95.1489 194.116 95.5232 194.094 95.8865C194.083 96.2498 194.078 96.525 194.078 96.7122C194.078 96.9104 194.083 97.103 194.094 97.2902C194.105 97.4663 194.116 97.615 194.127 97.7361H193.748C193.682 97.0865 193.588 96.5746 193.467 96.2003C193.346 95.8149 193.137 95.5452 192.839 95.3911C192.553 95.2259 192.118 95.1434 191.535 95.1434H190.164C189.79 95.1434 189.504 95.1764 189.305 95.2424C189.118 95.2975 188.992 95.4241 188.926 95.6223C188.859 95.8094 188.826 96.1067 188.826 96.514V104.705C188.826 105.101 188.859 105.399 188.926 105.597C188.992 105.795 189.118 105.927 189.305 105.993C189.504 106.048 189.79 106.076 190.164 106.076H191.37C192.063 106.076 192.586 105.982 192.938 105.795C193.302 105.608 193.561 105.305 193.715 104.887C193.88 104.457 194.001 103.879 194.078 103.153H194.458C194.425 103.45 194.408 103.846 194.408 104.342C194.408 104.551 194.414 104.854 194.425 105.25C194.447 105.635 194.48 106.037 194.524 106.456C193.962 106.434 193.329 106.423 192.625 106.423C191.92 106.412 191.293 106.406 190.742 106.406C190.5 106.406 190.186 106.406 189.801 106.406C189.426 106.406 189.019 106.412 188.579 106.423C188.138 106.423 187.692 106.428 187.241 106.439C186.79 106.439 186.36 106.445 185.953 106.456V106.125C186.327 106.103 186.608 106.059 186.795 105.993C186.993 105.927 187.125 105.795 187.192 105.597C187.258 105.399 187.291 105.101 187.291 104.705V96.514C187.291 96.1067 187.258 95.8094 187.192 95.6223C187.125 95.4241 186.993 95.292 186.795 95.2259C186.608 95.1489 186.327 95.1048 185.953 95.0938V94.7635C186.36 94.7745 186.79 94.7855 187.241 94.7966C187.692 94.7966 188.138 94.8021 188.579 94.8131C189.019 94.8131 189.426 94.8131 189.801 94.8131C190.186 94.8131 190.5 94.8131 190.742 94.8131C191.249 94.8131 191.821 94.8131 192.46 94.8131C193.109 94.8021 193.687 94.7855 194.194 94.7635ZM191.353 100.411C191.353 100.411 191.353 100.466 191.353 100.577C191.353 100.687 191.353 100.742 191.353 100.742H188.331C188.331 100.742 188.331 100.687 188.331 100.577C188.331 100.466 188.331 100.411 188.331 100.411H191.353ZM191.832 98.2315C191.788 98.859 191.766 99.338 191.766 99.6682C191.777 99.9985 191.782 100.301 191.782 100.577C191.782 100.852 191.788 101.155 191.799 101.485C191.81 101.815 191.838 102.294 191.882 102.922H191.502C191.458 102.569 191.403 102.228 191.337 101.898C191.282 101.556 191.149 101.281 190.94 101.072C190.742 100.852 190.401 100.742 189.916 100.742V100.411C190.28 100.411 190.555 100.34 190.742 100.197C190.94 100.043 191.083 99.8499 191.171 99.6187C191.26 99.3875 191.32 99.1508 191.353 98.9086C191.386 98.6554 191.419 98.4297 191.452 98.2315H191.832Z" fill="#F0F9F1"/>
</svg>
