<svg width="64" height="64" viewBox="0 0 64 64" fill="none" xmlns="http://www.w3.org/2000/svg">
<path fill-rule="evenodd" clip-rule="evenodd" d="M64 32C64 49.6733 49.6738 64 32 64C14.3262 64 0 49.6733 0 32C0 14.3267 14.3262 0 32 0C49.6738 0 64 14.3267 64 32ZM31.0293 15.2886C32.248 15.2886 33.373 15.4653 34.4004 15.8184C35.4277 16.1392 36.3105 16.605 37.0488 17.2148C37.3809 17.4893 37.6777 17.7832 37.9395 18.0962C38.2578 18.4795 38.5234 18.8921 38.7344 19.334C38.9336 19.7192 39.0859 20.1162 39.1895 20.5239C39.3027 20.9648 39.3594 21.4189 39.3594 21.8862C39.3594 22.52 39.2129 23.105 38.9199 23.6411C38.7383 23.9741 38.5 24.2881 38.2051 24.5835C37.4648 25.3218 36.5664 25.6909 35.5078 25.6909C35.1836 25.6909 34.873 25.6538 34.5742 25.5801C34.375 25.5312 34.1816 25.4663 33.9941 25.3853C33.5703 25.2012 33.1758 24.9341 32.8105 24.5835C32.0723 23.8125 31.7031 22.9136 31.7031 21.8862C31.7031 20.8267 32.0879 19.9116 32.8594 19.1411C33.1152 18.8843 33.373 18.6113 33.6289 18.3228C33.918 18.0015 34.0137 17.6162 33.918 17.167C33.7891 16.6211 33.4844 16.2358 33.0039 16.0107C32.8184 15.9053 32.6387 15.8213 32.4648 15.7593C32.2168 15.6699 31.9785 15.6255 31.75 15.6255C30.9062 15.6255 30.2656 15.9248 29.8281 16.5239C29.6484 16.7686 29.502 17.063 29.3906 17.4077C29.2266 17.9419 29.1016 18.6265 29.0137 19.4619C28.9121 20.4351 28.8613 21.6123 28.8613 22.9941V30.2661V32H30.1133C30.752 32 31.332 31.8657 31.8535 31.5977C32.1992 31.4209 32.5176 31.1855 32.8105 30.8921C33.5488 30.1538 33.918 29.2549 33.918 28.1953H34.207V36.0933H33.918C33.918 35.0337 33.5488 34.1348 32.8105 33.3965C32.334 32.9199 31.791 32.5972 31.1816 32.4282C30.8457 32.335 30.4902 32.2886 30.1133 32.2886H28.8613V47.5068C28.8613 47.8604 28.9746 48.1494 29.1992 48.374C29.4238 48.5986 29.7129 48.7109 30.0645 48.7109V49H20.7715H20V48.7109C20.1875 48.7109 20.3555 48.6792 20.5059 48.6162C20.6406 48.5601 20.7617 48.4795 20.8672 48.374C21.0918 48.1494 21.2031 47.8604 21.2031 47.5068V46.1587V25.7393C21.2031 22.4321 22.0547 19.8638 23.7559 18.0337C25.4902 16.2036 27.9141 15.2886 31.0293 15.2886ZM46.6895 44.8442C46.6895 46.9673 44.9668 48.6885 42.8438 48.6885C40.7207 48.6885 39 46.9673 39 44.8442C39 42.7212 40.7207 41 42.8438 41C44.9668 41 46.6895 42.7212 46.6895 44.8442Z" fill="#00A86B"/>
</svg>
