<svg width="156" height="154" viewBox="0 0 156 154" fill="none" xmlns="http://www.w3.org/2000/svg">
<path d="M57.2296 4.10399C57.9471 3.89733 58.6173 3.85414 59.2403 3.97442C59.8662 4.10495 60.4067 4.38218 60.8618 4.80611C61.3097 5.24325 61.631 5.80006 61.8258 6.47656L63.0436 10.7047C63.2355 11.3709 63.2567 12.0031 63.107 12.6012C62.9471 13.2023 62.6354 13.7194 62.1719 14.1526C61.7113 14.5961 61.1223 14.9212 60.4048 15.1278C59.6873 15.3345 59.017 15.3777 58.3941 15.2574C57.7711 15.1371 57.2387 14.8687 56.7968 14.452C56.3446 14.0384 56.0241 13.5035 55.8351 12.8475C55.8204 12.7963 55.8239 12.7508 55.8458 12.7112C55.8677 12.6716 55.8992 12.6459 55.9402 12.6341L56.711 12.3621C56.8135 12.3326 56.878 12.364 56.9046 12.4562L56.9179 12.5024C57.1275 13.2301 57.5249 13.7428 58.1102 14.0404C58.6984 14.3483 59.3717 14.3931 60.1302 14.1746C60.8887 13.9561 61.4351 13.5601 61.7694 12.9865C62.1037 12.4129 62.1675 11.7673 61.9609 11.0498L60.7209 6.74485C60.5143 6.02735 60.1168 5.51466 59.5286 5.20676C58.9404 4.89886 58.2671 4.85415 57.5086 5.07261C56.7501 5.29108 56.2022 5.68199 55.865 6.24534C55.5307 6.81894 55.4683 7.46961 55.6779 8.19736L55.6868 8.22811C55.7134 8.32036 55.6754 8.38125 55.5729 8.41077L54.7755 8.59049C54.673 8.62002 54.6085 8.58865 54.5819 8.4964C54.39 7.83016 54.374 7.1965 54.5339 6.59543C54.6865 6.00757 54.9945 5.49703 55.4581 5.06381C55.9216 4.63059 56.5121 4.31065 57.2296 4.10399Z" fill="#00A86B"/>
<path d="M45.7311 8.52878C45.8252 8.4787 45.8974 8.50074 45.9474 8.59492L51.0561 18.201C51.1061 18.2952 51.0841 18.3673 50.9899 18.4174L50.2695 18.8005C50.1753 18.8506 50.1032 18.8286 50.0531 18.7344L45.3652 9.91941C45.3451 9.88174 45.3163 9.87292 45.2786 9.89295L40.2919 12.5449C40.1978 12.595 40.1256 12.573 40.0755 12.4788L39.76 11.8855C39.7099 11.7913 39.732 11.7192 39.8262 11.6691L45.7311 8.52878Z" fill="#00A86B"/>
<path d="M32.5784 16.6313C32.6625 16.5657 32.7373 16.5749 32.8029 16.6591L39.4941 25.2382C39.5597 25.3223 39.5505 25.3972 39.4664 25.4628L38.8229 25.9646C38.7388 26.0302 38.664 26.021 38.5984 25.9369L31.9072 17.3577C31.8416 17.2736 31.8508 17.1987 31.9349 17.1331L32.5784 16.6313Z" fill="#00A86B"/>
<path d="M22.3867 25.8049C22.8873 25.2509 23.4339 24.8607 24.0266 24.6343C24.6273 24.4151 25.2327 24.3656 25.843 24.4857C26.454 24.6209 27.0207 24.9245 27.543 25.3965L30.8077 28.3464C31.3221 28.8113 31.6735 29.3372 31.8618 29.9243C32.043 30.5193 32.0509 31.1231 31.8856 31.7356C31.7281 32.3553 31.3991 32.9422 30.8985 33.4962C30.398 34.0502 29.8513 34.4403 29.2586 34.6667C28.6659 34.8931 28.0719 34.9458 27.4768 34.8249C26.8744 34.7119 26.32 34.4266 25.8135 33.9689C25.7739 33.9332 25.753 33.8927 25.7507 33.8475C25.7484 33.8023 25.7615 33.7639 25.7902 33.7322L26.3016 33.0946C26.3731 33.0154 26.4445 33.0081 26.5157 33.0724L26.5513 33.1046C27.1133 33.6123 27.7213 33.8383 28.3755 33.7825C29.0377 33.7339 29.6333 33.4167 30.1625 32.8311C30.6917 32.2454 30.9471 31.6208 30.9286 30.9571C30.91 30.2935 30.6238 29.7113 30.0698 29.2107L26.7458 26.2072C26.1918 25.7066 25.5837 25.4806 24.9216 25.5293C24.2595 25.5779 23.6638 25.895 23.1346 26.4807C22.6054 27.0664 22.3461 27.6874 22.3567 28.3439C22.3752 29.0076 22.6654 29.5933 23.2273 30.101L23.2511 30.1225C23.3223 30.1869 23.3222 30.2586 23.2506 30.3378L22.668 30.911C22.5964 30.9902 22.5251 30.9975 22.4538 30.9332C21.9394 30.4684 21.5916 29.9384 21.4104 29.3434C21.23 28.7635 21.2225 28.1673 21.3878 27.5547C21.5531 26.9422 21.8861 26.3589 22.3867 25.8049Z" fill="#00A86B"/>
<path d="M14.9515 35.6288C15.0051 35.5366 15.078 35.5173 15.1702 35.5709L24.577 41.0378C24.6692 41.0914 24.6885 41.1643 24.6349 41.2565L24.2249 41.962C24.1713 42.0543 24.0984 42.0736 24.0062 42.02L19.3166 39.2946C19.2982 39.2838 19.279 39.285 19.2591 39.2981C19.2391 39.3112 19.2357 39.3277 19.2488 39.3476L21.4946 46.5007C21.5193 46.5644 21.5102 46.6331 21.4673 46.7069L21.001 47.5093C20.9689 47.5646 20.9317 47.5862 20.8894 47.5739C20.8418 47.5709 20.8103 47.5403 20.7948 47.482L18.9327 41.8658C18.9249 41.8366 18.8973 41.8205 18.8497 41.8175L11.2746 42.3377L11.1893 42.3251C11.1248 42.2876 11.1166 42.2274 11.1649 42.1444L11.6312 41.342C11.674 41.2682 11.7339 41.229 11.8106 41.2243L18.5301 40.7435C18.5539 40.745 18.5711 40.7365 18.5818 40.7181C18.5926 40.6997 18.596 40.6831 18.5921 40.6686L17.9587 38.5424C17.951 38.5132 17.9333 38.4906 17.9056 38.4745L14.5994 36.553C14.5072 36.4994 14.4879 36.4265 14.5415 36.3343L14.9515 35.6288Z" fill="#00A86B"/>
<path d="M14.2859 74.9736C14.2786 75.08 14.2218 75.1296 14.1154 75.1223L13.429 75.0755C13.3226 75.0683 13.273 75.0114 13.2802 74.905L13.4937 71.7763C13.4966 71.7337 13.4768 71.711 13.4342 71.7081L3.48931 71.0296C3.38289 71.0223 3.33331 70.9655 3.34057 70.8591L3.39611 70.045C3.40338 69.9385 3.46021 69.889 3.56663 69.8962L13.5115 70.5747C13.5541 70.5776 13.5768 70.5578 13.5797 70.5152L13.7845 67.5142C13.7917 67.4078 13.8486 67.3582 13.955 67.3654L14.6414 67.4123C14.7478 67.4195 14.7974 67.4764 14.7901 67.5828L14.2859 74.9736Z" fill="#00A86B"/>
<path d="M3.7606 86.4654C3.65475 85.7155 3.71473 85.0338 3.94053 84.4202C4.16632 83.8066 4.53147 83.3026 5.03597 82.9082C5.55253 82.5229 6.17519 82.2788 6.90397 82.176L10.8964 81.6125C11.6252 81.5096 12.2858 81.5726 12.8782 81.8014C13.4828 82.0392 13.9784 82.4217 14.3652 82.9488C14.752 83.4759 14.9983 84.1144 15.1042 84.8643C15.21 85.6142 15.15 86.296 14.9242 86.9095C14.6999 87.5337 14.3295 88.0384 13.8129 88.4237C13.3084 88.8181 12.6918 89.0667 11.963 89.1696L7.97061 89.7331C7.24183 89.8359 6.57519 89.7685 5.97068 89.5306C5.37822 89.3018 4.88785 88.9186 4.49956 88.3809C4.11276 87.8538 3.86644 87.2153 3.7606 86.4654ZM4.72702 86.329C4.84032 87.1317 5.17418 87.7417 5.72861 88.159C6.28303 88.5762 6.9616 88.7282 7.76431 88.6149L11.8201 88.0425C12.6228 87.9292 13.2328 87.5953 13.6501 87.0409C14.0779 86.485 14.2352 85.8057 14.1219 85.003C14.0101 84.2108 13.6717 83.6068 13.1067 83.1911C12.5523 82.7738 11.8737 82.6218 11.071 82.7351L7.0152 83.3075C6.21249 83.4208 5.6025 83.7547 5.18522 84.3091C4.76795 84.8636 4.61521 85.5368 4.72702 86.329Z" fill="#00A86B"/>
<path d="M15.7285 117.522C15.6744 117.443 15.6736 117.366 15.7261 117.291L22.7625 108.27L22.8063 108.221C22.868 108.179 22.9259 108.198 22.98 108.277L23.4668 108.991C23.5209 109.07 23.5217 109.147 23.4692 109.221L17.364 116.91C17.3524 116.931 17.3526 116.95 17.3647 116.968C17.3767 116.985 17.3945 116.993 17.4181 116.989L26.8049 114.112C26.8934 114.091 26.9647 114.119 27.0188 114.199L27.4966 114.899C27.5627 114.996 27.5383 115.065 27.4233 115.104L16.4383 118.336C16.3497 118.357 16.2784 118.328 16.2243 118.249L15.7285 117.522Z" fill="#00A86B"/>
<path d="M23.7631 127.565C23.6886 127.489 23.6896 127.414 23.7661 127.339L31.5605 119.748C31.6369 119.674 31.7123 119.675 31.7867 119.751L32.356 120.336C32.4304 120.412 32.4295 120.488 32.353 120.562L24.5586 128.153C24.4822 128.227 24.4068 128.226 24.3324 128.15L23.7631 127.565Z" fill="#00A86B"/>
<path d="M43.2612 130.412C43.1988 130.499 43.1243 130.511 43.0378 130.448L38.2629 127.003C38.2283 126.978 38.1985 126.983 38.1735 127.018L35.8612 130.223C35.8362 130.257 35.8411 130.287 35.8757 130.312L39.2233 132.727C39.3098 132.79 39.3218 132.864 39.2594 132.951L38.8662 133.496C38.8038 133.582 38.7294 133.594 38.6429 133.532L35.2952 131.116C35.2606 131.092 35.2308 131.096 35.2059 131.131L32.8561 134.388C32.8311 134.422 32.8359 134.452 32.8705 134.477L37.6455 137.922C37.732 137.985 37.744 138.059 37.6816 138.146L37.2884 138.691C37.226 138.777 37.1515 138.789 37.065 138.727L31.4467 134.673C31.3602 134.611 31.3482 134.536 31.4106 134.45L37.7765 125.626C37.839 125.54 37.9134 125.528 37.9999 125.59L43.6182 129.644C43.7047 129.706 43.7168 129.781 43.6544 129.867L43.2612 130.412Z" fill="#00A86B"/>
<path d="M46.4874 143.946C46.4083 143.914 46.3697 143.852 46.3718 143.761L47.5825 132.505L47.5855 132.455C47.6173 132.376 47.6827 132.356 47.7817 132.396L48.5686 132.712C48.6577 132.748 48.6962 132.809 48.6842 132.896L47.6729 141.939C47.6748 141.963 47.6807 141.976 47.6906 141.98C47.7104 141.988 47.7292 141.984 47.7471 141.969L53.1027 134.688C53.1582 134.607 53.2306 134.584 53.3197 134.62L54.1214 134.942C54.2105 134.978 54.247 135.044 54.231 135.141L53.1514 144.139C53.1534 144.163 53.1593 144.177 53.1692 144.181C53.189 144.189 53.2078 144.185 53.2256 144.169L58.7505 136.94C58.8021 136.868 58.8724 136.851 58.9615 136.886L59.7187 137.191C59.7682 137.21 59.7969 137.239 59.8048 137.277C59.8225 137.318 59.8165 137.362 59.7867 137.408L52.9194 146.391C52.8678 146.462 52.7974 146.48 52.7084 146.444L51.9215 146.128C51.8324 146.093 51.7958 146.026 51.8118 145.929L52.9838 136.744C52.9819 136.72 52.971 136.704 52.9512 136.696C52.9413 136.692 52.9274 136.698 52.9096 136.714L47.4468 144.176C47.4011 144.261 47.3288 144.284 47.2298 144.244L46.4874 143.946Z" fill="#00A86B"/>
<path d="M85.8936 150.442C84.6957 150.576 83.7167 150.411 82.9568 149.949C82.2074 149.485 81.7824 148.803 81.6819 147.901L81.6269 147.409C81.6151 147.303 81.6621 147.244 81.7682 147.232L82.5473 147.145C82.6533 147.133 82.7123 147.18 82.7241 147.286L82.772 147.715C82.8406 148.33 83.1506 148.8 83.702 149.125C84.2523 149.439 84.9779 149.546 85.879 149.446C86.6953 149.355 87.2965 149.116 87.6827 148.729C88.0677 148.332 88.2282 147.847 88.1644 147.275C88.123 146.904 87.9868 146.597 87.7558 146.354C87.5354 146.111 87.2055 145.895 86.766 145.708C86.3372 145.52 85.7346 145.313 84.9582 145.089C84.1277 144.86 83.4768 144.653 83.0055 144.47C82.5437 144.274 82.1542 144.006 81.8372 143.666C81.5296 143.314 81.3439 142.852 81.28 142.279C81.1806 141.389 81.4112 140.666 81.9716 140.109C82.5415 139.541 83.3671 139.197 84.4484 139.076C85.6251 138.945 86.5834 139.117 87.3234 139.593C88.0633 140.068 88.4842 140.762 88.5859 141.674L88.6249 142.023C88.6367 142.129 88.5896 142.188 88.4836 142.2L87.6886 142.289C87.5826 142.301 87.5236 142.254 87.5118 142.148L87.4799 141.861C87.4113 141.246 87.1113 140.77 86.5799 140.432C86.0591 140.093 85.3693 139.972 84.5107 140.067C83.758 140.151 83.1974 140.37 82.8289 140.722C82.4603 141.074 82.3086 141.542 82.3736 142.125C82.4162 142.507 82.5471 142.814 82.7663 143.047C82.9949 143.269 83.3001 143.455 83.6818 143.605C84.073 143.744 84.6667 143.919 85.4631 144.131C86.2725 144.363 86.9257 144.59 87.4229 144.814C87.9307 145.036 88.3502 145.333 88.6814 145.704C89.0219 146.063 89.2242 146.529 89.288 147.101C89.3874 147.992 89.138 148.739 88.5399 149.342C87.9418 149.945 87.0597 150.312 85.8936 150.442Z" fill="#00A86B"/>
<path d="M101.625 135.945C101.658 136.047 101.624 136.114 101.523 136.147L95.933 137.996C95.8925 138.01 95.879 138.037 95.8924 138.077L97.1335 141.829C97.1469 141.87 97.1738 141.883 97.2143 141.87L101.133 140.574C101.235 140.54 101.302 140.574 101.336 140.675L101.547 141.313C101.58 141.415 101.546 141.482 101.445 141.516L97.5259 142.812C97.4853 142.825 97.4718 142.852 97.4852 142.893L98.7464 146.706C98.7598 146.746 98.7867 146.76 98.8272 146.746L104.417 144.897C104.519 144.864 104.586 144.898 104.62 144.999L104.831 145.637C104.864 145.738 104.83 145.805 104.729 145.839L98.1514 148.015C98.0501 148.048 97.9827 148.014 97.9492 147.913L94.5324 137.583C94.4989 137.482 94.5328 137.415 94.6341 137.381L101.212 135.206C101.313 135.172 101.38 135.206 101.414 135.307L101.625 135.945Z" fill="#00A86B"/>
<path d="M112.597 142.262C112.505 142.315 112.432 142.296 112.378 142.204L106.899 132.804C106.845 132.712 106.864 132.639 106.957 132.586L107.661 132.175C107.754 132.121 107.827 132.14 107.88 132.232L112.908 140.858C112.93 140.895 112.959 140.902 112.996 140.881L117.875 138.036C117.968 137.983 118.041 138.002 118.094 138.094L118.433 138.675C118.486 138.767 118.467 138.84 118.375 138.893L112.597 142.262Z" fill="#00A86B"/>
<path d="M123.834 121.202C123.905 121.281 123.902 121.357 123.823 121.428L119.459 125.382C119.428 125.41 119.426 125.44 119.455 125.472L122.108 128.401C122.137 128.432 122.167 128.434 122.199 128.405L125.258 125.634C125.337 125.562 125.412 125.566 125.484 125.645L125.935 126.143C126.007 126.222 126.003 126.297 125.924 126.369L122.865 129.14C122.833 129.169 122.831 129.199 122.86 129.231L125.557 132.207C125.585 132.239 125.615 132.24 125.647 132.211L130.01 128.258C130.089 128.186 130.165 128.19 130.236 128.269L130.688 128.767C130.759 128.846 130.756 128.922 130.676 128.993L125.542 133.645C125.463 133.716 125.388 133.713 125.316 133.634L118.011 125.571C117.94 125.492 117.943 125.416 118.022 125.345L123.157 120.693C123.236 120.621 123.311 120.625 123.383 120.704L123.834 121.202Z" fill="#00A86B"/>
<path d="M138.443 119.99C138.006 120.595 137.504 121.042 136.94 121.331C136.366 121.614 135.77 121.729 135.15 121.676C134.528 121.607 133.932 121.367 133.361 120.954L129.797 118.375C129.235 117.969 128.829 117.484 128.578 116.921C128.333 116.349 128.26 115.749 128.358 115.122C128.448 114.489 128.711 113.87 129.149 113.265C129.587 112.66 130.088 112.213 130.652 111.924C131.217 111.635 131.802 111.518 132.407 111.574C133.018 111.621 133.6 111.845 134.153 112.245C134.196 112.276 134.221 112.314 134.228 112.359C134.236 112.404 134.227 112.443 134.202 112.478L133.762 113.167C133.7 113.253 133.63 113.268 133.552 113.212L133.513 113.184C132.899 112.74 132.27 112.581 131.626 112.708C130.973 112.828 130.415 113.207 129.953 113.847C129.49 114.486 129.304 115.135 129.394 115.793C129.484 116.45 129.832 116.998 130.437 117.436L134.066 120.062C134.671 120.5 135.3 120.658 135.953 120.538C136.606 120.418 137.164 120.039 137.627 119.399C138.089 118.76 138.28 118.114 138.198 117.463C138.108 116.805 137.756 116.254 137.143 115.81L137.117 115.791C137.039 115.735 137.031 115.664 137.094 115.577L137.611 114.944C137.673 114.858 137.744 114.843 137.821 114.899C138.383 115.306 138.786 115.795 139.031 116.367C139.273 116.924 139.345 117.516 139.247 118.142C139.149 118.769 138.881 119.385 138.443 119.99Z" fill="#00A86B"/>
<path d="M137.213 98.8479C137.256 98.7504 137.326 98.7233 137.424 98.7666L138.053 99.0459C138.15 99.0892 138.177 99.1596 138.134 99.2571L136.861 102.123C136.844 102.162 136.854 102.19 136.893 102.208L146.003 106.254C146.101 106.297 146.128 106.368 146.085 106.465L145.753 107.211C145.71 107.308 145.64 107.335 145.542 107.292L136.432 103.246C136.393 103.228 136.365 103.239 136.348 103.278L135.127 106.027C135.083 106.125 135.013 106.152 134.916 106.109L134.287 105.829C134.189 105.786 134.162 105.716 134.206 105.618L137.213 98.8479Z" fill="#00A86B"/>
<path d="M141.563 85.7666C141.667 85.7888 141.708 85.8521 141.686 85.9564L140.46 91.7155C140.451 91.7572 140.468 91.7825 140.51 91.7914L144.375 92.6139C144.417 92.6228 144.442 92.6064 144.451 92.5647L145.31 88.5271C145.332 88.4227 145.396 88.3817 145.5 88.4039L146.157 88.5437C146.262 88.5659 146.303 88.6292 146.28 88.7335L145.421 92.7711C145.412 92.8129 145.429 92.8382 145.471 92.847L149.399 93.6829C149.44 93.6918 149.466 93.6754 149.475 93.6336L150.7 87.8746C150.722 87.7702 150.785 87.7292 150.89 87.7514L151.547 87.8912C151.651 87.9134 151.692 87.9767 151.67 88.081L150.228 94.8573C150.206 94.9616 150.143 95.0027 150.039 94.9805L139.397 92.716C139.292 92.6938 139.251 92.6306 139.274 92.5263L140.716 85.75C140.738 85.6456 140.801 85.6046 140.905 85.6268L141.563 85.7666Z" fill="#00A86B"/>
<path d="M152.553 79.4825C152.553 79.5891 152.499 79.6424 152.393 79.6423L141.513 79.6278C141.406 79.6277 141.353 79.5743 141.353 79.4676L141.358 75.6916C141.359 74.6356 141.638 73.7987 142.193 73.1807C142.749 72.5521 143.501 72.2385 144.451 72.2397L149.475 72.2464C150.424 72.2476 151.175 72.5633 151.729 73.1934C152.283 73.8128 152.559 74.6505 152.558 75.7065L152.553 79.4825ZM151.498 78.5051C151.541 78.5051 151.562 78.4838 151.562 78.4412L151.566 75.6572C151.567 74.9638 151.365 74.4142 150.96 74.0084C150.555 73.5918 150.012 73.3831 149.329 73.3822L144.609 73.3759C143.916 73.375 143.366 73.5769 142.96 73.9817C142.554 74.3865 142.351 74.9409 142.35 75.6449L142.346 78.4289C142.346 78.4716 142.368 78.493 142.41 78.493L151.498 78.5051Z" fill="#00A86B"/>
<path d="M145.504 44.131C145.544 44.2062 145.534 44.2781 145.474 44.3466L137.319 52.1992L137.285 52.236C137.209 52.2763 137.147 52.2494 137.096 52.1554L136.696 51.4079C136.651 51.3232 136.66 51.2514 136.726 51.1923L143.306 44.9086C143.32 44.8891 143.325 44.8746 143.32 44.8652C143.309 44.8464 143.293 44.8374 143.269 44.838L134.488 46.9817C134.394 47.0082 134.324 46.9791 134.278 46.8945L133.87 46.1329C133.825 46.0483 133.84 45.9739 133.914 45.9097L140.519 39.7041C140.533 39.6846 140.537 39.6702 140.532 39.6608C140.522 39.642 140.505 39.6329 140.481 39.6336L131.604 41.6296C131.518 41.6511 131.453 41.6195 131.408 41.5349L131.022 40.8156C130.997 40.7686 130.994 40.7281 131.012 40.6942C131.025 40.6509 131.058 40.6213 131.11 40.6056L142.142 38.1266C142.228 38.1051 142.293 38.1367 142.338 38.2213L142.739 38.9689C142.784 39.0535 142.769 39.1279 142.695 39.192L135.899 45.4817C135.886 45.5012 135.884 45.5204 135.894 45.5392C135.899 45.5486 135.913 45.5529 135.937 45.5523L144.916 43.3386C145.006 43.3027 145.076 43.3318 145.126 43.4258L145.504 44.131Z" fill="#00A86B"/>
<path d="M133.405 25.9104C133.913 26.4723 134.245 27.0706 134.401 27.7054C134.558 28.3401 134.538 28.9622 134.341 29.5715C134.129 30.18 133.75 30.731 133.204 31.2244L130.212 33.9276C129.666 34.4211 129.083 34.739 128.464 34.8813C127.83 35.0229 127.206 34.9837 126.59 34.7637C125.974 34.5438 125.413 34.1528 124.905 33.5909C124.397 33.029 124.065 32.4306 123.908 31.7959C123.744 31.1532 123.769 30.5276 123.981 29.9191C124.178 29.3098 124.549 28.7584 125.095 28.2649L128.087 25.5617C128.633 25.0683 129.223 24.7508 129.857 24.6092C130.476 24.4668 131.097 24.5096 131.72 24.7375C132.335 24.9575 132.897 25.3485 133.405 25.9104ZM132.681 26.5647C132.137 25.9632 131.519 25.6449 130.826 25.6098C130.133 25.5747 129.486 25.8289 128.884 26.3724L125.845 29.1185C125.243 29.662 124.925 30.2803 124.89 30.9733C124.847 31.6735 125.097 32.3243 125.641 32.9258C126.177 33.5194 126.796 33.8301 127.497 33.8581C128.19 33.8932 128.837 33.639 129.438 33.0955L132.478 30.3494C133.079 29.8059 133.397 29.1876 133.432 28.4946C133.468 27.8016 133.217 27.1583 132.681 26.5647Z" fill="#00A86B"/>
<path d="M119.272 13.8054C119.35 13.8618 119.379 13.9296 119.362 14.0088L118.352 19.4047C118.342 19.4368 118.35 19.4623 118.376 19.4811L120.578 21.0784C120.612 21.1035 120.642 21.0987 120.667 21.0642L123.542 17.1014C123.605 17.015 123.679 17.0032 123.766 17.0658L124.426 17.545C124.513 17.6077 124.524 17.6822 124.462 17.7685L118.072 26.5748C118.01 26.6611 117.935 26.673 117.849 26.6103L114.495 24.1767C113.752 23.638 113.321 22.9696 113.202 22.1714C113.076 21.3818 113.283 20.6158 113.822 19.8733C114.26 19.2689 114.797 18.8742 115.432 18.6892C116.067 18.5042 116.709 18.5548 117.358 18.8411C117.405 18.8489 117.429 18.8336 117.431 18.7952L118.382 13.397C118.386 13.3735 118.397 13.3488 118.416 13.3229C118.46 13.2624 118.516 13.2573 118.586 13.3074L119.272 13.8054ZM117.59 25.1967C117.624 25.2217 117.654 25.217 117.679 25.1824L120.056 21.906C120.081 21.8715 120.077 21.8417 120.042 21.8166L117.633 20.0689C117.133 19.7056 116.614 19.5666 116.078 19.6519C115.541 19.7372 115.092 20.0302 114.728 20.531C114.365 21.0317 114.226 21.5503 114.311 22.0866C114.39 22.6315 114.68 23.0857 115.181 23.449L117.59 25.1967Z" fill="#00A86B"/>
<path d="M111.319 9.17842C111.416 9.22185 111.443 9.29228 111.4 9.3897L106.97 19.3271C106.927 19.4245 106.856 19.4515 106.759 19.4081L106.013 19.0759C105.916 19.0324 105.889 18.962 105.932 18.8646L108.141 13.9105C108.149 13.891 108.146 13.8721 108.131 13.8536C108.116 13.8352 108.099 13.8336 108.081 13.8487L101.209 16.8466C101.148 16.8779 101.079 16.8762 101.001 16.8414L100.153 16.4636C100.095 16.4376 100.069 16.4029 100.077 16.3596C100.075 16.3119 100.102 16.2773 100.158 16.2557L105.543 13.8037C105.571 13.7929 105.584 13.7636 105.582 13.716L104.255 6.23994L104.258 6.15384C104.289 6.08564 104.348 6.07109 104.436 6.11017L105.283 6.488C105.361 6.52275 105.407 6.57803 105.419 6.65386L106.616 13.2834C106.617 13.3072 106.627 13.3234 106.647 13.3321C106.666 13.3408 106.683 13.3425 106.697 13.3371L108.743 12.4799C108.772 12.4691 108.792 12.4491 108.805 12.4199L110.362 8.92719C110.406 8.82976 110.476 8.80276 110.573 8.84619L111.319 9.17842Z" fill="#00A86B"/>
<path d="M96.305 3.69425C96.5637 3.75911 96.755 3.89507 96.879 4.10213C96.9927 4.30659 97.0184 4.53297 96.9561 4.78129C96.8913 5.03994 96.7618 5.22741 96.5677 5.34368C96.3606 5.46771 96.1278 5.49729 95.8691 5.43242C95.6208 5.37015 95.4346 5.23549 95.3106 5.02843C95.184 4.83173 95.1531 4.60404 95.218 4.34539C95.2802 4.09707 95.4149 3.91091 95.6219 3.78688C95.829 3.66285 96.0567 3.63198 96.305 3.69425Z" fill="#00A86B"/>
</svg>
