<svg width="64" height="64" viewBox="0 0 64 64" fill="none" xmlns="http://www.w3.org/2000/svg">
<path fill-rule="evenodd" clip-rule="evenodd" d="M32 64C49.6731 64 64 49.6731 64 32C64 14.3269 49.6731 0 32 0C14.3269 0 0 14.3269 0 32C0 49.6731 14.3269 64 32 64ZM30.5156 16.0938C30.6458 15.9896 30.7109 15.8659 30.7109 15.7227C30.7109 15.4753 30.5742 15.2539 30.3008 15.0586C30.0404 14.8633 29.7279 14.7005 29.3633 14.5703C28.9987 14.4271 28.6341 14.3229 28.2695 14.2578C27.918 14.1927 27.6445 14.1602 27.4492 14.1602C26.4857 14.1602 25.6979 14.362 25.0859 14.7656C24.474 15.1693 23.9922 15.7031 23.6406 16.3672C23.2891 17.0182 23.0417 17.7734 22.8984 18.6328C22.7682 19.4792 22.6966 20.3581 22.6836 21.2695C22.6706 22.168 22.6901 23.0534 22.7422 23.9258C22.7943 24.7982 22.8398 25.5924 22.8789 26.3086C22.5794 26.3867 22.3516 26.5495 22.1953 26.7969C22.0521 27.0443 21.9805 27.3177 21.9805 27.6172C21.9805 27.8776 22.0456 28.0599 22.1758 28.1641C22.319 28.2552 22.4948 28.3008 22.7031 28.3008C22.7682 28.3008 22.8268 28.3073 22.8789 28.3203C22.931 28.3203 22.9831 28.3138 23.0352 28.3008C23.1133 29.3555 23.2109 30.4622 23.3281 31.6211C23.4583 32.7799 23.5755 33.8737 23.6797 34.9023C23.7839 35.7747 23.9076 36.6146 24.0508 37.4219C24.194 38.2292 24.3177 39.0755 24.4219 39.9609C24.487 40.1302 24.5977 40.2734 24.7539 40.3906C24.9102 40.5078 25.0859 40.599 25.2812 40.6641C25.4766 40.7292 25.6719 40.7747 25.8672 40.8008C26.0755 40.8398 26.2708 40.8594 26.4531 40.8594C26.6875 40.8594 26.8893 40.8008 27.0586 40.6836C27.2279 40.5794 27.3125 40.3906 27.3125 40.1172C27.3125 40.0781 27.306 40.0651 27.293 40.0781C27.293 40.0911 27.2799 40.0521 27.2539 39.9609C27.2279 39.8568 27.1823 39.668 27.1172 39.3945C27.0651 39.1081 26.987 38.6458 26.8828 38.0078C26.7917 37.3568 26.668 36.4909 26.5117 35.4102C26.3685 34.3294 26.1927 32.9427 25.9844 31.25C25.9323 30.7161 25.8802 30.1758 25.8281 29.6289C25.7891 29.069 25.737 28.5156 25.6719 27.9688L29.7539 27.3438C29.9753 27.2005 30.112 27.0182 30.1641 26.7969C30.2161 26.5755 30.2422 26.3346 30.2422 26.0742C30.2422 25.8138 30.1836 25.599 30.0664 25.4297C29.9492 25.2604 29.7344 25.1758 29.4219 25.1758C29.0312 25.1758 28.4779 25.2409 27.7617 25.3711C27.0586 25.4883 26.2969 25.6315 25.4766 25.8008C25.2812 24.1602 25.1966 22.7604 25.2227 21.6016C25.2487 20.4427 25.3594 19.4792 25.5547 18.7109C25.75 17.9427 26.0169 17.3568 26.3555 16.9531C26.694 16.5495 27.0781 16.2891 27.5078 16.1719C27.8073 16.1849 28.0872 16.2435 28.3477 16.3477C28.6081 16.4388 28.888 16.4844 29.1875 16.4844C29.2786 16.4844 29.4089 16.4714 29.5781 16.4453C29.7474 16.4193 29.9167 16.3802 30.0859 16.3281C30.2552 16.263 30.3984 16.1849 30.5156 16.0938ZM33.1133 21.9531C33.1263 21.7969 33.1328 21.6406 33.1328 21.4844C33.1328 21.276 33.0677 21.1068 32.9375 20.9766C32.8073 20.8333 32.6445 20.7227 32.4492 20.6445C32.2669 20.5534 32.0716 20.4948 31.8633 20.4688C31.6549 20.4297 31.4727 20.4102 31.3164 20.4102C31.1732 20.4102 31.069 20.4232 31.0039 20.4492C30.9388 20.4753 30.8737 20.5599 30.8086 20.7031V20.6836C30.7826 20.7096 30.737 20.8594 30.6719 21.1328C30.6068 21.3932 30.5352 21.6862 30.457 22.0117C30.3789 22.3242 30.3073 22.6172 30.2422 22.8906C30.1901 23.1641 30.1641 23.3268 30.1641 23.3789C30.1641 23.5221 30.2617 23.6523 30.457 23.7695C30.6523 23.8737 30.8737 23.9648 31.1211 24.043C31.3815 24.1211 31.6289 24.1797 31.8633 24.2188C32.1107 24.2578 32.2865 24.2773 32.3906 24.2773C32.6901 24.2773 32.8789 24.1797 32.957 23.9844C33.0352 23.7891 33.0742 23.5742 33.0742 23.3398V22.8711C33.0742 22.7148 33.0807 22.5586 33.0938 22.4023C33.1068 22.2461 33.1133 22.0964 33.1133 21.9531ZM36.4141 34.5117C36.5443 34.2253 36.6094 34.043 36.6094 33.9648C36.6094 33.8216 36.5443 33.6654 36.4141 33.4961C36.2969 33.3268 36.1471 33.1706 35.9648 33.0273C35.7956 32.8841 35.6068 32.7669 35.3984 32.6758C35.2031 32.5846 35.0339 32.5391 34.8906 32.5391C34.6042 32.5391 34.3763 32.6432 34.207 32.8516C34.0508 33.0469 33.9141 33.2617 33.7969 33.4961C33.6927 32.5846 33.6081 31.7383 33.543 30.957C33.4909 30.1628 33.4453 29.3099 33.4062 28.3984V28.0859C33.4062 27.8776 33.3932 27.6758 33.3672 27.4805C33.3542 27.2852 33.3151 27.1029 33.25 26.9336C33.1849 26.7643 33.0872 26.6081 32.957 26.4648C32.8268 26.3086 32.638 26.1719 32.3906 26.0547V26.0742C32.2474 26.0091 32.1107 25.9635 31.9805 25.9375C31.8503 25.9115 31.7135 25.8984 31.5703 25.8984C31.2708 25.8984 31.0755 25.9961 30.9844 26.1914C30.9062 26.3737 30.8672 26.5951 30.8672 26.8555C30.8672 27.3503 30.8802 27.8385 30.9062 28.3203C30.9453 28.8021 30.9779 29.2839 31.0039 29.7656L31.0625 30.7031C31.1406 31.9271 31.2383 33.1185 31.3555 34.2773C31.4727 35.4232 31.6289 36.582 31.8242 37.7539C31.4076 38.6784 30.9909 39.6159 30.5742 40.5664C30.1706 41.5169 29.806 42.487 29.4805 43.4766C29.1549 44.4661 28.8945 45.4688 28.6992 46.4844C28.4909 47.5 28.3867 48.5221 28.3867 49.5508C28.3867 50.1367 28.4453 50.7227 28.5625 51.3086C28.6667 51.9076 28.8555 52.4479 29.1289 52.9297C29.4023 53.4115 29.7669 53.8021 30.2227 54.1016C30.6914 54.4141 31.2839 54.5703 32 54.5703C32.3776 54.5703 32.7422 54.4987 33.0938 54.3555C33.4453 54.2253 33.7708 54.043 34.0703 53.8086C34.4609 53.4961 34.7604 53.125 34.9688 52.6953C35.1901 52.2786 35.3464 51.8359 35.4375 51.3672C35.5417 50.8984 35.6003 50.4167 35.6133 49.9219C35.6393 49.4401 35.6523 48.9714 35.6523 48.5156C35.6523 46.9792 35.5482 45.4557 35.3398 43.9453C35.1315 42.4349 34.9102 40.931 34.6758 39.4336L34.5 38.3789C34.5391 38.3138 34.5846 38.2227 34.6367 38.1055C34.6888 37.9753 34.7539 37.832 34.832 37.6758C34.9883 37.3633 35.1706 37.0117 35.3789 36.6211C35.5872 36.2174 35.7826 35.8333 35.9648 35.4688C36.1471 35.1042 36.2969 34.7852 36.4141 34.5117ZM32.8984 45.4102C32.9896 46.3086 33.0352 47.1875 33.0352 48.0469C33.0352 48.1771 33.0286 48.3724 33.0156 48.6328C33.0156 48.9062 33.0026 49.1992 32.9766 49.5117C32.9505 49.8372 32.9115 50.1693 32.8594 50.5078C32.8203 50.8464 32.7617 51.1523 32.6836 51.4258C32.6055 51.6992 32.5078 51.9206 32.3906 52.0898C32.2734 52.2721 32.1302 52.3633 31.9609 52.3633C31.8958 52.3633 31.8568 52.3568 31.8438 52.3438C31.6875 52.1875 31.5638 51.9857 31.4727 51.7383C31.3815 51.4909 31.3099 51.2305 31.2578 50.957C31.2057 50.6836 31.1732 50.4102 31.1602 50.1367C31.1471 49.8763 31.1406 49.6354 31.1406 49.4141C31.1406 48.3203 31.2839 47.194 31.5703 46.0352C31.8568 44.8893 32.1953 43.7956 32.5859 42.7539C32.7161 43.6263 32.8203 44.5117 32.8984 45.4102Z" fill="#00A86B"/>
</svg>
