<svg width="100" height="100" viewBox="0 0 100 100" fill="none" xmlns="http://www.w3.org/2000/svg">
<circle cx="50" cy="50" r="50" fill="white"/>
<path d="M46.9375 22.1562C46.9375 22.3854 46.8333 22.5833 46.625 22.75C46.4375 22.8958 46.2083 23.0208 45.9375 23.125C45.6667 23.2083 45.3958 23.2708 45.125 23.3125C44.8542 23.3542 44.6458 23.375 44.5 23.375C44.0208 23.375 43.5729 23.3021 43.1562 23.1562C42.7396 22.9896 42.2917 22.8958 41.8125 22.875C41.125 23.0625 40.5104 23.4792 39.9688 24.125C39.4271 24.7708 39 25.7083 38.6875 26.9375C38.375 28.1667 38.1979 29.7083 38.1562 31.5625C38.1146 33.4167 38.25 35.6562 38.5625 38.2812C39.875 38.0104 41.0938 37.7812 42.2188 37.5938C43.3646 37.3854 44.25 37.2812 44.875 37.2812C45.375 37.2812 45.7188 37.4167 45.9062 37.6875C46.0938 37.9583 46.1875 38.3021 46.1875 38.7188C46.1875 39.1354 46.1458 39.5208 46.0625 39.875C45.9792 40.2292 45.7604 40.5208 45.4062 40.75L38.875 41.75C38.9792 42.625 39.0625 43.5104 39.125 44.4062C39.2083 45.2812 39.2917 46.1458 39.375 47C39.7083 49.7083 39.9896 51.9271 40.2188 53.6562C40.4688 55.3854 40.6667 56.7708 40.8125 57.8125C40.9792 58.8333 41.1042 59.5729 41.1875 60.0312C41.2917 60.4688 41.3646 60.7708 41.4062 60.9375C41.4479 61.0833 41.4688 61.1458 41.4688 61.125C41.4896 61.1042 41.5 61.125 41.5 61.1875C41.5 61.625 41.3646 61.9271 41.0938 62.0938C40.8229 62.2812 40.5 62.375 40.125 62.375C39.8333 62.375 39.5208 62.3438 39.1875 62.2812C38.875 62.2396 38.5625 62.1667 38.25 62.0625C37.9375 61.9583 37.6562 61.8125 37.4062 61.625C37.1562 61.4375 36.9792 61.2083 36.875 60.9375C36.7083 59.5208 36.5104 58.1667 36.2812 56.875C36.0521 55.5833 35.8542 54.2396 35.6875 52.8438C35.5208 51.1979 35.3333 49.4479 35.125 47.5938C34.9375 45.7396 34.7812 43.9688 34.6562 42.2812C34.5729 42.3021 34.4896 42.3125 34.4062 42.3125C34.3229 42.2917 34.2292 42.2812 34.125 42.2812C33.7917 42.2812 33.5104 42.2083 33.2812 42.0625C33.0729 41.8958 32.9688 41.6042 32.9688 41.1875C32.9688 40.7083 33.0833 40.2708 33.3125 39.875C33.5625 39.4792 33.9271 39.2188 34.4062 39.0938C34.3438 37.9479 34.2708 36.6771 34.1875 35.2812C34.1042 33.8854 34.0729 32.4688 34.0938 31.0312C34.1146 29.5729 34.2292 28.1667 34.4375 26.8125C34.6667 25.4375 35.0625 24.2292 35.625 23.1875C36.1875 22.125 36.9583 21.2708 37.9375 20.625C38.9167 19.9792 40.1771 19.6562 41.7188 19.6562C42.0312 19.6562 42.4688 19.7083 43.0312 19.8125C43.6146 19.9167 44.1979 20.0833 44.7812 20.3125C45.3646 20.5208 45.8646 20.7812 46.2812 21.0938C46.7188 21.4062 46.9375 21.7604 46.9375 22.1562ZM57.2125 31.375C57.2125 31.625 57.2021 31.875 57.1812 32.125C57.1812 32.3542 57.1708 32.5938 57.15 32.8438C57.1292 33.0938 57.1187 33.3438 57.1187 33.5938C57.1187 33.8438 57.1187 34.0938 57.1187 34.3438C57.1187 34.7188 57.0562 35.0625 56.9312 35.375C56.8062 35.6875 56.5042 35.8438 56.025 35.8438C55.8583 35.8438 55.5771 35.8125 55.1812 35.75C54.8062 35.6875 54.4104 35.5938 53.9937 35.4688C53.5979 35.3438 53.2437 35.1979 52.9312 35.0312C52.6187 34.8438 52.4625 34.6354 52.4625 34.4062C52.4625 34.3229 52.5042 34.0625 52.5875 33.625C52.6917 33.1875 52.8062 32.7188 52.9312 32.2188C53.0562 31.6979 53.1708 31.2292 53.275 30.8125C53.3792 30.375 53.4521 30.1354 53.4937 30.0938V30.125C53.5979 29.8958 53.7021 29.7604 53.8062 29.7188C53.9104 29.6771 54.0771 29.6562 54.3062 29.6562C54.5562 29.6562 54.8479 29.6875 55.1812 29.75C55.5146 29.7917 55.8271 29.8854 56.1187 30.0312C56.4312 30.1562 56.6917 30.3333 56.9 30.5625C57.1083 30.7708 57.2125 31.0417 57.2125 31.375ZM62.775 51.3438C62.775 51.4688 62.6708 51.7604 62.4625 52.2188C62.275 52.6562 62.0354 53.1667 61.7437 53.75C61.4521 54.3333 61.1396 54.9479 60.8062 55.5938C60.4729 56.2188 60.1812 56.7812 59.9312 57.2812C59.8062 57.5312 59.7021 57.7604 59.6187 57.9688C59.5354 58.1562 59.4625 58.3021 59.4 58.4062L59.6812 60.0938C60.0562 62.4896 60.4104 64.8958 60.7437 67.3125C61.0771 69.7292 61.2437 72.1667 61.2437 74.625C61.2437 75.3542 61.2229 76.1042 61.1812 76.875C61.1604 77.6667 61.0667 78.4375 60.9 79.1875C60.7542 79.9375 60.5042 80.6458 60.15 81.3125C59.8167 82 59.3375 82.5938 58.7125 83.0938C58.2333 83.4688 57.7125 83.7604 57.15 83.9688C56.5875 84.1979 56.0042 84.3125 55.4 84.3125C54.2542 84.3125 53.3062 84.0625 52.5562 83.5625C51.8271 83.0833 51.2437 82.4583 50.8062 81.6875C50.3687 80.9167 50.0667 80.0521 49.9 79.0938C49.7125 78.1562 49.6187 77.2188 49.6187 76.2812C49.6187 74.6354 49.7854 73 50.1187 71.375C50.4312 69.75 50.8479 68.1458 51.3687 66.5625C51.8896 64.9792 52.4729 63.4271 53.1187 61.9062C53.7854 60.3854 54.4521 58.8854 55.1187 57.4062C54.8062 55.5312 54.5562 53.6771 54.3687 51.8438C54.1812 49.9896 54.025 48.0833 53.9 46.125L53.8062 44.625C53.7646 43.8542 53.7125 43.0833 53.65 42.3125C53.6083 41.5417 53.5875 40.7604 53.5875 39.9688C53.5875 39.5521 53.65 39.1979 53.775 38.9062C53.9208 38.5938 54.2333 38.4375 54.7125 38.4375C54.9417 38.4375 55.1604 38.4583 55.3687 38.5C55.5771 38.5417 55.7958 38.6146 56.025 38.7188V38.6875C56.4208 38.875 56.7229 39.0938 56.9312 39.3438C57.1396 39.5729 57.2958 39.8229 57.4 40.0938C57.5042 40.3646 57.5667 40.6562 57.5875 40.9688C57.6292 41.2812 57.65 41.6042 57.65 41.9375V42.4375C57.7125 43.8958 57.7854 45.2604 57.8687 46.5312C57.9729 47.7812 58.1083 49.1354 58.275 50.5938C58.4625 50.2188 58.6812 49.875 58.9312 49.5625C59.2021 49.2292 59.5667 49.0625 60.025 49.0625C60.2542 49.0625 60.525 49.1354 60.8375 49.2812C61.1708 49.4271 61.4729 49.6146 61.7437 49.8438C62.0354 50.0729 62.275 50.3229 62.4625 50.5938C62.6708 50.8646 62.775 51.1146 62.775 51.3438ZM57.0562 73.875C57.0562 72.5 56.9833 71.0938 56.8375 69.6562C56.7125 68.2188 56.5458 66.8021 56.3375 65.4062C55.7125 67.0729 55.1708 68.8229 54.7125 70.6562C54.2542 72.5104 54.025 74.3125 54.025 76.0625C54.025 76.4167 54.0354 76.8021 54.0562 77.2188C54.0771 77.6562 54.1292 78.0938 54.2125 78.5312C54.2958 78.9688 54.4104 79.3854 54.5562 79.7812C54.7021 80.1771 54.9 80.5 55.15 80.75C55.1708 80.7708 55.2333 80.7812 55.3375 80.7812C55.6083 80.7812 55.8375 80.6354 56.025 80.3438C56.2125 80.0729 56.3687 79.7188 56.4937 79.2812C56.6187 78.8438 56.7125 78.3542 56.775 77.8125C56.8583 77.2708 56.9208 76.7396 56.9625 76.2188C57.0042 75.7188 57.025 75.25 57.025 74.8125C57.0458 74.3958 57.0562 74.0833 57.0562 73.875Z" fill="black"/>
<path d="M46.625 22.75L46.7478 22.9079L46.7499 22.9062L46.625 22.75ZM45.9375 23.125L45.9965 23.3166L46.0093 23.3117L45.9375 23.125ZM43.1562 23.1562L43.0819 23.3421L43.0902 23.345L43.1562 23.1562ZM41.8125 22.875L41.8212 22.6752L41.79 22.6738L41.7599 22.682L41.8125 22.875ZM38.5625 38.2812L38.3639 38.3049L38.3896 38.5211L38.6029 38.4771L38.5625 38.2812ZM42.2188 37.5938L42.2516 37.7911L42.2545 37.7905L42.2188 37.5938ZM45.4062 40.75L45.4365 40.9477L45.4789 40.9412L45.5149 40.9179L45.4062 40.75ZM38.875 41.75L38.8447 41.5523L38.6535 41.5816L38.6764 41.7736L38.875 41.75ZM39.125 44.4062L38.9254 44.4202L38.9259 44.4252L39.125 44.4062ZM39.375 47L39.1759 47.0194L39.1765 47.0244L39.375 47ZM40.2188 53.6562L40.0205 53.6825L40.0208 53.6849L40.2188 53.6562ZM40.8125 57.8125L40.6144 57.8402L40.6151 57.8447L40.8125 57.8125ZM41.1875 60.0312L40.9904 60.0671L40.9929 60.0776L41.1875 60.0312ZM41.4062 60.9375L41.2121 60.986L41.2139 60.9924L41.4062 60.9375ZM41.4688 61.125L41.3273 60.9836L41.2687 61.0422V61.125H41.4688ZM41.0938 62.0938L40.9888 61.9232L40.9799 61.9293L41.0938 62.0938ZM39.1875 62.2812L39.2244 62.0844L39.2139 62.083L39.1875 62.2812ZM36.875 60.9375L36.6764 60.9609L36.6793 60.9858L36.6883 61.0093L36.875 60.9375ZM35.6875 52.8438L35.4885 52.8639L35.4889 52.8675L35.6875 52.8438ZM35.125 47.5938L34.926 47.6139L34.9263 47.6161L35.125 47.5938ZM34.6562 42.2812L34.8557 42.2665L34.8382 42.0296L34.6077 42.0872L34.6562 42.2812ZM34.4062 42.3125L34.3577 42.5065L34.3816 42.5125H34.4062V42.3125ZM33.2812 42.0625L33.1563 42.2187L33.1648 42.2254L33.1739 42.2312L33.2812 42.0625ZM33.3125 39.875L33.1433 39.7681L33.1394 39.7748L33.3125 39.875ZM34.4062 39.0938L34.4567 39.2873L34.6149 39.246L34.606 39.0829L34.4062 39.0938ZM34.0938 31.0312L34.2937 31.0341L34.2937 31.0341L34.0938 31.0312ZM34.4375 26.8125L34.2402 26.7796L34.2398 26.7821L34.4375 26.8125ZM35.625 23.1875L35.801 23.2825L35.8018 23.2811L35.625 23.1875ZM37.9375 20.625L37.8274 20.458L37.9375 20.625ZM43.0312 19.8125L42.9948 20.0092L42.9961 20.0094L43.0312 19.8125ZM44.7812 20.3125L44.7081 20.4987L44.714 20.5008L44.7812 20.3125ZM46.2812 21.0938L46.1612 21.2538L46.165 21.2565L46.2812 21.0938ZM46.7375 22.1562C46.7375 22.3143 46.6697 22.4581 46.5001 22.5938L46.7499 22.9062C46.997 22.7085 47.1375 22.4565 47.1375 22.1562H46.7375ZM46.5022 22.5921C46.3332 22.7236 46.1221 22.8397 45.8657 22.9383L46.0093 23.3117C46.2945 23.202 46.5418 23.0681 46.7478 22.9079L46.5022 22.5921ZM45.8787 22.9338C45.6168 23.0144 45.3555 23.0747 45.0946 23.1148L45.1554 23.5102C45.4362 23.467 45.7165 23.4023 45.9963 23.3162L45.8787 22.9338ZM45.0946 23.1148C44.8267 23.156 44.6304 23.175 44.5 23.175V23.575C44.6613 23.575 44.8816 23.5523 45.1554 23.5102L45.0946 23.1148ZM44.5 23.175C44.0414 23.175 43.616 23.1053 43.2223 22.9675L43.0902 23.345C43.5298 23.4989 44.0003 23.575 44.5 23.575V23.175ZM43.2305 22.9706C42.7916 22.795 42.3213 22.6969 41.8212 22.6752L41.8038 23.0748C42.262 23.0947 42.6876 23.1842 43.082 23.3419L43.2305 22.9706ZM41.7599 22.682C41.0263 22.8821 40.3785 23.3253 39.8155 23.9965L40.122 24.2535C40.6424 23.6331 41.2237 23.2429 41.8651 23.068L41.7599 22.682ZM39.8155 23.9965C39.2473 24.674 38.8102 25.6433 38.4937 26.8882L38.8813 26.9868C39.1898 25.7733 39.6069 24.8677 40.122 24.2535L39.8155 23.9965ZM38.4937 26.8882C38.1762 28.1371 37.9982 29.695 37.9563 31.558L38.3562 31.567C38.3977 29.7217 38.5738 28.1963 38.8813 26.9868L38.4937 26.8882ZM37.9563 31.558C37.9144 33.4246 38.0507 35.6741 38.3639 38.3049L38.7611 38.2576C38.4493 35.6384 38.3148 33.4087 38.3562 31.567L37.9563 31.558ZM38.6029 38.4771C39.9133 38.2067 41.1295 37.978 42.2516 37.791L42.1859 37.3965C41.058 37.5845 39.8367 37.8141 38.5221 38.0854L38.6029 38.4771ZM42.2545 37.7905C43.3968 37.5828 44.2682 37.4813 44.875 37.4813V37.0812C44.2318 37.0812 43.3324 37.188 42.183 37.397L42.2545 37.7905ZM44.875 37.4813C45.3449 37.4813 45.6081 37.6083 45.7418 37.8013L46.0707 37.5737C45.8294 37.2251 45.4051 37.0812 44.875 37.0812V37.4813ZM45.7418 37.8013C45.9007 38.0308 45.9875 38.332 45.9875 38.7188H46.3875C46.3875 38.2722 46.2868 37.8858 46.0707 37.5737L45.7418 37.8013ZM45.9875 38.7188C45.9875 39.1222 45.9472 39.492 45.8678 39.8292L46.2572 39.9208C46.3445 39.5496 46.3875 39.1487 46.3875 38.7188H45.9875ZM45.8678 39.8292C45.7982 40.1251 45.6158 40.3762 45.2976 40.5821L45.5149 40.9179C45.905 40.6655 46.1601 40.3333 46.2572 39.9208L45.8678 39.8292ZM45.376 40.5523L38.8447 41.5523L38.9053 41.9477L45.4365 40.9477L45.376 40.5523ZM38.6764 41.7736C38.7802 42.6453 38.8632 43.5275 38.9255 44.4202L39.3245 44.3923C39.2618 43.4933 39.1782 42.6047 39.0736 41.7264L38.6764 41.7736ZM38.9259 44.4252C39.0092 45.3004 39.0926 46.1651 39.1759 47.0194L39.5741 46.9806C39.4907 46.1266 39.4074 45.2621 39.3241 44.3873L38.9259 44.4252ZM39.1765 47.0244C39.5099 49.7331 39.7912 51.9525 40.0205 53.6825L40.417 53.63C40.188 51.9017 39.9068 49.6836 39.5735 46.9756L39.1765 47.0244ZM40.0208 53.6849C40.2708 55.4139 40.4687 56.799 40.6144 57.8402L41.0106 57.7848C40.8647 56.7427 40.6667 55.3569 40.4167 53.6276L40.0208 53.6849ZM40.6151 57.8447C40.7818 58.8657 40.907 59.6068 40.9907 60.067L41.3843 59.9955C41.3013 59.539 41.1765 58.801 41.0099 57.7803L40.6151 57.8447ZM40.9929 60.0776C41.0971 60.515 41.1702 60.8181 41.2122 60.986L41.6003 60.889C41.5589 60.7236 41.4862 60.4225 41.3821 59.9849L40.9929 60.0776ZM41.2139 60.9924C41.2348 61.0655 41.2515 61.1213 41.2634 61.157C41.268 61.1709 41.276 61.1946 41.286 61.2144C41.2885 61.2195 41.2953 61.233 41.3066 61.2479C41.3119 61.2551 41.3237 61.27 41.3423 61.2848C41.3581 61.2975 41.402 61.3289 41.4678 61.3289C41.5465 61.3289 41.6008 61.2852 41.6282 61.2487C41.6514 61.2177 41.6596 61.188 41.6625 61.1764C41.6688 61.1513 41.6688 61.1304 41.6688 61.125H41.2687C41.2687 61.1222 41.2685 61.1033 41.2745 61.0794C41.2772 61.0685 41.2852 61.0393 41.3082 61.0087C41.3354 60.9724 41.3894 60.9289 41.4678 60.9289C41.5332 60.9289 41.5768 60.9602 41.5922 60.9725C41.6103 60.987 41.6217 61.0014 41.6266 61.0079C41.6368 61.0216 41.6425 61.0331 41.6437 61.0356C41.6484 61.045 41.6486 61.0478 41.6429 61.0305C41.6339 61.0037 41.6193 60.9553 41.5986 60.8826L41.2139 60.9924ZM41.6102 61.2664C41.6075 61.269 41.5624 61.3172 41.4824 61.3172C41.3764 61.3172 41.326 61.2398 41.3133 61.2144C41.3061 61.2001 41.3029 61.1886 41.3016 61.1833C41.3001 61.1774 41.2997 61.1738 41.2996 61.1732C41.2995 61.1725 41.3 61.1766 41.3 61.1875H41.7C41.7 61.1672 41.6992 61.1452 41.6965 61.1236C41.6943 61.1058 41.6889 61.0712 41.6711 61.0356C41.6532 60.9998 41.5963 60.9172 41.4824 60.9172C41.3946 60.9172 41.3404 60.9705 41.3273 60.9836L41.6102 61.2664ZM41.3 61.1875C41.3 61.5846 41.1795 61.8061 40.9889 61.9234L41.1986 62.2641C41.5496 62.048 41.7 61.6654 41.7 61.1875H41.3ZM40.9799 61.9293C40.747 62.0905 40.4651 62.175 40.125 62.175V62.575C40.5349 62.575 40.8988 62.472 41.2076 62.2582L40.9799 61.9293ZM40.125 62.175C39.8475 62.175 39.5474 62.1453 39.2244 62.0847L39.1506 62.4778C39.4942 62.5422 39.8192 62.575 40.125 62.575V62.175ZM39.2139 62.083C38.9145 62.0431 38.6143 61.9731 38.3132 61.8728L38.1868 62.2522C38.5107 62.3602 38.8355 62.4361 39.1611 62.4795L39.2139 62.083ZM38.3132 61.8728C38.02 61.775 37.7581 61.6389 37.5263 61.465L37.2862 61.785C37.5544 61.9861 37.855 62.1416 38.1868 62.2522L38.3132 61.8728ZM37.5263 61.465C37.3039 61.2982 37.1513 61.0987 37.0617 60.8657L36.6883 61.0093C36.807 61.3179 37.0086 61.5768 37.2862 61.785L37.5263 61.465ZM37.0736 60.9141C36.9065 59.4939 36.7081 58.1359 36.4782 56.8401L36.0843 56.9099C36.3128 58.1975 36.5101 59.5477 36.6764 60.9609L37.0736 60.9141ZM36.4782 56.8401C36.2497 55.5524 36.0523 54.2124 35.8861 52.82L35.4889 52.8675C35.656 54.2668 35.8545 55.6143 36.0843 56.9099L36.4782 56.8401ZM35.8865 52.8236C35.7197 51.177 35.5322 49.4262 35.3237 47.5714L34.9263 47.6161C35.1345 49.4696 35.3219 51.2189 35.4885 52.8639L35.8865 52.8236ZM35.324 47.5736C35.1366 45.7211 34.9806 43.952 34.8557 42.2665L34.4568 42.296C34.5819 43.9855 34.7384 45.7581 34.926 47.6139L35.324 47.5736ZM34.6077 42.0872C34.5398 42.1042 34.4727 42.1125 34.4062 42.1125V42.5125C34.5064 42.5125 34.606 42.5 34.7048 42.4753L34.6077 42.0872ZM34.4548 42.1185C34.3526 42.0929 34.2422 42.0812 34.125 42.0812V42.4813C34.2161 42.4813 34.2932 42.4904 34.3577 42.5065L34.4548 42.1185ZM34.125 42.0812C33.821 42.0812 33.5791 42.015 33.3886 41.8938L33.1739 42.2312C33.4417 42.4017 33.7623 42.4813 34.125 42.4813V42.0812ZM33.4062 41.9063C33.2669 41.7949 33.1688 41.5778 33.1688 41.1875H32.7687C32.7687 41.6305 32.879 41.9968 33.1563 42.2187L33.4062 41.9063ZM33.1688 41.1875C33.1688 40.7418 33.2749 40.3391 33.4856 39.9752L33.1394 39.7748C32.8918 40.2026 32.7687 40.6749 32.7687 41.1875H33.1688ZM33.4816 39.9818C33.7028 39.6315 34.0236 39.4003 34.4567 39.2873L34.3558 38.9002C33.8306 39.0372 33.4222 39.3268 33.1434 39.7682L33.4816 39.9818ZM34.606 39.0829C34.5434 37.9366 34.4705 36.6654 34.3871 35.2693L33.9879 35.2932C34.0712 36.6887 34.1441 37.9592 34.2065 39.1046L34.606 39.0829ZM34.3871 35.2693C34.3041 33.8786 34.273 32.4668 34.2937 31.0341L33.8938 31.0284C33.8729 32.4707 33.9042 33.8923 33.9879 35.2932L34.3871 35.2693ZM34.2937 31.0341C34.3144 29.5844 34.4283 28.1874 34.6352 26.8429L34.2398 26.7821C34.03 28.1459 33.9147 29.5614 33.8938 31.0284L34.2937 31.0341ZM34.6348 26.8454C34.8609 25.4884 35.2506 24.3017 35.801 23.2825L35.449 23.0925C34.8744 24.1566 34.4724 25.3866 34.2402 26.7796L34.6348 26.8454ZM35.8018 23.2811C36.349 22.2475 37.0972 21.4188 38.0476 20.792L37.8274 20.458C36.8195 21.1228 36.026 22.0025 35.4482 23.0939L35.8018 23.2811ZM38.0476 20.792C38.9853 20.1735 40.2041 19.8563 41.7188 19.8563V19.4562C40.15 19.4562 38.8481 19.7848 37.8274 20.458L38.0476 20.792ZM41.7188 19.8563C42.0129 19.8563 42.4362 19.9057 42.9948 20.0092L43.0677 19.6158C42.5013 19.511 42.0496 19.4562 41.7188 19.4562V19.8563ZM42.9961 20.0094C43.5657 20.1111 44.1364 20.274 44.7081 20.4987L44.8544 20.1263C44.2595 19.8926 43.6634 19.7222 43.0664 19.6156L42.9961 20.0094ZM44.714 20.5008C45.2819 20.7037 45.7633 20.9553 46.1612 21.2538L46.4013 20.9337C45.9658 20.6072 45.4473 20.338 44.8485 20.1242L44.714 20.5008ZM46.165 21.2565C46.5704 21.5461 46.7375 21.8466 46.7375 22.1562H47.1375C47.1375 21.6742 46.8671 21.2664 46.3975 20.931L46.165 21.2565ZM57.1812 32.125L56.9819 32.1084L56.9812 32.1167V32.125H57.1812ZM55.1812 35.75L55.1484 35.9473L55.1501 35.9476L55.1812 35.75ZM53.9937 35.4688L53.9335 35.6595L53.9363 35.6603L53.9937 35.4688ZM52.9312 35.0312L52.8282 35.203L52.8371 35.2077L52.9312 35.0312ZM52.5875 33.625L52.3927 33.5786L52.391 33.5876L52.5875 33.625ZM52.9312 32.2188L53.1253 32.2673L53.1257 32.2654L52.9312 32.2188ZM53.275 30.8125L53.469 30.861L53.4696 30.8588L53.275 30.8125ZM53.4937 30.0938H53.6937V29.6109L53.3523 29.9523L53.4937 30.0938ZM53.4937 30.125H53.2937L53.6758 30.2078L53.4937 30.125ZM55.1812 29.75L55.1443 29.9469L55.1564 29.9485L55.1812 29.75ZM56.1187 30.0312L56.0293 30.2101L56.0367 30.2139L56.0445 30.2169L56.1187 30.0312ZM56.9 30.5625L56.7518 30.6972L56.7586 30.7039L56.9 30.5625ZM62.4625 52.2188L62.2804 52.136L62.2787 52.14L62.4625 52.2188ZM60.8062 55.5938L60.9827 55.6879L60.984 55.6855L60.8062 55.5938ZM59.6187 57.9688L59.8016 58.05L59.8044 58.043L59.6187 57.9688ZM59.4 58.4062L59.2285 58.3034L59.1906 58.3665L59.2027 58.4391L59.4 58.4062ZM59.6812 60.0938L59.8789 60.0628L59.8785 60.0609L59.6812 60.0938ZM61.1812 76.875L60.9815 76.8642L60.9813 76.8697L61.1812 76.875ZM60.9 79.1875L60.7047 79.1441L60.7037 79.1493L60.9 79.1875ZM60.15 81.3125L59.9733 81.2186L59.97 81.2252L60.15 81.3125ZM58.7125 83.0938L58.8358 83.2513L58.8374 83.2499L58.7125 83.0938ZM57.15 83.9688L57.0805 83.7811L57.0745 83.7835L57.15 83.9688ZM52.5562 83.5625L52.6672 83.3961L52.6661 83.3954L52.5562 83.5625ZM49.9 79.0938L50.0971 79.0595L50.0961 79.0545L49.9 79.0938ZM50.1187 71.375L50.3147 71.4152L50.3152 71.4128L50.1187 71.375ZM53.1187 61.9062L52.9356 61.8259L52.9347 61.8281L53.1187 61.9062ZM55.1187 57.4062L55.3011 57.4884L55.326 57.4332L55.316 57.3734L55.1187 57.4062ZM54.3687 51.8438L54.1698 51.8639L54.1698 51.8641L54.3687 51.8438ZM53.9 46.125L53.7004 46.1375L53.7004 46.1377L53.9 46.125ZM53.8062 44.625L53.6065 44.6358L53.6066 44.6375L53.8062 44.625ZM53.65 42.3125L53.4502 42.3233L53.4507 42.3287L53.65 42.3125ZM53.775 38.9062L53.5937 38.8216L53.5912 38.8275L53.775 38.9062ZM56.025 38.7188L55.9422 38.9008L56.225 39.0294V38.7188H56.025ZM56.025 38.6875L56.1106 38.5068L55.825 38.3715V38.6875H56.025ZM56.9312 39.3438L56.7775 39.4719L56.7833 39.4783L56.9312 39.3438ZM57.5875 40.9688L57.3875 40.9821L57.3893 40.9952L57.5875 40.9688ZM57.65 42.4375H57.4498L57.4502 42.4461L57.65 42.4375ZM57.8687 46.5312L57.6691 46.5443L57.6694 46.5479L57.8687 46.5312ZM58.275 50.5938L58.0763 50.6165L58.1528 51.2855L58.4539 50.6832L58.275 50.5938ZM58.9312 49.5625L58.776 49.4364L58.7751 49.4376L58.9312 49.5625ZM60.8375 49.2812L60.7529 49.4625L60.7573 49.4645L60.8375 49.2812ZM61.7437 49.8438L61.6145 49.9965L61.6202 50.001L61.7437 49.8438ZM62.4625 50.5938L62.2979 50.7077L62.304 50.7157L62.4625 50.5938ZM56.8375 69.6562L56.6382 69.6736L56.6385 69.6764L56.8375 69.6562ZM56.3375 65.4062L56.5353 65.3767L56.4213 64.6131L56.1502 65.336L56.3375 65.4062ZM54.7125 70.6562L54.5185 70.6077L54.5183 70.6083L54.7125 70.6562ZM54.0562 77.2188L54.256 77.2092L54.256 77.2088L54.0562 77.2188ZM55.15 80.75L55.0086 80.8914L55.15 80.75ZM56.025 80.3438L55.8605 80.2298L55.8568 80.2356L56.025 80.3438ZM56.775 77.8125L56.5772 77.7821L56.5763 77.7896L56.775 77.8125ZM56.9625 76.2188L56.7632 76.2021L56.7631 76.2028L56.9625 76.2188ZM57.025 74.8125L56.825 74.8025V74.8125H57.025ZM57.0125 31.375C57.0125 31.6194 57.0023 31.8639 56.9819 32.1084L57.3806 32.1416C57.4019 31.8861 57.4125 31.6306 57.4125 31.375H57.0125ZM56.9812 32.125C56.9812 32.3481 56.9711 32.5822 56.9507 32.8271L57.3493 32.8604C57.3706 32.6053 57.3812 32.3602 57.3812 32.125H56.9812ZM56.9507 32.8271C56.9294 33.0826 56.9187 33.3382 56.9187 33.5938H57.3187C57.3187 33.3493 57.3289 33.1049 57.3493 32.8604L56.9507 32.8271ZM56.9187 33.5938C56.9187 33.5942 56.9187 33.5947 56.9187 33.5952C56.9187 33.5957 56.9187 33.5962 56.9187 33.5967C56.9187 33.5972 56.9187 33.5977 56.9187 33.5981C56.9187 33.5986 56.9187 33.5991 56.9187 33.5996C56.9187 33.6001 56.9187 33.6006 56.9187 33.6011C56.9187 33.6016 56.9187 33.6021 56.9187 33.6025C56.9187 33.603 56.9187 33.6035 56.9187 33.604C56.9187 33.6045 56.9187 33.605 56.9187 33.6055C56.9187 33.606 56.9187 33.6064 56.9187 33.6069C56.9187 33.6074 56.9187 33.6079 56.9187 33.6084C56.9187 33.6089 56.9187 33.6094 56.9187 33.6099C56.9187 33.6104 56.9187 33.6108 56.9187 33.6113C56.9187 33.6118 56.9187 33.6123 56.9187 33.6128C56.9187 33.6133 56.9187 33.6138 56.9187 33.6143C56.9187 33.6147 56.9187 33.6152 56.9187 33.6157C56.9187 33.6162 56.9187 33.6167 56.9187 33.6172C56.9187 33.6177 56.9187 33.6182 56.9187 33.6187C56.9187 33.6191 56.9187 33.6196 56.9187 33.6201C56.9187 33.6206 56.9187 33.6211 56.9187 33.6216C56.9187 33.6221 56.9187 33.6226 56.9187 33.623C56.9187 33.6235 56.9187 33.624 56.9187 33.6245C56.9187 33.625 56.9187 33.6255 56.9187 33.626C56.9187 33.6265 56.9187 33.627 56.9187 33.6274C56.9187 33.6279 56.9187 33.6284 56.9187 33.6289C56.9187 33.6294 56.9187 33.6299 56.9187 33.6304C56.9187 33.6309 56.9187 33.6313 56.9187 33.6318C56.9187 33.6323 56.9187 33.6328 56.9187 33.6333C56.9187 33.6338 56.9187 33.6343 56.9187 33.6348C56.9187 33.6353 56.9187 33.6357 56.9187 33.6362C56.9187 33.6367 56.9187 33.6372 56.9187 33.6377C56.9187 33.6382 56.9187 33.6387 56.9187 33.6392C56.9187 33.6396 56.9187 33.6401 56.9187 33.6406C56.9187 33.6411 56.9187 33.6416 56.9187 33.6421C56.9187 33.6426 56.9187 33.6431 56.9187 33.6436C56.9187 33.644 56.9187 33.6445 56.9187 33.645C56.9187 33.6455 56.9187 33.646 56.9187 33.6465C56.9187 33.647 56.9187 33.6475 56.9187 33.6479C56.9187 33.6484 56.9187 33.6489 56.9187 33.6494C56.9187 33.6499 56.9187 33.6504 56.9187 33.6509C56.9187 33.6514 56.9187 33.6519 56.9187 33.6523C56.9187 33.6528 56.9187 33.6533 56.9187 33.6538C56.9187 33.6543 56.9187 33.6548 56.9187 33.6553C56.9187 33.6558 56.9187 33.6562 56.9187 33.6567C56.9187 33.6572 56.9187 33.6577 56.9187 33.6582C56.9187 33.6587 56.9187 33.6592 56.9187 33.6597C56.9187 33.6602 56.9187 33.6606 56.9187 33.6611C56.9187 33.6616 56.9187 33.6621 56.9187 33.6626C56.9187 33.6631 56.9187 33.6636 56.9187 33.6641C56.9187 33.6646 56.9187 33.665 56.9187 33.6655C56.9187 33.666 56.9187 33.6665 56.9187 33.667C56.9187 33.6675 56.9187 33.668 56.9187 33.6685C56.9187 33.6689 56.9187 33.6694 56.9187 33.6699C56.9187 33.6704 56.9187 33.6709 56.9187 33.6714C56.9187 33.6719 56.9187 33.6724 56.9187 33.6729C56.9187 33.6733 56.9187 33.6738 56.9187 33.6743C56.9187 33.6748 56.9187 33.6753 56.9187 33.6758C56.9187 33.6763 56.9187 33.6768 56.9187 33.6772C56.9187 33.6777 56.9187 33.6782 56.9187 33.6787C56.9187 33.6792 56.9187 33.6797 56.9187 33.6802C56.9187 33.6807 56.9187 33.6812 56.9187 33.6816C56.9187 33.6821 56.9187 33.6826 56.9187 33.6831C56.9187 33.6836 56.9187 33.6841 56.9187 33.6846C56.9187 33.6851 56.9187 33.6855 56.9187 33.686C56.9187 33.6865 56.9187 33.687 56.9187 33.6875C56.9187 33.688 56.9187 33.6885 56.9187 33.689C56.9187 33.6895 56.9187 33.6899 56.9187 33.6904C56.9187 33.6909 56.9187 33.6914 56.9187 33.6919C56.9187 33.6924 56.9187 33.6929 56.9187 33.6934C56.9187 33.6938 56.9187 33.6943 56.9187 33.6948C56.9187 33.6953 56.9187 33.6958 56.9187 33.6963C56.9187 33.6968 56.9187 33.6973 56.9187 33.6978C56.9187 33.6982 56.9187 33.6987 56.9187 33.6992C56.9187 33.6997 56.9187 33.7002 56.9187 33.7007C56.9187 33.7012 56.9187 33.7017 56.9187 33.7021C56.9187 33.7026 56.9187 33.7031 56.9187 33.7036C56.9187 33.7041 56.9187 33.7046 56.9187 33.7051C56.9187 33.7056 56.9187 33.7061 56.9187 33.7065C56.9187 33.707 56.9187 33.7075 56.9187 33.708C56.9187 33.7085 56.9187 33.709 56.9187 33.7095C56.9187 33.71 56.9187 33.7104 56.9187 33.7109C56.9187 33.7114 56.9187 33.7119 56.9187 33.7124C56.9187 33.7129 56.9187 33.7134 56.9187 33.7139C56.9187 33.7144 56.9187 33.7148 56.9187 33.7153C56.9187 33.7158 56.9187 33.7163 56.9187 33.7168C56.9187 33.7173 56.9187 33.7178 56.9187 33.7183C56.9187 33.7188 56.9187 33.7192 56.9187 33.7197C56.9187 33.7202 56.9187 33.7207 56.9187 33.7212C56.9187 33.7217 56.9187 33.7222 56.9187 33.7227C56.9187 33.7231 56.9187 33.7236 56.9187 33.7241C56.9187 33.7246 56.9187 33.7251 56.9187 33.7256C56.9187 33.7261 56.9187 33.7266 56.9187 33.7271C56.9187 33.7275 56.9187 33.728 56.9187 33.7285C56.9187 33.729 56.9187 33.7295 56.9187 33.73C56.9187 33.7305 56.9187 33.731 56.9187 33.7314C56.9187 33.7319 56.9187 33.7324 56.9187 33.7329C56.9187 33.7334 56.9187 33.7339 56.9187 33.7344C56.9187 33.7349 56.9187 33.7354 56.9187 33.7358C56.9187 33.7363 56.9187 33.7368 56.9187 33.7373C56.9187 33.7378 56.9187 33.7383 56.9187 33.7388C56.9187 33.7393 56.9187 33.7397 56.9187 33.7402C56.9187 33.7407 56.9187 33.7412 56.9187 33.7417C56.9187 33.7422 56.9187 33.7427 56.9187 33.7432C56.9187 33.7437 56.9187 33.7441 56.9187 33.7446C56.9187 33.7451 56.9187 33.7456 56.9187 33.7461C56.9187 33.7466 56.9187 33.7471 56.9187 33.7476C56.9187 33.748 56.9187 33.7485 56.9187 33.749C56.9187 33.7495 56.9187 33.75 56.9187 33.7505C56.9187 33.751 56.9187 33.7515 56.9187 33.752C56.9187 33.7524 56.9187 33.7529 56.9187 33.7534C56.9187 33.7539 56.9187 33.7544 56.9187 33.7549C56.9187 33.7554 56.9187 33.7559 56.9187 33.7563C56.9187 33.7568 56.9187 33.7573 56.9187 33.7578C56.9187 33.7583 56.9187 33.7588 56.9187 33.7593C56.9187 33.7598 56.9187 33.7603 56.9187 33.7607C56.9187 33.7612 56.9187 33.7617 56.9187 33.7622C56.9187 33.7627 56.9187 33.7632 56.9187 33.7637C56.9187 33.7642 56.9187 33.7646 56.9187 33.7651C56.9187 33.7656 56.9187 33.7661 56.9187 33.7666C56.9187 33.7671 56.9187 33.7676 56.9187 33.7681C56.9187 33.7686 56.9187 33.769 56.9187 33.7695C56.9187 33.77 56.9187 33.7705 56.9187 33.771C56.9187 33.7715 56.9187 33.772 56.9187 33.7725C56.9187 33.7729 56.9187 33.7734 56.9187 33.7739C56.9187 33.7744 56.9187 33.7749 56.9187 33.7754C56.9187 33.7759 56.9187 33.7764 56.9187 33.7769C56.9187 33.7773 56.9187 33.7778 56.9187 33.7783C56.9187 33.7788 56.9187 33.7793 56.9187 33.7798C56.9187 33.7803 56.9187 33.7808 56.9187 33.7812C56.9187 33.7817 56.9187 33.7822 56.9187 33.7827C56.9187 33.7832 56.9187 33.7837 56.9187 33.7842C56.9187 33.7847 56.9187 33.7852 56.9187 33.7856C56.9187 33.7861 56.9187 33.7866 56.9187 33.7871C56.9187 33.7876 56.9187 33.7881 56.9187 33.7886C56.9187 33.7891 56.9187 33.7896 56.9187 33.79C56.9187 33.7905 56.9187 33.791 56.9187 33.7915C56.9187 33.792 56.9187 33.7925 56.9187 33.793C56.9187 33.7935 56.9187 33.7939 56.9187 33.7944C56.9187 33.7949 56.9187 33.7954 56.9187 33.7959C56.9187 33.7964 56.9187 33.7969 56.9187 33.7974C56.9187 33.7979 56.9187 33.7983 56.9187 33.7988C56.9187 33.7993 56.9187 33.7998 56.9187 33.8003C56.9187 33.8008 56.9187 33.8013 56.9187 33.8018C56.9187 33.8022 56.9187 33.8027 56.9187 33.8032C56.9187 33.8037 56.9187 33.8042 56.9187 33.8047C56.9187 33.8052 56.9187 33.8057 56.9187 33.8062C56.9187 33.8066 56.9187 33.8071 56.9187 33.8076C56.9187 33.8081 56.9187 33.8086 56.9187 33.8091C56.9187 33.8096 56.9187 33.8101 56.9187 33.8105C56.9187 33.811 56.9187 33.8115 56.9187 33.812C56.9187 33.8125 56.9187 33.813 56.9187 33.8135C56.9187 33.814 56.9187 33.8145 56.9187 33.8149C56.9187 33.8154 56.9187 33.8159 56.9187 33.8164C56.9187 33.8169 56.9187 33.8174 56.9187 33.8179C56.9187 33.8184 56.9187 33.8188 56.9187 33.8193C56.9187 33.8198 56.9187 33.8203 56.9187 33.8208C56.9187 33.8213 56.9187 33.8218 56.9187 33.8223C56.9187 33.8228 56.9187 33.8232 56.9187 33.8237C56.9187 33.8242 56.9187 33.8247 56.9187 33.8252C56.9187 33.8257 56.9187 33.8262 56.9187 33.8267C56.9187 33.8271 56.9187 33.8276 56.9187 33.8281C56.9187 33.8286 56.9187 33.8291 56.9187 33.8296C56.9187 33.8301 56.9187 33.8306 56.9187 33.8311C56.9187 33.8315 56.9187 33.832 56.9187 33.8325C56.9187 33.833 56.9187 33.8335 56.9187 33.834C56.9187 33.8345 56.9187 33.835 56.9187 33.8354C56.9187 33.8359 56.9187 33.8364 56.9187 33.8369C56.9187 33.8374 56.9187 33.8379 56.9187 33.8384C56.9187 33.8389 56.9187 33.8394 56.9187 33.8398C56.9187 33.8403 56.9187 33.8408 56.9187 33.8413C56.9187 33.8418 56.9187 33.8423 56.9187 33.8428C56.9187 33.8433 56.9187 33.8438 56.9187 33.8442C56.9187 33.8447 56.9187 33.8452 56.9187 33.8457C56.9187 33.8462 56.9187 33.8467 56.9187 33.8472C56.9187 33.8477 56.9187 33.8481 56.9187 33.8486C56.9187 33.8491 56.9187 33.8496 56.9187 33.8501C56.9187 33.8506 56.9187 33.8511 56.9187 33.8516C56.9187 33.8521 56.9187 33.8525 56.9187 33.853C56.9187 33.8535 56.9187 33.854 56.9187 33.8545C56.9187 33.855 56.9187 33.8555 56.9187 33.856C56.9187 33.8564 56.9187 33.8569 56.9187 33.8574C56.9187 33.8579 56.9187 33.8584 56.9187 33.8589C56.9187 33.8594 56.9187 33.8599 56.9187 33.8604C56.9187 33.8608 56.9187 33.8613 56.9187 33.8618C56.9187 33.8623 56.9187 33.8628 56.9187 33.8633C56.9187 33.8638 56.9187 33.8643 56.9187 33.8647C56.9187 33.8652 56.9187 33.8657 56.9187 33.8662C56.9187 33.8667 56.9187 33.8672 56.9187 33.8677C56.9187 33.8682 56.9187 33.8687 56.9187 33.8691C56.9187 33.8696 56.9187 33.8701 56.9187 33.8706C56.9187 33.8711 56.9187 33.8716 56.9187 33.8721C56.9187 33.8726 56.9187 33.873 56.9187 33.8735C56.9187 33.874 56.9187 33.8745 56.9187 33.875C56.9187 33.8755 56.9187 33.876 56.9187 33.8765C56.9187 33.877 56.9187 33.8774 56.9187 33.8779C56.9187 33.8784 56.9187 33.8789 56.9187 33.8794C56.9187 33.8799 56.9187 33.8804 56.9187 33.8809C56.9187 33.8813 56.9187 33.8818 56.9187 33.8823C56.9187 33.8828 56.9187 33.8833 56.9187 33.8838C56.9187 33.8843 56.9187 33.8848 56.9187 33.8853C56.9187 33.8857 56.9187 33.8862 56.9187 33.8867C56.9187 33.8872 56.9187 33.8877 56.9187 33.8882C56.9187 33.8887 56.9187 33.8892 56.9187 33.8896C56.9187 33.8901 56.9187 33.8906 56.9187 33.8911C56.9187 33.8916 56.9187 33.8921 56.9187 33.8926C56.9187 33.8931 56.9187 33.8936 56.9187 33.894C56.9187 33.8945 56.9187 33.895 56.9187 33.8955C56.9187 33.896 56.9187 33.8965 56.9187 33.897C56.9187 33.8975 56.9187 33.8979 56.9187 33.8984C56.9187 33.8989 56.9187 33.8994 56.9187 33.8999C56.9187 33.9004 56.9187 33.9009 56.9187 33.9014C56.9187 33.9019 56.9187 33.9023 56.9187 33.9028C56.9187 33.9033 56.9187 33.9038 56.9187 33.9043C56.9187 33.9048 56.9187 33.9053 56.9187 33.9058C56.9187 33.9062 56.9187 33.9067 56.9187 33.9072C56.9187 33.9077 56.9187 33.9082 56.9187 33.9087C56.9187 33.9092 56.9187 33.9097 56.9187 33.9102C56.9187 33.9106 56.9187 33.9111 56.9187 33.9116C56.9187 33.9121 56.9187 33.9126 56.9187 33.9131C56.9187 33.9136 56.9187 33.9141 56.9187 33.9146C56.9187 33.915 56.9187 33.9155 56.9187 33.916C56.9187 33.9165 56.9187 33.917 56.9187 33.9175C56.9187 33.918 56.9187 33.9185 56.9187 33.9189C56.9187 33.9194 56.9187 33.9199 56.9187 33.9204C56.9187 33.9209 56.9187 33.9214 56.9187 33.9219C56.9187 33.9224 56.9187 33.9229 56.9187 33.9233C56.9187 33.9238 56.9187 33.9243 56.9187 33.9248C56.9187 33.9253 56.9187 33.9258 56.9187 33.9263C56.9187 33.9268 56.9187 33.9272 56.9187 33.9277C56.9187 33.9282 56.9187 33.9287 56.9187 33.9292C56.9187 33.9297 56.9187 33.9302 56.9187 33.9307C56.9187 33.9312 56.9187 33.9316 56.9187 33.9321C56.9187 33.9326 56.9187 33.9331 56.9187 33.9336C56.9187 33.9341 56.9187 33.9346 56.9187 33.9351C56.9187 33.9355 56.9187 33.936 56.9187 33.9365C56.9187 33.937 56.9187 33.9375 56.9187 33.938C56.9187 33.9385 56.9187 33.939 56.9187 33.9395C56.9187 33.9399 56.9187 33.9404 56.9187 33.9409C56.9187 33.9414 56.9187 33.9419 56.9187 33.9424C56.9187 33.9429 56.9187 33.9434 56.9187 33.9438C56.9187 33.9443 56.9187 33.9448 56.9187 33.9453C56.9187 33.9458 56.9187 33.9463 56.9187 33.9468C56.9187 33.9473 56.9187 33.9478 56.9187 33.9482C56.9187 33.9487 56.9187 33.9492 56.9187 33.9497C56.9187 33.9502 56.9187 33.9507 56.9187 33.9512C56.9187 33.9517 56.9187 33.9521 56.9187 33.9526C56.9187 33.9531 56.9187 33.9536 56.9187 33.9541C56.9187 33.9546 56.9187 33.9551 56.9187 33.9556C56.9187 33.9561 56.9187 33.9565 56.9187 33.957C56.9187 33.9575 56.9187 33.958 56.9187 33.9585C56.9187 33.959 56.9187 33.9595 56.9187 33.96C56.9187 33.9604 56.9187 33.9609 56.9187 33.9614C56.9187 33.9619 56.9187 33.9624 56.9187 33.9629C56.9187 33.9634 56.9187 33.9639 56.9187 33.9644C56.9187 33.9648 56.9187 33.9653 56.9187 33.9658C56.9187 33.9663 56.9187 33.9668 56.9187 33.9673C56.9187 33.9678 56.9187 33.9683 56.9187 33.9688C56.9187 33.9692 56.9187 33.9697 56.9187 33.9702C56.9187 33.9707 56.9187 33.9712 56.9187 33.9717C56.9187 33.9722 56.9187 33.9727 56.9187 33.9731C56.9187 33.9736 56.9187 33.9741 56.9187 33.9746C56.9187 33.9751 56.9187 33.9756 56.9187 33.9761C56.9187 33.9766 56.9187 33.9771 56.9187 33.9775C56.9187 33.978 56.9187 33.9785 56.9187 33.979C56.9187 33.9795 56.9187 33.98 56.9187 33.9805C56.9187 33.981 56.9187 33.9814 56.9187 33.9819C56.9187 33.9824 56.9187 33.9829 56.9187 33.9834C56.9187 33.9839 56.9187 33.9844 56.9187 33.9849C56.9187 33.9854 56.9187 33.9858 56.9187 33.9863C56.9187 33.9868 56.9187 33.9873 56.9187 33.9878C56.9187 33.9883 56.9187 33.9888 56.9187 33.9893C56.9187 33.9897 56.9187 33.9902 56.9187 33.9907C56.9187 33.9912 56.9187 33.9917 56.9187 33.9922C56.9187 33.9927 56.9187 33.9932 56.9187 33.9937C56.9187 33.9941 56.9187 33.9946 56.9187 33.9951C56.9187 33.9956 56.9187 33.9961 56.9187 33.9966C56.9187 33.9971 56.9187 33.9976 56.9187 33.998C56.9187 33.9985 56.9187 33.999 56.9187 33.9995C56.9187 34 56.9187 34.0005 56.9187 34.001C56.9187 34.0015 56.9187 34.002 56.9187 34.0024C56.9187 34.0029 56.9187 34.0034 56.9187 34.0039C56.9187 34.0044 56.9187 34.0049 56.9187 34.0054C56.9187 34.0059 56.9187 34.0063 56.9187 34.0068C56.9187 34.0073 56.9187 34.0078 56.9187 34.0083C56.9187 34.0088 56.9187 34.0093 56.9187 34.0098C56.9187 34.0103 56.9187 34.0107 56.9187 34.0112C56.9187 34.0117 56.9187 34.0122 56.9187 34.0127C56.9187 34.0132 56.9187 34.0137 56.9187 34.0142C56.9187 34.0146 56.9187 34.0151 56.9187 34.0156C56.9187 34.0161 56.9187 34.0166 56.9187 34.0171C56.9187 34.0176 56.9187 34.0181 56.9187 34.0186C56.9187 34.019 56.9187 34.0195 56.9187 34.02C56.9187 34.0205 56.9187 34.021 56.9187 34.0215C56.9187 34.022 56.9187 34.0225 56.9187 34.0229C56.9187 34.0234 56.9187 34.0239 56.9187 34.0244C56.9187 34.0249 56.9187 34.0254 56.9187 34.0259C56.9187 34.0264 56.9187 34.0269 56.9187 34.0273C56.9187 34.0278 56.9187 34.0283 56.9187 34.0288C56.9187 34.0293 56.9187 34.0298 56.9187 34.0303C56.9187 34.0308 56.9187 34.0312 56.9187 34.0317C56.9187 34.0322 56.9187 34.0327 56.9187 34.0332C56.9187 34.0337 56.9187 34.0342 56.9187 34.0347C56.9187 34.0352 56.9187 34.0356 56.9187 34.0361C56.9187 34.0366 56.9187 34.0371 56.9187 34.0376C56.9187 34.0381 56.9187 34.0386 56.9187 34.0391C56.9187 34.0396 56.9187 34.04 56.9187 34.0405C56.9187 34.041 56.9187 34.0415 56.9187 34.042C56.9187 34.0425 56.9187 34.043 56.9187 34.0435C56.9187 34.0439 56.9187 34.0444 56.9187 34.0449C56.9187 34.0454 56.9187 34.0459 56.9187 34.0464C56.9187 34.0469 56.9187 34.0474 56.9187 34.0479C56.9187 34.0483 56.9187 34.0488 56.9187 34.0493C56.9187 34.0498 56.9187 34.0503 56.9187 34.0508C56.9187 34.0513 56.9187 34.0518 56.9187 34.0522C56.9187 34.0527 56.9187 34.0532 56.9187 34.0537C56.9187 34.0542 56.9187 34.0547 56.9187 34.0552C56.9187 34.0557 56.9187 34.0562 56.9187 34.0566C56.9187 34.0571 56.9187 34.0576 56.9187 34.0581C56.9187 34.0586 56.9187 34.0591 56.9187 34.0596C56.9187 34.0601 56.9187 34.0605 56.9187 34.061C56.9187 34.0615 56.9187 34.062 56.9187 34.0625C56.9187 34.063 56.9187 34.0635 56.9187 34.064C56.9187 34.0645 56.9187 34.0649 56.9187 34.0654C56.9187 34.0659 56.9187 34.0664 56.9187 34.0669C56.9187 34.0674 56.9187 34.0679 56.9187 34.0684C56.9187 34.0688 56.9187 34.0693 56.9187 34.0698C56.9187 34.0703 56.9187 34.0708 56.9187 34.0713C56.9187 34.0718 56.9187 34.0723 56.9187 34.0728C56.9187 34.0732 56.9187 34.0737 56.9187 34.0742C56.9187 34.0747 56.9187 34.0752 56.9187 34.0757C56.9187 34.0762 56.9187 34.0767 56.9187 34.0771C56.9187 34.0776 56.9187 34.0781 56.9187 34.0786C56.9187 34.0791 56.9187 34.0796 56.9187 34.0801C56.9187 34.0806 56.9187 34.0811 56.9187 34.0815C56.9187 34.082 56.9187 34.0825 56.9187 34.083C56.9187 34.0835 56.9187 34.084 56.9187 34.0845C56.9187 34.085 56.9187 34.0854 56.9187 34.0859C56.9187 34.0864 56.9187 34.0869 56.9187 34.0874C56.9187 34.0879 56.9187 34.0884 56.9187 34.0889C56.9187 34.0894 56.9187 34.0898 56.9187 34.0903C56.9187 34.0908 56.9187 34.0913 56.9187 34.0918C56.9187 34.0923 56.9187 34.0928 56.9187 34.0933C56.9187 34.0938 56.9187 34.0942 56.9187 34.0947C56.9187 34.0952 56.9187 34.0957 56.9187 34.0962C56.9187 34.0967 56.9187 34.0972 56.9187 34.0977C56.9187 34.0981 56.9187 34.0986 56.9187 34.0991C56.9187 34.0996 56.9187 34.1001 56.9187 34.1006C56.9187 34.1011 56.9187 34.1016 56.9187 34.1021C56.9187 34.1025 56.9187 34.103 56.9187 34.1035C56.9187 34.104 56.9187 34.1045 56.9187 34.105C56.9187 34.1055 56.9187 34.106 56.9187 34.1064C56.9187 34.1069 56.9187 34.1074 56.9187 34.1079C56.9187 34.1084 56.9187 34.1089 56.9187 34.1094C56.9187 34.1099 56.9187 34.1104 56.9187 34.1108C56.9187 34.1113 56.9187 34.1118 56.9187 34.1123C56.9187 34.1128 56.9187 34.1133 56.9187 34.1138C56.9187 34.1143 56.9187 34.1147 56.9187 34.1152C56.9187 34.1157 56.9187 34.1162 56.9187 34.1167C56.9187 34.1172 56.9187 34.1177 56.9187 34.1182C56.9187 34.1187 56.9187 34.1191 56.9187 34.1196C56.9187 34.1201 56.9187 34.1206 56.9187 34.1211C56.9187 34.1216 56.9187 34.1221 56.9187 34.1226C56.9187 34.123 56.9187 34.1235 56.9187 34.124C56.9187 34.1245 56.9187 34.125 56.9187 34.1255C56.9187 34.126 56.9187 34.1265 56.9187 34.127C56.9187 34.1274 56.9187 34.1279 56.9187 34.1284C56.9187 34.1289 56.9187 34.1294 56.9187 34.1299C56.9187 34.1304 56.9187 34.1309 56.9187 34.1313C56.9187 34.1318 56.9187 34.1323 56.9187 34.1328C56.9187 34.1333 56.9187 34.1338 56.9187 34.1343C56.9187 34.1348 56.9187 34.1353 56.9187 34.1357C56.9187 34.1362 56.9187 34.1367 56.9187 34.1372C56.9187 34.1377 56.9187 34.1382 56.9187 34.1387C56.9187 34.1392 56.9187 34.1396 56.9187 34.1401C56.9187 34.1406 56.9187 34.1411 56.9187 34.1416C56.9187 34.1421 56.9187 34.1426 56.9187 34.1431C56.9187 34.1436 56.9187 34.144 56.9187 34.1445C56.9187 34.145 56.9187 34.1455 56.9187 34.146C56.9187 34.1465 56.9187 34.147 56.9187 34.1475C56.9187 34.1479 56.9187 34.1484 56.9187 34.1489C56.9187 34.1494 56.9187 34.1499 56.9187 34.1504C56.9187 34.1509 56.9187 34.1514 56.9187 34.1519C56.9187 34.1523 56.9187 34.1528 56.9187 34.1533C56.9187 34.1538 56.9187 34.1543 56.9187 34.1548C56.9187 34.1553 56.9187 34.1558 56.9187 34.1562C56.9187 34.1567 56.9187 34.1572 56.9187 34.1577C56.9187 34.1582 56.9187 34.1587 56.9187 34.1592C56.9187 34.1597 56.9187 34.1602 56.9187 34.1606C56.9187 34.1611 56.9187 34.1616 56.9187 34.1621C56.9187 34.1626 56.9187 34.1631 56.9187 34.1636C56.9187 34.1641 56.9187 34.1646 56.9187 34.165C56.9187 34.1655 56.9187 34.166 56.9187 34.1665C56.9187 34.167 56.9187 34.1675 56.9187 34.168C56.9187 34.1685 56.9187 34.1689 56.9187 34.1694C56.9187 34.1699 56.9187 34.1704 56.9187 34.1709C56.9187 34.1714 56.9187 34.1719 56.9187 34.1724C56.9187 34.1729 56.9187 34.1733 56.9187 34.1738C56.9187 34.1743 56.9187 34.1748 56.9187 34.1753C56.9187 34.1758 56.9187 34.1763 56.9187 34.1768C56.9187 34.1772 56.9187 34.1777 56.9187 34.1782C56.9187 34.1787 56.9187 34.1792 56.9187 34.1797C56.9187 34.1802 56.9187 34.1807 56.9187 34.1812C56.9187 34.1816 56.9187 34.1821 56.9187 34.1826C56.9187 34.1831 56.9187 34.1836 56.9187 34.1841C56.9187 34.1846 56.9187 34.1851 56.9187 34.1855C56.9187 34.186 56.9187 34.1865 56.9187 34.187C56.9187 34.1875 56.9187 34.188 56.9187 34.1885C56.9187 34.189 56.9187 34.1895 56.9187 34.1899C56.9187 34.1904 56.9187 34.1909 56.9187 34.1914C56.9187 34.1919 56.9187 34.1924 56.9187 34.1929C56.9187 34.1934 56.9187 34.1938 56.9187 34.1943C56.9187 34.1948 56.9187 34.1953 56.9187 34.1958C56.9187 34.1963 56.9187 34.1968 56.9187 34.1973C56.9187 34.1978 56.9187 34.1982 56.9187 34.1987C56.9187 34.1992 56.9187 34.1997 56.9187 34.2002C56.9187 34.2007 56.9187 34.2012 56.9187 34.2017C56.9187 34.2021 56.9187 34.2026 56.9187 34.2031C56.9187 34.2036 56.9187 34.2041 56.9187 34.2046C56.9187 34.2051 56.9187 34.2056 56.9187 34.2061C56.9187 34.2065 56.9187 34.207 56.9187 34.2075C56.9187 34.208 56.9187 34.2085 56.9187 34.209C56.9187 34.2095 56.9187 34.21 56.9187 34.2104C56.9187 34.2109 56.9187 34.2114 56.9187 34.2119C56.9187 34.2124 56.9187 34.2129 56.9187 34.2134C56.9187 34.2139 56.9187 34.2144 56.9187 34.2148C56.9187 34.2153 56.9187 34.2158 56.9187 34.2163C56.9187 34.2168 56.9187 34.2173 56.9187 34.2178C56.9187 34.2183 56.9187 34.2188 56.9187 34.2192C56.9187 34.2197 56.9187 34.2202 56.9187 34.2207C56.9187 34.2212 56.9187 34.2217 56.9187 34.2222C56.9187 34.2227 56.9187 34.2231 56.9187 34.2236C56.9187 34.2241 56.9187 34.2246 56.9187 34.2251C56.9187 34.2256 56.9187 34.2261 56.9187 34.2266C56.9187 34.2271 56.9187 34.2275 56.9187 34.228C56.9187 34.2285 56.9187 34.229 56.9187 34.2295C56.9187 34.23 56.9187 34.2305 56.9187 34.231C56.9187 34.2314 56.9187 34.2319 56.9187 34.2324C56.9187 34.2329 56.9187 34.2334 56.9187 34.2339C56.9187 34.2344 56.9187 34.2349 56.9187 34.2354C56.9187 34.2358 56.9187 34.2363 56.9187 34.2368C56.9187 34.2373 56.9187 34.2378 56.9187 34.2383C56.9187 34.2388 56.9187 34.2393 56.9187 34.2397C56.9187 34.2402 56.9187 34.2407 56.9187 34.2412C56.9187 34.2417 56.9187 34.2422 56.9187 34.2427C56.9187 34.2432 56.9187 34.2437 56.9187 34.2441C56.9187 34.2446 56.9187 34.2451 56.9187 34.2456C56.9187 34.2461 56.9187 34.2466 56.9187 34.2471C56.9187 34.2476 56.9187 34.248 56.9187 34.2485C56.9187 34.249 56.9187 34.2495 56.9187 34.25C56.9187 34.2505 56.9187 34.251 56.9187 34.2515C56.9187 34.252 56.9187 34.2524 56.9187 34.2529C56.9187 34.2534 56.9187 34.2539 56.9187 34.2544C56.9187 34.2549 56.9187 34.2554 56.9187 34.2559C56.9187 34.2563 56.9187 34.2568 56.9187 34.2573C56.9187 34.2578 56.9187 34.2583 56.9187 34.2588C56.9187 34.2593 56.9187 34.2598 56.9187 34.2603C56.9187 34.2607 56.9187 34.2612 56.9187 34.2617C56.9187 34.2622 56.9187 34.2627 56.9187 34.2632C56.9187 34.2637 56.9187 34.2642 56.9187 34.2646C56.9187 34.2651 56.9187 34.2656 56.9187 34.2661C56.9187 34.2666 56.9187 34.2671 56.9187 34.2676C56.9187 34.2681 56.9187 34.2686 56.9187 34.269C56.9187 34.2695 56.9187 34.27 56.9187 34.2705C56.9187 34.271 56.9187 34.2715 56.9187 34.272C56.9187 34.2725 56.9187 34.2729 56.9187 34.2734C56.9187 34.2739 56.9187 34.2744 56.9187 34.2749C56.9187 34.2754 56.9187 34.2759 56.9187 34.2764C56.9187 34.2769 56.9187 34.2773 56.9187 34.2778C56.9187 34.2783 56.9187 34.2788 56.9187 34.2793C56.9187 34.2798 56.9187 34.2803 56.9187 34.2808C56.9187 34.2812 56.9187 34.2817 56.9187 34.2822C56.9187 34.2827 56.9187 34.2832 56.9187 34.2837C56.9187 34.2842 56.9187 34.2847 56.9187 34.2852C56.9187 34.2856 56.9187 34.2861 56.9187 34.2866C56.9187 34.2871 56.9187 34.2876 56.9187 34.2881C56.9187 34.2886 56.9187 34.2891 56.9187 34.2896C56.9187 34.29 56.9187 34.2905 56.9187 34.291C56.9187 34.2915 56.9187 34.292 56.9187 34.2925C56.9187 34.293 56.9187 34.2935 56.9187 34.2939C56.9187 34.2944 56.9187 34.2949 56.9187 34.2954C56.9187 34.2959 56.9187 34.2964 56.9187 34.2969C56.9187 34.2974 56.9187 34.2979 56.9187 34.2983C56.9187 34.2988 56.9187 34.2993 56.9187 34.2998C56.9187 34.3003 56.9187 34.3008 56.9187 34.3013C56.9187 34.3018 56.9187 34.3022 56.9187 34.3027C56.9187 34.3032 56.9187 34.3037 56.9187 34.3042C56.9187 34.3047 56.9187 34.3052 56.9187 34.3057C56.9187 34.3062 56.9187 34.3066 56.9187 34.3071C56.9187 34.3076 56.9187 34.3081 56.9187 34.3086C56.9187 34.3091 56.9187 34.3096 56.9187 34.3101C56.9187 34.3105 56.9187 34.311 56.9187 34.3115C56.9187 34.312 56.9187 34.3125 56.9187 34.313C56.9187 34.3135 56.9187 34.314 56.9187 34.3145C56.9187 34.3149 56.9187 34.3154 56.9187 34.3159C56.9187 34.3164 56.9187 34.3169 56.9187 34.3174C56.9187 34.3179 56.9187 34.3184 56.9187 34.3188C56.9187 34.3193 56.9187 34.3198 56.9187 34.3203C56.9187 34.3208 56.9187 34.3213 56.9187 34.3218C56.9187 34.3223 56.9187 34.3228 56.9187 34.3232C56.9187 34.3237 56.9187 34.3242 56.9187 34.3247C56.9187 34.3252 56.9187 34.3257 56.9187 34.3262C56.9187 34.3267 56.9187 34.3271 56.9187 34.3276C56.9187 34.3281 56.9187 34.3286 56.9187 34.3291C56.9187 34.3296 56.9187 34.3301 56.9187 34.3306C56.9187 34.3311 56.9187 34.3315 56.9187 34.332C56.9187 34.3325 56.9187 34.333 56.9187 34.3335C56.9187 34.334 56.9187 34.3345 56.9187 34.335C56.9187 34.3354 56.9187 34.3359 56.9187 34.3364C56.9187 34.3369 56.9187 34.3374 56.9187 34.3379C56.9187 34.3384 56.9187 34.3389 56.9187 34.3394C56.9187 34.3398 56.9187 34.3403 56.9187 34.3408C56.9187 34.3413 56.9187 34.3418 56.9187 34.3423C56.9187 34.3428 56.9187 34.3433 56.9187 34.3438H57.3187C57.3187 34.3433 57.3187 34.3428 57.3187 34.3423C57.3187 34.3418 57.3187 34.3413 57.3187 34.3408C57.3187 34.3403 57.3187 34.3398 57.3187 34.3394C57.3187 34.3389 57.3187 34.3384 57.3187 34.3379C57.3187 34.3374 57.3187 34.3369 57.3187 34.3364C57.3187 34.3359 57.3187 34.3354 57.3187 34.335C57.3187 34.3345 57.3187 34.334 57.3187 34.3335C57.3187 34.333 57.3187 34.3325 57.3187 34.332C57.3187 34.3315 57.3187 34.3311 57.3187 34.3306C57.3187 34.3301 57.3187 34.3296 57.3187 34.3291C57.3187 34.3286 57.3187 34.3281 57.3187 34.3276C57.3187 34.3271 57.3187 34.3267 57.3187 34.3262C57.3187 34.3257 57.3187 34.3252 57.3187 34.3247C57.3187 34.3242 57.3187 34.3237 57.3187 34.3232C57.3187 34.3228 57.3187 34.3223 57.3187 34.3218C57.3187 34.3213 57.3187 34.3208 57.3187 34.3203C57.3187 34.3198 57.3187 34.3193 57.3187 34.3188C57.3187 34.3184 57.3187 34.3179 57.3187 34.3174C57.3187 34.3169 57.3187 34.3164 57.3187 34.3159C57.3187 34.3154 57.3187 34.3149 57.3187 34.3145C57.3187 34.314 57.3187 34.3135 57.3187 34.313C57.3187 34.3125 57.3187 34.312 57.3187 34.3115C57.3187 34.311 57.3187 34.3105 57.3187 34.3101C57.3187 34.3096 57.3187 34.3091 57.3187 34.3086C57.3187 34.3081 57.3187 34.3076 57.3187 34.3071C57.3187 34.3066 57.3187 34.3062 57.3187 34.3057C57.3187 34.3052 57.3187 34.3047 57.3187 34.3042C57.3187 34.3037 57.3187 34.3032 57.3187 34.3027C57.3187 34.3022 57.3187 34.3018 57.3187 34.3013C57.3187 34.3008 57.3187 34.3003 57.3187 34.2998C57.3187 34.2993 57.3187 34.2988 57.3187 34.2983C57.3187 34.2979 57.3187 34.2974 57.3187 34.2969C57.3187 34.2964 57.3187 34.2959 57.3187 34.2954C57.3187 34.2949 57.3187 34.2944 57.3187 34.2939C57.3187 34.2935 57.3187 34.293 57.3187 34.2925C57.3187 34.292 57.3187 34.2915 57.3187 34.291C57.3187 34.2905 57.3187 34.29 57.3187 34.2896C57.3187 34.2891 57.3187 34.2886 57.3187 34.2881C57.3187 34.2876 57.3187 34.2871 57.3187 34.2866C57.3187 34.2861 57.3187 34.2856 57.3187 34.2852C57.3187 34.2847 57.3187 34.2842 57.3187 34.2837C57.3187 34.2832 57.3187 34.2827 57.3187 34.2822C57.3187 34.2817 57.3187 34.2812 57.3187 34.2808C57.3187 34.2803 57.3187 34.2798 57.3187 34.2793C57.3187 34.2788 57.3187 34.2783 57.3187 34.2778C57.3187 34.2773 57.3187 34.2769 57.3187 34.2764C57.3187 34.2759 57.3187 34.2754 57.3187 34.2749C57.3187 34.2744 57.3187 34.2739 57.3187 34.2734C57.3187 34.2729 57.3187 34.2725 57.3187 34.272C57.3187 34.2715 57.3187 34.271 57.3187 34.2705C57.3187 34.27 57.3187 34.2695 57.3187 34.269C57.3187 34.2686 57.3187 34.2681 57.3187 34.2676C57.3187 34.2671 57.3187 34.2666 57.3187 34.2661C57.3187 34.2656 57.3187 34.2651 57.3187 34.2646C57.3187 34.2642 57.3187 34.2637 57.3187 34.2632C57.3187 34.2627 57.3187 34.2622 57.3187 34.2617C57.3187 34.2612 57.3187 34.2607 57.3187 34.2603C57.3187 34.2598 57.3187 34.2593 57.3187 34.2588C57.3187 34.2583 57.3187 34.2578 57.3187 34.2573C57.3187 34.2568 57.3187 34.2563 57.3187 34.2559C57.3187 34.2554 57.3187 34.2549 57.3187 34.2544C57.3187 34.2539 57.3187 34.2534 57.3187 34.2529C57.3187 34.2524 57.3187 34.252 57.3187 34.2515C57.3187 34.251 57.3187 34.2505 57.3187 34.25C57.3187 34.2495 57.3187 34.249 57.3187 34.2485C57.3187 34.248 57.3187 34.2476 57.3187 34.2471C57.3187 34.2466 57.3187 34.2461 57.3187 34.2456C57.3187 34.2451 57.3187 34.2446 57.3187 34.2441C57.3187 34.2437 57.3187 34.2432 57.3187 34.2427C57.3187 34.2422 57.3187 34.2417 57.3187 34.2412C57.3187 34.2407 57.3187 34.2402 57.3187 34.2397C57.3187 34.2393 57.3187 34.2388 57.3187 34.2383C57.3187 34.2378 57.3187 34.2373 57.3187 34.2368C57.3187 34.2363 57.3187 34.2358 57.3187 34.2354C57.3187 34.2349 57.3187 34.2344 57.3187 34.2339C57.3187 34.2334 57.3187 34.2329 57.3187 34.2324C57.3187 34.2319 57.3187 34.2314 57.3187 34.231C57.3187 34.2305 57.3187 34.23 57.3187 34.2295C57.3187 34.229 57.3187 34.2285 57.3187 34.228C57.3187 34.2275 57.3187 34.2271 57.3187 34.2266C57.3187 34.2261 57.3187 34.2256 57.3187 34.2251C57.3187 34.2246 57.3187 34.2241 57.3187 34.2236C57.3187 34.2231 57.3187 34.2227 57.3187 34.2222C57.3187 34.2217 57.3187 34.2212 57.3187 34.2207C57.3187 34.2202 57.3187 34.2197 57.3187 34.2192C57.3187 34.2188 57.3187 34.2183 57.3187 34.2178C57.3187 34.2173 57.3187 34.2168 57.3187 34.2163C57.3187 34.2158 57.3187 34.2153 57.3187 34.2148C57.3187 34.2144 57.3187 34.2139 57.3187 34.2134C57.3187 34.2129 57.3187 34.2124 57.3187 34.2119C57.3187 34.2114 57.3187 34.2109 57.3187 34.2104C57.3187 34.21 57.3187 34.2095 57.3187 34.209C57.3187 34.2085 57.3187 34.208 57.3187 34.2075C57.3187 34.207 57.3187 34.2065 57.3187 34.2061C57.3187 34.2056 57.3187 34.2051 57.3187 34.2046C57.3187 34.2041 57.3187 34.2036 57.3187 34.2031C57.3187 34.2026 57.3187 34.2021 57.3187 34.2017C57.3187 34.2012 57.3187 34.2007 57.3187 34.2002C57.3187 34.1997 57.3187 34.1992 57.3187 34.1987C57.3187 34.1982 57.3187 34.1978 57.3187 34.1973C57.3187 34.1968 57.3187 34.1963 57.3187 34.1958C57.3187 34.1953 57.3187 34.1948 57.3187 34.1943C57.3187 34.1938 57.3187 34.1934 57.3187 34.1929C57.3187 34.1924 57.3187 34.1919 57.3187 34.1914C57.3187 34.1909 57.3187 34.1904 57.3187 34.1899C57.3187 34.1895 57.3187 34.189 57.3187 34.1885C57.3187 34.188 57.3187 34.1875 57.3187 34.187C57.3187 34.1865 57.3187 34.186 57.3187 34.1855C57.3187 34.1851 57.3187 34.1846 57.3187 34.1841C57.3187 34.1836 57.3187 34.1831 57.3187 34.1826C57.3187 34.1821 57.3187 34.1816 57.3187 34.1812C57.3187 34.1807 57.3187 34.1802 57.3187 34.1797C57.3187 34.1792 57.3187 34.1787 57.3187 34.1782C57.3187 34.1777 57.3187 34.1772 57.3187 34.1768C57.3187 34.1763 57.3187 34.1758 57.3187 34.1753C57.3187 34.1748 57.3187 34.1743 57.3187 34.1738C57.3187 34.1733 57.3187 34.1729 57.3187 34.1724C57.3187 34.1719 57.3187 34.1714 57.3187 34.1709C57.3187 34.1704 57.3187 34.1699 57.3187 34.1694C57.3187 34.1689 57.3187 34.1685 57.3187 34.168C57.3187 34.1675 57.3187 34.167 57.3187 34.1665C57.3187 34.166 57.3187 34.1655 57.3187 34.165C57.3187 34.1646 57.3187 34.1641 57.3187 34.1636C57.3187 34.1631 57.3187 34.1626 57.3187 34.1621C57.3187 34.1616 57.3187 34.1611 57.3187 34.1606C57.3187 34.1602 57.3187 34.1597 57.3187 34.1592C57.3187 34.1587 57.3187 34.1582 57.3187 34.1577C57.3187 34.1572 57.3187 34.1567 57.3187 34.1562C57.3187 34.1558 57.3187 34.1553 57.3187 34.1548C57.3187 34.1543 57.3187 34.1538 57.3187 34.1533C57.3187 34.1528 57.3187 34.1523 57.3187 34.1519C57.3187 34.1514 57.3187 34.1509 57.3187 34.1504C57.3187 34.1499 57.3187 34.1494 57.3187 34.1489C57.3187 34.1484 57.3187 34.1479 57.3187 34.1475C57.3187 34.147 57.3187 34.1465 57.3187 34.146C57.3187 34.1455 57.3187 34.145 57.3187 34.1445C57.3187 34.144 57.3187 34.1436 57.3187 34.1431C57.3187 34.1426 57.3187 34.1421 57.3187 34.1416C57.3187 34.1411 57.3187 34.1406 57.3187 34.1401C57.3187 34.1396 57.3187 34.1392 57.3187 34.1387C57.3187 34.1382 57.3187 34.1377 57.3187 34.1372C57.3187 34.1367 57.3187 34.1362 57.3187 34.1357C57.3187 34.1353 57.3187 34.1348 57.3187 34.1343C57.3187 34.1338 57.3187 34.1333 57.3187 34.1328C57.3187 34.1323 57.3187 34.1318 57.3187 34.1313C57.3187 34.1309 57.3187 34.1304 57.3187 34.1299C57.3187 34.1294 57.3187 34.1289 57.3187 34.1284C57.3187 34.1279 57.3187 34.1274 57.3187 34.127C57.3187 34.1265 57.3187 34.126 57.3187 34.1255C57.3187 34.125 57.3187 34.1245 57.3187 34.124C57.3187 34.1235 57.3187 34.123 57.3187 34.1226C57.3187 34.1221 57.3187 34.1216 57.3187 34.1211C57.3187 34.1206 57.3187 34.1201 57.3187 34.1196C57.3187 34.1191 57.3187 34.1187 57.3187 34.1182C57.3187 34.1177 57.3187 34.1172 57.3187 34.1167C57.3187 34.1162 57.3187 34.1157 57.3187 34.1152C57.3187 34.1147 57.3187 34.1143 57.3187 34.1138C57.3187 34.1133 57.3187 34.1128 57.3187 34.1123C57.3187 34.1118 57.3187 34.1113 57.3187 34.1108C57.3187 34.1104 57.3187 34.1099 57.3187 34.1094C57.3187 34.1089 57.3187 34.1084 57.3187 34.1079C57.3187 34.1074 57.3187 34.1069 57.3187 34.1064C57.3187 34.106 57.3187 34.1055 57.3187 34.105C57.3187 34.1045 57.3187 34.104 57.3187 34.1035C57.3187 34.103 57.3187 34.1025 57.3187 34.1021C57.3187 34.1016 57.3187 34.1011 57.3187 34.1006C57.3187 34.1001 57.3187 34.0996 57.3187 34.0991C57.3187 34.0986 57.3187 34.0981 57.3187 34.0977C57.3187 34.0972 57.3187 34.0967 57.3187 34.0962C57.3187 34.0957 57.3187 34.0952 57.3187 34.0947C57.3187 34.0942 57.3187 34.0938 57.3187 34.0933C57.3187 34.0928 57.3187 34.0923 57.3187 34.0918C57.3187 34.0913 57.3187 34.0908 57.3187 34.0903C57.3187 34.0898 57.3187 34.0894 57.3187 34.0889C57.3187 34.0884 57.3187 34.0879 57.3187 34.0874C57.3187 34.0869 57.3187 34.0864 57.3187 34.0859C57.3187 34.0854 57.3187 34.085 57.3187 34.0845C57.3187 34.084 57.3187 34.0835 57.3187 34.083C57.3187 34.0825 57.3187 34.082 57.3187 34.0815C57.3187 34.0811 57.3187 34.0806 57.3187 34.0801C57.3187 34.0796 57.3187 34.0791 57.3187 34.0786C57.3187 34.0781 57.3187 34.0776 57.3187 34.0771C57.3187 34.0767 57.3187 34.0762 57.3187 34.0757C57.3187 34.0752 57.3187 34.0747 57.3187 34.0742C57.3187 34.0737 57.3187 34.0732 57.3187 34.0728C57.3187 34.0723 57.3187 34.0718 57.3187 34.0713C57.3187 34.0708 57.3187 34.0703 57.3187 34.0698C57.3187 34.0693 57.3187 34.0688 57.3187 34.0684C57.3187 34.0679 57.3187 34.0674 57.3187 34.0669C57.3187 34.0664 57.3187 34.0659 57.3187 34.0654C57.3187 34.0649 57.3187 34.0645 57.3187 34.064C57.3187 34.0635 57.3187 34.063 57.3187 34.0625C57.3187 34.062 57.3187 34.0615 57.3187 34.061C57.3187 34.0605 57.3187 34.0601 57.3187 34.0596C57.3187 34.0591 57.3187 34.0586 57.3187 34.0581C57.3187 34.0576 57.3187 34.0571 57.3187 34.0566C57.3187 34.0562 57.3187 34.0557 57.3187 34.0552C57.3187 34.0547 57.3187 34.0542 57.3187 34.0537C57.3187 34.0532 57.3187 34.0527 57.3187 34.0522C57.3187 34.0518 57.3187 34.0513 57.3187 34.0508C57.3187 34.0503 57.3187 34.0498 57.3187 34.0493C57.3187 34.0488 57.3187 34.0483 57.3187 34.0479C57.3187 34.0474 57.3187 34.0469 57.3187 34.0464C57.3187 34.0459 57.3187 34.0454 57.3187 34.0449C57.3187 34.0444 57.3187 34.0439 57.3187 34.0435C57.3187 34.043 57.3187 34.0425 57.3187 34.042C57.3187 34.0415 57.3187 34.041 57.3187 34.0405C57.3187 34.04 57.3187 34.0396 57.3187 34.0391C57.3187 34.0386 57.3187 34.0381 57.3187 34.0376C57.3187 34.0371 57.3187 34.0366 57.3187 34.0361C57.3187 34.0356 57.3187 34.0352 57.3187 34.0347C57.3187 34.0342 57.3187 34.0337 57.3187 34.0332C57.3187 34.0327 57.3187 34.0322 57.3187 34.0317C57.3187 34.0312 57.3187 34.0308 57.3187 34.0303C57.3187 34.0298 57.3187 34.0293 57.3187 34.0288C57.3187 34.0283 57.3187 34.0278 57.3187 34.0273C57.3187 34.0269 57.3187 34.0264 57.3187 34.0259C57.3187 34.0254 57.3187 34.0249 57.3187 34.0244C57.3187 34.0239 57.3187 34.0234 57.3187 34.0229C57.3187 34.0225 57.3187 34.022 57.3187 34.0215C57.3187 34.021 57.3187 34.0205 57.3187 34.02C57.3187 34.0195 57.3187 34.019 57.3187 34.0186C57.3187 34.0181 57.3187 34.0176 57.3187 34.0171C57.3187 34.0166 57.3187 34.0161 57.3187 34.0156C57.3187 34.0151 57.3187 34.0146 57.3187 34.0142C57.3187 34.0137 57.3187 34.0132 57.3187 34.0127C57.3187 34.0122 57.3187 34.0117 57.3187 34.0112C57.3187 34.0107 57.3187 34.0103 57.3187 34.0098C57.3187 34.0093 57.3187 34.0088 57.3187 34.0083C57.3187 34.0078 57.3187 34.0073 57.3187 34.0068C57.3187 34.0063 57.3187 34.0059 57.3187 34.0054C57.3187 34.0049 57.3187 34.0044 57.3187 34.0039C57.3187 34.0034 57.3187 34.0029 57.3187 34.0024C57.3187 34.002 57.3187 34.0015 57.3187 34.001C57.3187 34.0005 57.3187 34 57.3187 33.9995C57.3187 33.999 57.3187 33.9985 57.3187 33.998C57.3187 33.9976 57.3187 33.9971 57.3187 33.9966C57.3187 33.9961 57.3187 33.9956 57.3187 33.9951C57.3187 33.9946 57.3187 33.9941 57.3187 33.9937C57.3187 33.9932 57.3187 33.9927 57.3187 33.9922C57.3187 33.9917 57.3187 33.9912 57.3187 33.9907C57.3187 33.9902 57.3187 33.9897 57.3187 33.9893C57.3187 33.9888 57.3187 33.9883 57.3187 33.9878C57.3187 33.9873 57.3187 33.9868 57.3187 33.9863C57.3187 33.9858 57.3187 33.9854 57.3187 33.9849C57.3187 33.9844 57.3187 33.9839 57.3187 33.9834C57.3187 33.9829 57.3187 33.9824 57.3187 33.9819C57.3187 33.9814 57.3187 33.981 57.3187 33.9805C57.3187 33.98 57.3187 33.9795 57.3187 33.979C57.3187 33.9785 57.3187 33.978 57.3187 33.9775C57.3187 33.9771 57.3187 33.9766 57.3187 33.9761C57.3187 33.9756 57.3187 33.9751 57.3187 33.9746C57.3187 33.9741 57.3187 33.9736 57.3187 33.9731C57.3187 33.9727 57.3187 33.9722 57.3187 33.9717C57.3187 33.9712 57.3187 33.9707 57.3187 33.9702C57.3187 33.9697 57.3187 33.9692 57.3187 33.9688C57.3187 33.9683 57.3187 33.9678 57.3187 33.9673C57.3187 33.9668 57.3187 33.9663 57.3187 33.9658C57.3187 33.9653 57.3187 33.9648 57.3187 33.9644C57.3187 33.9639 57.3187 33.9634 57.3187 33.9629C57.3187 33.9624 57.3187 33.9619 57.3187 33.9614C57.3187 33.9609 57.3187 33.9604 57.3187 33.96C57.3187 33.9595 57.3187 33.959 57.3187 33.9585C57.3187 33.958 57.3187 33.9575 57.3187 33.957C57.3187 33.9565 57.3187 33.9561 57.3187 33.9556C57.3187 33.9551 57.3187 33.9546 57.3187 33.9541C57.3187 33.9536 57.3187 33.9531 57.3187 33.9526C57.3187 33.9521 57.3187 33.9517 57.3187 33.9512C57.3187 33.9507 57.3187 33.9502 57.3187 33.9497C57.3187 33.9492 57.3187 33.9487 57.3187 33.9482C57.3187 33.9478 57.3187 33.9473 57.3187 33.9468C57.3187 33.9463 57.3187 33.9458 57.3187 33.9453C57.3187 33.9448 57.3187 33.9443 57.3187 33.9438C57.3187 33.9434 57.3187 33.9429 57.3187 33.9424C57.3187 33.9419 57.3187 33.9414 57.3187 33.9409C57.3187 33.9404 57.3187 33.9399 57.3187 33.9395C57.3187 33.939 57.3187 33.9385 57.3187 33.938C57.3187 33.9375 57.3187 33.937 57.3187 33.9365C57.3187 33.936 57.3187 33.9355 57.3187 33.9351C57.3187 33.9346 57.3187 33.9341 57.3187 33.9336C57.3187 33.9331 57.3187 33.9326 57.3187 33.9321C57.3187 33.9316 57.3187 33.9312 57.3187 33.9307C57.3187 33.9302 57.3187 33.9297 57.3187 33.9292C57.3187 33.9287 57.3187 33.9282 57.3187 33.9277C57.3187 33.9272 57.3187 33.9268 57.3187 33.9263C57.3187 33.9258 57.3187 33.9253 57.3187 33.9248C57.3187 33.9243 57.3187 33.9238 57.3187 33.9233C57.3187 33.9229 57.3187 33.9224 57.3187 33.9219C57.3187 33.9214 57.3187 33.9209 57.3187 33.9204C57.3187 33.9199 57.3187 33.9194 57.3187 33.9189C57.3187 33.9185 57.3187 33.918 57.3187 33.9175C57.3187 33.917 57.3187 33.9165 57.3187 33.916C57.3187 33.9155 57.3187 33.915 57.3187 33.9146C57.3187 33.9141 57.3187 33.9136 57.3187 33.9131C57.3187 33.9126 57.3187 33.9121 57.3187 33.9116C57.3187 33.9111 57.3187 33.9106 57.3187 33.9102C57.3187 33.9097 57.3187 33.9092 57.3187 33.9087C57.3187 33.9082 57.3187 33.9077 57.3187 33.9072C57.3187 33.9067 57.3187 33.9062 57.3187 33.9058C57.3187 33.9053 57.3187 33.9048 57.3187 33.9043C57.3187 33.9038 57.3187 33.9033 57.3187 33.9028C57.3187 33.9023 57.3187 33.9019 57.3187 33.9014C57.3187 33.9009 57.3187 33.9004 57.3187 33.8999C57.3187 33.8994 57.3187 33.8989 57.3187 33.8984C57.3187 33.8979 57.3187 33.8975 57.3187 33.897C57.3187 33.8965 57.3187 33.896 57.3187 33.8955C57.3187 33.895 57.3187 33.8945 57.3187 33.894C57.3187 33.8936 57.3187 33.8931 57.3187 33.8926C57.3187 33.8921 57.3187 33.8916 57.3187 33.8911C57.3187 33.8906 57.3187 33.8901 57.3187 33.8896C57.3187 33.8892 57.3187 33.8887 57.3187 33.8882C57.3187 33.8877 57.3187 33.8872 57.3187 33.8867C57.3187 33.8862 57.3187 33.8857 57.3187 33.8853C57.3187 33.8848 57.3187 33.8843 57.3187 33.8838C57.3187 33.8833 57.3187 33.8828 57.3187 33.8823C57.3187 33.8818 57.3187 33.8813 57.3187 33.8809C57.3187 33.8804 57.3187 33.8799 57.3187 33.8794C57.3187 33.8789 57.3187 33.8784 57.3187 33.8779C57.3187 33.8774 57.3187 33.877 57.3187 33.8765C57.3187 33.876 57.3187 33.8755 57.3187 33.875C57.3187 33.8745 57.3187 33.874 57.3187 33.8735C57.3187 33.873 57.3187 33.8726 57.3187 33.8721C57.3187 33.8716 57.3187 33.8711 57.3187 33.8706C57.3187 33.8701 57.3187 33.8696 57.3187 33.8691C57.3187 33.8687 57.3187 33.8682 57.3187 33.8677C57.3187 33.8672 57.3187 33.8667 57.3187 33.8662C57.3187 33.8657 57.3187 33.8652 57.3187 33.8647C57.3187 33.8643 57.3187 33.8638 57.3187 33.8633C57.3187 33.8628 57.3187 33.8623 57.3187 33.8618C57.3187 33.8613 57.3187 33.8608 57.3187 33.8604C57.3187 33.8599 57.3187 33.8594 57.3187 33.8589C57.3187 33.8584 57.3187 33.8579 57.3187 33.8574C57.3187 33.8569 57.3187 33.8564 57.3187 33.856C57.3187 33.8555 57.3187 33.855 57.3187 33.8545C57.3187 33.854 57.3187 33.8535 57.3187 33.853C57.3187 33.8525 57.3187 33.8521 57.3187 33.8516C57.3187 33.8511 57.3187 33.8506 57.3187 33.8501C57.3187 33.8496 57.3187 33.8491 57.3187 33.8486C57.3187 33.8481 57.3187 33.8477 57.3187 33.8472C57.3187 33.8467 57.3187 33.8462 57.3187 33.8457C57.3187 33.8452 57.3187 33.8447 57.3187 33.8442C57.3187 33.8438 57.3187 33.8433 57.3187 33.8428C57.3187 33.8423 57.3187 33.8418 57.3187 33.8413C57.3187 33.8408 57.3187 33.8403 57.3187 33.8398C57.3187 33.8394 57.3187 33.8389 57.3187 33.8384C57.3187 33.8379 57.3187 33.8374 57.3187 33.8369C57.3187 33.8364 57.3187 33.8359 57.3187 33.8354C57.3187 33.835 57.3187 33.8345 57.3187 33.834C57.3187 33.8335 57.3187 33.833 57.3187 33.8325C57.3187 33.832 57.3187 33.8315 57.3187 33.8311C57.3187 33.8306 57.3187 33.8301 57.3187 33.8296C57.3187 33.8291 57.3187 33.8286 57.3187 33.8281C57.3187 33.8276 57.3187 33.8271 57.3187 33.8267C57.3187 33.8262 57.3187 33.8257 57.3187 33.8252C57.3187 33.8247 57.3187 33.8242 57.3187 33.8237C57.3187 33.8232 57.3187 33.8228 57.3187 33.8223C57.3187 33.8218 57.3187 33.8213 57.3187 33.8208C57.3187 33.8203 57.3187 33.8198 57.3187 33.8193C57.3187 33.8188 57.3187 33.8184 57.3187 33.8179C57.3187 33.8174 57.3187 33.8169 57.3187 33.8164C57.3187 33.8159 57.3187 33.8154 57.3187 33.8149C57.3187 33.8145 57.3187 33.814 57.3187 33.8135C57.3187 33.813 57.3187 33.8125 57.3187 33.812C57.3187 33.8115 57.3187 33.811 57.3187 33.8105C57.3187 33.8101 57.3187 33.8096 57.3187 33.8091C57.3187 33.8086 57.3187 33.8081 57.3187 33.8076C57.3187 33.8071 57.3187 33.8066 57.3187 33.8062C57.3187 33.8057 57.3187 33.8052 57.3187 33.8047C57.3187 33.8042 57.3187 33.8037 57.3187 33.8032C57.3187 33.8027 57.3187 33.8022 57.3187 33.8018C57.3187 33.8013 57.3187 33.8008 57.3187 33.8003C57.3187 33.7998 57.3187 33.7993 57.3187 33.7988C57.3187 33.7983 57.3187 33.7979 57.3187 33.7974C57.3187 33.7969 57.3187 33.7964 57.3187 33.7959C57.3187 33.7954 57.3187 33.7949 57.3187 33.7944C57.3187 33.7939 57.3187 33.7935 57.3187 33.793C57.3187 33.7925 57.3187 33.792 57.3187 33.7915C57.3187 33.791 57.3187 33.7905 57.3187 33.79C57.3187 33.7896 57.3187 33.7891 57.3187 33.7886C57.3187 33.7881 57.3187 33.7876 57.3187 33.7871C57.3187 33.7866 57.3187 33.7861 57.3187 33.7856C57.3187 33.7852 57.3187 33.7847 57.3187 33.7842C57.3187 33.7837 57.3187 33.7832 57.3187 33.7827C57.3187 33.7822 57.3187 33.7817 57.3187 33.7812C57.3187 33.7808 57.3187 33.7803 57.3187 33.7798C57.3187 33.7793 57.3187 33.7788 57.3187 33.7783C57.3187 33.7778 57.3187 33.7773 57.3187 33.7769C57.3187 33.7764 57.3187 33.7759 57.3187 33.7754C57.3187 33.7749 57.3187 33.7744 57.3187 33.7739C57.3187 33.7734 57.3187 33.7729 57.3187 33.7725C57.3187 33.772 57.3187 33.7715 57.3187 33.771C57.3187 33.7705 57.3187 33.77 57.3187 33.7695C57.3187 33.769 57.3187 33.7686 57.3187 33.7681C57.3187 33.7676 57.3187 33.7671 57.3187 33.7666C57.3187 33.7661 57.3187 33.7656 57.3187 33.7651C57.3187 33.7646 57.3187 33.7642 57.3187 33.7637C57.3187 33.7632 57.3187 33.7627 57.3187 33.7622C57.3187 33.7617 57.3187 33.7612 57.3187 33.7607C57.3187 33.7603 57.3187 33.7598 57.3187 33.7593C57.3187 33.7588 57.3187 33.7583 57.3187 33.7578C57.3187 33.7573 57.3187 33.7568 57.3187 33.7563C57.3187 33.7559 57.3187 33.7554 57.3187 33.7549C57.3187 33.7544 57.3187 33.7539 57.3187 33.7534C57.3187 33.7529 57.3187 33.7524 57.3187 33.752C57.3187 33.7515 57.3187 33.751 57.3187 33.7505C57.3187 33.75 57.3187 33.7495 57.3187 33.749C57.3187 33.7485 57.3187 33.748 57.3187 33.7476C57.3187 33.7471 57.3187 33.7466 57.3187 33.7461C57.3187 33.7456 57.3187 33.7451 57.3187 33.7446C57.3187 33.7441 57.3187 33.7437 57.3187 33.7432C57.3187 33.7427 57.3187 33.7422 57.3187 33.7417C57.3187 33.7412 57.3187 33.7407 57.3187 33.7402C57.3187 33.7397 57.3187 33.7393 57.3187 33.7388C57.3187 33.7383 57.3187 33.7378 57.3187 33.7373C57.3187 33.7368 57.3187 33.7363 57.3187 33.7358C57.3187 33.7354 57.3187 33.7349 57.3187 33.7344C57.3187 33.7339 57.3187 33.7334 57.3187 33.7329C57.3187 33.7324 57.3187 33.7319 57.3187 33.7314C57.3187 33.731 57.3187 33.7305 57.3187 33.73C57.3187 33.7295 57.3187 33.729 57.3187 33.7285C57.3187 33.728 57.3187 33.7275 57.3187 33.7271C57.3187 33.7266 57.3187 33.7261 57.3187 33.7256C57.3187 33.7251 57.3187 33.7246 57.3187 33.7241C57.3187 33.7236 57.3187 33.7231 57.3187 33.7227C57.3187 33.7222 57.3187 33.7217 57.3187 33.7212C57.3187 33.7207 57.3187 33.7202 57.3187 33.7197C57.3187 33.7192 57.3187 33.7188 57.3187 33.7183C57.3187 33.7178 57.3187 33.7173 57.3187 33.7168C57.3187 33.7163 57.3187 33.7158 57.3187 33.7153C57.3187 33.7148 57.3187 33.7144 57.3187 33.7139C57.3187 33.7134 57.3187 33.7129 57.3187 33.7124C57.3187 33.7119 57.3187 33.7114 57.3187 33.7109C57.3187 33.7104 57.3187 33.71 57.3187 33.7095C57.3187 33.709 57.3187 33.7085 57.3187 33.708C57.3187 33.7075 57.3187 33.707 57.3187 33.7065C57.3187 33.7061 57.3187 33.7056 57.3187 33.7051C57.3187 33.7046 57.3187 33.7041 57.3187 33.7036C57.3187 33.7031 57.3187 33.7026 57.3187 33.7021C57.3187 33.7017 57.3187 33.7012 57.3187 33.7007C57.3187 33.7002 57.3187 33.6997 57.3187 33.6992C57.3187 33.6987 57.3187 33.6982 57.3187 33.6978C57.3187 33.6973 57.3187 33.6968 57.3187 33.6963C57.3187 33.6958 57.3187 33.6953 57.3187 33.6948C57.3187 33.6943 57.3187 33.6938 57.3187 33.6934C57.3187 33.6929 57.3187 33.6924 57.3187 33.6919C57.3187 33.6914 57.3187 33.6909 57.3187 33.6904C57.3187 33.6899 57.3187 33.6895 57.3187 33.689C57.3187 33.6885 57.3187 33.688 57.3187 33.6875C57.3187 33.687 57.3187 33.6865 57.3187 33.686C57.3187 33.6855 57.3187 33.6851 57.3187 33.6846C57.3187 33.6841 57.3187 33.6836 57.3187 33.6831C57.3187 33.6826 57.3187 33.6821 57.3187 33.6816C57.3187 33.6812 57.3187 33.6807 57.3187 33.6802C57.3187 33.6797 57.3187 33.6792 57.3187 33.6787C57.3187 33.6782 57.3187 33.6777 57.3187 33.6772C57.3187 33.6768 57.3187 33.6763 57.3187 33.6758C57.3187 33.6753 57.3187 33.6748 57.3187 33.6743C57.3187 33.6738 57.3187 33.6733 57.3187 33.6729C57.3187 33.6724 57.3187 33.6719 57.3187 33.6714C57.3187 33.6709 57.3187 33.6704 57.3187 33.6699C57.3187 33.6694 57.3187 33.6689 57.3187 33.6685C57.3187 33.668 57.3187 33.6675 57.3187 33.667C57.3187 33.6665 57.3187 33.666 57.3187 33.6655C57.3187 33.665 57.3187 33.6646 57.3187 33.6641C57.3187 33.6636 57.3187 33.6631 57.3187 33.6626C57.3187 33.6621 57.3187 33.6616 57.3187 33.6611C57.3187 33.6606 57.3187 33.6602 57.3187 33.6597C57.3187 33.6592 57.3187 33.6587 57.3187 33.6582C57.3187 33.6577 57.3187 33.6572 57.3187 33.6567C57.3187 33.6562 57.3187 33.6558 57.3187 33.6553C57.3187 33.6548 57.3187 33.6543 57.3187 33.6538C57.3187 33.6533 57.3187 33.6528 57.3187 33.6523C57.3187 33.6519 57.3187 33.6514 57.3187 33.6509C57.3187 33.6504 57.3187 33.6499 57.3187 33.6494C57.3187 33.6489 57.3187 33.6484 57.3187 33.6479C57.3187 33.6475 57.3187 33.647 57.3187 33.6465C57.3187 33.646 57.3187 33.6455 57.3187 33.645C57.3187 33.6445 57.3187 33.644 57.3187 33.6436C57.3187 33.6431 57.3187 33.6426 57.3187 33.6421C57.3187 33.6416 57.3187 33.6411 57.3187 33.6406C57.3187 33.6401 57.3187 33.6396 57.3187 33.6392C57.3187 33.6387 57.3187 33.6382 57.3187 33.6377C57.3187 33.6372 57.3187 33.6367 57.3187 33.6362C57.3187 33.6357 57.3187 33.6353 57.3187 33.6348C57.3187 33.6343 57.3187 33.6338 57.3187 33.6333C57.3187 33.6328 57.3187 33.6323 57.3187 33.6318C57.3187 33.6313 57.3187 33.6309 57.3187 33.6304C57.3187 33.6299 57.3187 33.6294 57.3187 33.6289C57.3187 33.6284 57.3187 33.6279 57.3187 33.6274C57.3187 33.627 57.3187 33.6265 57.3187 33.626C57.3187 33.6255 57.3187 33.625 57.3187 33.6245C57.3187 33.624 57.3187 33.6235 57.3187 33.623C57.3187 33.6226 57.3187 33.6221 57.3187 33.6216C57.3187 33.6211 57.3187 33.6206 57.3187 33.6201C57.3187 33.6196 57.3187 33.6191 57.3187 33.6187C57.3187 33.6182 57.3187 33.6177 57.3187 33.6172C57.3187 33.6167 57.3187 33.6162 57.3187 33.6157C57.3187 33.6152 57.3187 33.6147 57.3187 33.6143C57.3187 33.6138 57.3187 33.6133 57.3187 33.6128C57.3187 33.6123 57.3187 33.6118 57.3187 33.6113C57.3187 33.6108 57.3187 33.6104 57.3187 33.6099C57.3187 33.6094 57.3187 33.6089 57.3187 33.6084C57.3187 33.6079 57.3187 33.6074 57.3187 33.6069C57.3187 33.6064 57.3187 33.606 57.3187 33.6055C57.3187 33.605 57.3187 33.6045 57.3187 33.604C57.3187 33.6035 57.3187 33.603 57.3187 33.6025C57.3187 33.6021 57.3187 33.6016 57.3187 33.6011C57.3187 33.6006 57.3187 33.6001 57.3187 33.5996C57.3187 33.5991 57.3187 33.5986 57.3187 33.5981C57.3187 33.5977 57.3187 33.5972 57.3187 33.5967C57.3187 33.5962 57.3187 33.5957 57.3187 33.5952C57.3187 33.5947 57.3187 33.5942 57.3187 33.5938H56.9187ZM56.9187 34.3438C56.9187 34.6962 56.8601 35.0144 56.7456 35.3007L57.1169 35.4493C57.2524 35.1106 57.3187 34.7413 57.3187 34.3438H56.9187ZM56.7456 35.3007C56.6638 35.5052 56.4635 35.6437 56.025 35.6437V36.0438C56.5448 36.0438 56.9487 35.8698 57.1169 35.4493L56.7456 35.3007ZM56.025 35.6437C55.8756 35.6437 55.6083 35.6149 55.2124 35.5524L55.1501 35.9476C55.5459 36.0101 55.841 36.0438 56.025 36.0438V35.6437ZM55.2141 35.5527C54.8485 35.4918 54.4609 35.4001 54.0512 35.2772L53.9363 35.6603C54.3599 35.7874 54.764 35.8832 55.1484 35.9473L55.2141 35.5527ZM54.054 35.278C53.6679 35.1561 53.3254 35.0148 53.0254 34.8548L52.8371 35.2077C53.1621 35.3811 53.5279 35.5314 53.9335 35.6595L54.054 35.278ZM53.0341 34.8598C52.7444 34.6859 52.6625 34.5304 52.6625 34.4062H52.2625C52.2625 34.7404 52.493 35.0016 52.8284 35.2027L53.0341 34.8598ZM52.6625 34.4062C52.6625 34.3833 52.6699 34.3135 52.6912 34.18C52.7116 34.0526 52.7425 33.8804 52.784 33.6624L52.391 33.5876C52.3492 33.8071 52.3175 33.9838 52.2963 34.1168C52.276 34.2438 52.2625 34.3458 52.2625 34.4062H52.6625ZM52.7821 33.6713C52.886 33.2346 53.0004 32.7666 53.1253 32.2673L52.7372 32.1702C52.6121 32.6709 52.4973 33.1404 52.3929 33.5787L52.7821 33.6713ZM53.1257 32.2654C53.2506 31.7451 53.365 31.2769 53.469 30.861L53.081 30.764C52.9766 31.1814 52.8619 31.6508 52.7368 32.1721L53.1257 32.2654ZM53.4696 30.8588C53.5213 30.6415 53.5645 30.4769 53.5991 30.3629C53.6166 30.3056 53.6308 30.2646 53.6419 30.2376C53.6474 30.224 53.651 30.2168 53.6524 30.2141C53.6553 30.2088 53.6501 30.2202 53.6352 30.2352L53.3523 29.9523C53.327 29.9777 53.3104 30.0057 53.3009 30.0232C53.29 30.0433 53.2802 30.0651 53.2714 30.0866C53.2538 30.1299 53.2355 30.1839 53.2165 30.2465C53.1782 30.3721 53.1329 30.546 53.0804 30.7662L53.4696 30.8588ZM53.2937 30.0938V30.125H53.6937V30.0938H53.2937ZM53.6758 30.2078C53.7243 30.1012 53.769 30.0249 53.8085 29.9735C53.8493 29.9205 53.8748 29.9067 53.8805 29.9044L53.732 29.5331C53.6336 29.5724 53.5549 29.6472 53.4915 29.7296C53.4268 29.8137 53.3674 29.9196 53.3117 30.0422L53.6758 30.2078ZM53.8805 29.9044C53.9473 29.8777 54.0816 29.8563 54.3062 29.8563V29.4562C54.0726 29.4562 53.8735 29.4764 53.732 29.5331L53.8805 29.9044ZM54.3062 29.8563C54.5404 29.8563 54.8192 29.8856 55.1444 29.9466L55.2181 29.5534C54.8766 29.4894 54.5721 29.4562 54.3062 29.4562V29.8563ZM55.1564 29.9485C55.468 29.9874 55.7585 30.0747 56.0293 30.2101L56.2082 29.8524C55.8956 29.6961 55.5612 29.5959 55.2061 29.5515L55.1564 29.9485ZM56.0445 30.2169C56.3313 30.3317 56.5658 30.4922 56.752 30.697L57.048 30.428C56.8176 30.1745 56.5312 29.9808 56.193 29.8456L56.0445 30.2169ZM56.7586 30.7039C56.9244 30.8697 57.0125 31.0871 57.0125 31.375H57.4125C57.4125 30.9962 57.2923 30.672 57.0414 30.4211L56.7586 30.7039ZM62.575 51.3438C62.575 51.3677 62.561 51.4421 62.5085 51.589C62.4591 51.7274 62.3835 51.9092 62.2804 52.136L62.6446 52.3015C62.7498 52.07 62.8305 51.8768 62.8852 51.7235C62.9369 51.5788 62.975 51.4448 62.975 51.3438H62.575ZM62.2787 52.14C62.0932 52.5728 61.8554 53.0795 61.5649 53.6606L61.9226 53.8394C62.2155 53.2538 62.4568 52.7397 62.6463 52.2975L62.2787 52.14ZM61.5649 53.6606C61.2736 54.243 60.9615 54.8569 60.6285 55.502L60.984 55.6855C61.3177 55.039 61.6305 54.4236 61.9226 53.8394L61.5649 53.6606ZM60.6298 55.4996C60.2958 56.1258 60.0033 56.6899 59.7524 57.1918L60.1101 57.3707C60.3592 56.8726 60.65 56.3117 60.9827 55.6879L60.6298 55.4996ZM59.7524 57.1918C59.6255 57.4456 59.5189 57.6799 59.4331 57.8945L59.8044 58.043C59.8853 57.8409 59.987 57.6169 60.1101 57.3707L59.7524 57.1918ZM59.436 57.8875C59.354 58.0719 59.2849 58.2093 59.2285 58.3034L59.5715 58.5091C59.6401 58.3949 59.7168 58.2406 59.8015 58.05L59.436 57.8875ZM59.2027 58.4391L59.484 60.1266L59.8785 60.0609L59.5973 58.3734L59.2027 58.4391ZM59.4837 60.1247C59.8585 62.5193 60.2125 64.9244 60.5456 67.3398L60.9419 67.2852C60.6084 64.8673 60.254 62.4599 59.8788 60.0628L59.4837 60.1247ZM60.5456 67.3398C60.8777 69.7474 61.0437 72.1757 61.0437 74.625H61.4437C61.4437 72.1576 61.2765 69.711 60.9419 67.2852L60.5456 67.3398ZM61.0437 74.625C61.0437 75.3504 61.023 76.0968 60.9815 76.8642L61.381 76.8858C61.4228 76.1116 61.4437 75.358 61.4437 74.625H61.0437ZM60.9813 76.8697C60.9608 77.649 60.8686 78.407 60.7048 79.1441L61.0952 79.2309C61.2648 78.468 61.36 77.6844 61.3812 76.8803L60.9813 76.8697ZM60.7037 79.1493C60.5616 79.8801 60.3181 80.5697 59.9734 81.2187L60.3266 81.4063C60.6902 80.722 60.9468 79.9949 61.0963 79.2257L60.7037 79.1493ZM59.97 81.2252C59.6503 81.8847 59.1905 82.4553 58.5876 82.9376L58.8374 83.2499C59.4845 82.7322 59.983 82.1153 60.33 81.3998L59.97 81.2252ZM58.5892 82.9362C58.1261 83.2987 57.6234 83.5801 57.0805 83.7812L57.2195 84.1563C57.8016 83.9407 58.3406 83.6388 58.8358 83.2513L58.5892 82.9362ZM57.0745 83.7835C56.5359 84.003 55.9782 84.1125 55.4 84.1125V84.5125C56.0302 84.5125 56.6391 84.3928 57.2255 84.154L57.0745 83.7835ZM55.4 84.1125C54.283 84.1125 53.3765 83.8689 52.6672 83.3961L52.4453 83.7289C53.236 84.2561 54.2253 84.5125 55.4 84.5125V84.1125ZM52.6661 83.3954C51.9638 82.9339 51.4023 82.3325 50.9802 81.5888L50.6323 81.7862C51.0852 82.5842 51.6903 83.2328 52.4464 83.7296L52.6661 83.3954ZM50.9802 81.5888C50.5551 80.8398 50.2602 79.9974 50.097 79.0595L49.703 79.128C49.8732 80.1068 50.1824 80.9935 50.6323 81.7862L50.9802 81.5888ZM50.0961 79.0545C49.9111 78.1297 49.8187 77.2053 49.8187 76.2812H49.4187C49.4187 77.2322 49.5139 78.1828 49.7039 79.133L50.0961 79.0545ZM49.8187 76.2812C49.8187 74.649 49.984 73.0271 50.3147 71.4152L49.9228 71.3348C49.5868 72.9729 49.4187 74.6218 49.4187 76.2812H49.8187ZM50.3152 71.4128C50.626 69.7962 51.0405 68.2003 51.5587 66.625L51.1788 66.5C50.6553 68.0914 50.2365 69.7038 49.9223 71.3372L50.3152 71.4128ZM51.5587 66.625C52.0778 65.0469 52.6592 63.5001 53.3028 61.9844L52.9347 61.8281C52.2866 63.3541 51.7013 64.9114 51.1788 66.5L51.5587 66.625ZM53.3019 61.9865C53.9683 60.4663 54.6347 58.967 55.3011 57.4884L54.9364 57.3241C54.2695 58.8039 53.6025 60.3045 52.9356 61.826L53.3019 61.9865ZM55.316 57.3734C55.0042 55.5024 54.7548 53.6524 54.5677 51.8234L54.1698 51.8641C54.3577 53.7018 54.6083 55.5601 54.9215 57.4391L55.316 57.3734ZM54.5677 51.8236C54.3805 49.972 54.2244 48.0683 54.0996 46.1123L53.7004 46.1377C53.8256 48.0984 53.982 50.0071 54.1698 51.8639L54.5677 51.8236ZM54.0996 46.1125L54.0059 44.6125L53.6066 44.6375L53.7004 46.1375L54.0996 46.1125ZM54.006 44.6142C53.9642 43.8416 53.912 43.069 53.8493 42.2963L53.4507 42.3287C53.513 43.0977 53.565 43.8668 53.6065 44.6358L54.006 44.6142ZM53.8497 42.3017C53.8082 41.5346 53.7875 40.7569 53.7875 39.9688H53.3875C53.3875 40.7639 53.4084 41.5488 53.4503 42.3233L53.8497 42.3017ZM53.7875 39.9688C53.7875 39.5711 53.8473 39.2453 53.9588 38.985L53.5912 38.8275C53.4527 39.1505 53.3875 39.5331 53.3875 39.9688H53.7875ZM53.9562 38.9908C54.0565 38.7759 54.2757 38.6375 54.7125 38.6375V38.2375C54.1909 38.2375 53.7851 38.4116 53.5938 38.8217L53.9562 38.9908ZM54.7125 38.6375C54.9295 38.6375 55.1351 38.6572 55.3295 38.6961L55.408 38.3039C55.1858 38.2594 54.9538 38.2375 54.7125 38.2375V38.6375ZM55.3295 38.6961C55.5204 38.7343 55.7245 38.8019 55.9422 38.9008L56.1078 38.5367C55.8671 38.4273 55.6338 38.349 55.408 38.3039L55.3295 38.6961ZM56.225 38.7188V38.6875H55.825V38.7188H56.225ZM55.9394 38.8682C56.3176 39.0474 56.5931 39.2504 56.7776 39.4718L57.0849 39.2157C56.8527 38.9371 56.5241 38.7026 56.1106 38.5068L55.9394 38.8682ZM56.7833 39.4783C56.9761 39.6904 57.1186 39.9194 57.2133 40.1655L57.5867 40.022C57.473 39.7265 57.3031 39.4555 57.0792 39.2092L56.7833 39.4783ZM57.2133 40.1655C57.3097 40.4162 57.3683 40.688 57.3879 40.9821L57.7871 40.9554C57.765 40.6245 57.6986 40.313 57.5867 40.022L57.2133 40.1655ZM57.3893 40.9952C57.4297 41.2984 57.45 41.6125 57.45 41.9375H57.85C57.85 41.5958 57.8286 41.2641 57.7857 40.9423L57.3893 40.9952ZM57.45 41.9375V42.4375H57.85V41.9375H57.45ZM57.4502 42.4461C57.5127 43.9057 57.5857 45.2718 57.6692 46.5443L58.0683 46.5182C57.9851 45.249 57.9123 43.886 57.8498 42.4289L57.4502 42.4461ZM57.6694 46.5479C57.7738 47.8002 57.9094 49.1564 58.0763 50.6165L58.4737 50.571C58.3072 49.1144 58.172 47.7623 58.0681 46.5146L57.6694 46.5479ZM58.4539 50.6832C58.6354 50.3202 58.8466 49.9884 59.0874 49.6874L58.7751 49.4376C58.5159 49.7616 58.2896 50.1173 58.0961 50.5043L58.4539 50.6832ZM59.0865 49.6886C59.3165 49.4055 59.6223 49.2625 60.025 49.2625V48.8625C59.5111 48.8625 59.0877 49.0528 58.776 49.4364L59.0865 49.6886ZM60.025 49.2625C60.214 49.2625 60.4547 49.3233 60.7529 49.4625L60.9221 49.1C60.5953 48.9475 60.2944 48.8625 60.025 48.8625V49.2625ZM60.7573 49.4645C61.0734 49.6028 61.3589 49.7801 61.6146 49.9964L61.8729 49.6911C61.587 49.4491 61.2683 49.2514 60.9177 49.098L60.7573 49.4645ZM61.6202 50.001C61.8981 50.2194 62.1233 50.4551 62.2981 50.7076L62.6269 50.4799C62.4267 50.1907 62.1727 49.9265 61.8673 49.6865L61.6202 50.001ZM62.304 50.7157C62.498 50.968 62.575 51.1757 62.575 51.3438H62.975C62.975 51.0535 62.8436 50.7612 62.621 50.4718L62.304 50.7157ZM57.2562 73.875C57.2562 72.4929 57.183 71.0799 57.0365 69.6361L56.6385 69.6764C56.7837 71.1076 56.8562 72.5071 56.8562 73.875H57.2562ZM57.0367 69.6389C56.9114 68.1974 56.7443 66.7767 56.5353 65.3767L56.1397 65.4358C56.3474 66.8275 56.5136 68.2401 56.6383 69.6736L57.0367 69.6389ZM56.1502 65.336C55.5224 67.0102 54.9785 68.7675 54.5185 70.6077L54.9065 70.7048C55.3631 68.8783 55.9026 67.1356 56.5248 65.4765L56.1502 65.336ZM54.5183 70.6083C54.0565 72.4767 53.825 74.2949 53.825 76.0625H54.225C54.225 74.3301 54.4519 72.5441 54.9067 70.7042L54.5183 70.6083ZM53.825 76.0625C53.825 76.4205 53.8355 76.8093 53.8565 77.2287L54.256 77.2088C54.2353 76.7949 54.225 76.4128 54.225 76.0625H53.825ZM53.8565 77.2283C53.8778 77.6753 53.931 78.1221 54.016 78.5687L54.409 78.4938C54.3274 78.0654 54.2764 77.6372 54.256 77.2092L53.8565 77.2283ZM54.016 78.5687C54.1013 79.0164 54.2187 79.4437 54.3686 79.8504L54.7439 79.7121C54.6021 79.3271 54.4904 78.9211 54.409 78.4938L54.016 78.5687ZM54.3686 79.8504C54.5225 80.2682 54.7345 80.6174 55.0086 80.8914L55.2914 80.6086C55.0655 80.3826 54.8817 80.086 54.7439 79.7121L54.3686 79.8504ZM55.0086 80.8914C55.0673 80.9501 55.1452 80.965 55.1796 80.9707C55.2264 80.9785 55.2804 80.9813 55.3375 80.9813V80.5812C55.2904 80.5812 55.2611 80.5788 55.2454 80.5762C55.2376 80.5749 55.2381 80.5743 55.2437 80.5764C55.2467 80.5776 55.2528 80.58 55.2605 80.5846C55.2682 80.5891 55.2795 80.5966 55.2914 80.6086L55.0086 80.8914ZM55.3375 80.9813C55.6955 80.9813 55.9806 80.7827 56.1932 80.4519L55.8568 80.2356C55.6944 80.4882 55.5212 80.5812 55.3375 80.5812V80.9813ZM56.1894 80.4576C56.3931 80.1634 56.5572 79.7873 56.6861 79.3362L56.3014 79.2263C56.1803 79.6502 56.0319 79.9825 55.8606 80.2299L56.1894 80.4576ZM56.6861 79.3362C56.8146 78.8864 56.9102 78.3859 56.9737 77.8354L56.5763 77.7896C56.5148 78.3225 56.4229 78.8011 56.3014 79.2263L56.6861 79.3362ZM56.9727 77.8429C57.0567 77.2967 57.1198 76.7606 57.1619 76.2347L56.7631 76.2028C56.7219 76.7186 56.66 77.245 56.5773 77.7821L56.9727 77.8429ZM57.1618 76.2354C57.2039 75.7306 57.225 75.2563 57.225 74.8125H56.825C56.825 75.2437 56.8045 75.7069 56.7632 76.2021L57.1618 76.2354ZM57.2248 74.8225C57.2456 74.4051 57.2562 74.0885 57.2562 73.875H56.8562C56.8562 74.0781 56.846 74.3866 56.8252 74.8025L57.2248 74.8225Z" fill="black"/>
</svg>
