<svg width="101" height="181" viewBox="0 0 101 181" fill="none" xmlns="http://www.w3.org/2000/svg">
<path d="M41.3825 9.50316C45.9605 9.50316 50.1771 10.1658 54.0322 11.491C57.8874 12.6957 61.2004 14.4426 63.9713 16.7316C66.7421 19.0205 68.8504 21.6709 70.2961 24.6828C71.8623 27.6946 72.6453 30.8872 72.6453 34.2604C72.6453 38.1155 71.1996 41.4888 68.3083 44.3801C65.5374 47.151 62.1642 48.5365 58.1885 48.5365C54.3334 48.5365 50.9602 47.151 48.0688 44.3801C45.2979 41.4888 43.9125 38.1155 43.9125 34.2604C43.9125 30.2848 45.3582 26.8513 48.2495 23.9599C49.2133 22.9962 50.1771 21.9721 51.1409 20.8879C52.2251 19.6831 52.5865 18.2375 52.2251 16.5508C51.7432 14.5028 50.5987 13.0571 48.7916 12.2138C47.105 11.25 45.5389 10.7681 44.0932 10.7681C39.6357 10.7681 36.6841 12.9969 35.2384 17.4544C33.9132 21.7914 33.2506 28.7789 33.2506 38.4167V65.7039V72.2095H37.9491C41.9247 72.2095 45.2979 70.824 48.0688 68.0531C50.8397 65.2822 52.2251 61.909 52.2251 57.9334H53.3094V87.5698H52.2251C52.2251 83.5942 50.8397 80.2209 48.0688 77.45C45.2979 74.6792 41.9247 73.2937 37.9491 73.2937H33.2506V130.398C33.2506 131.723 33.6723 132.807 34.5156 133.651C35.3589 134.494 36.4431 134.916 37.7683 134.916V136H2.89136H0V134.916C1.32521 134.916 2.40946 134.494 3.25278 133.651C4.09609 132.807 4.51774 131.723 4.51774 130.398V125.338V48.7172C4.51774 36.3084 7.71028 26.6706 14.0954 19.8036C20.6009 12.9366 29.6966 9.50316 41.3825 9.50316Z" fill="white"/>
<path d="M85.7201 133.916C93.6869 133.916 100.145 127.457 100.145 119.491C100.145 111.524 93.6869 105.065 85.7201 105.065C77.7533 105.065 71.2949 111.524 71.2949 119.491C71.2949 127.457 77.7533 133.916 85.7201 133.916Z" fill="white"/>
</svg>
