<svg width="83" height="83" viewBox="0 0 83 83" fill="none" xmlns="http://www.w3.org/2000/svg">
<g clip-path="url(#clip0_689_1028)">
<path fill-rule="evenodd" clip-rule="evenodd" d="M77.9077 26.1198C62.5864 54.6095 31.9804 66.1922 3.55406 50.1531C2.60774 49.6191 1.4077 49.953 0.873624 50.8876C0.339546 51.8389 0.673381 53.0406 1.6197 53.5747C32.0889 70.782 64.9496 58.515 81.3726 27.9891C81.8866 27.0377 81.5278 25.8359 80.5715 25.3185C79.6151 24.8178 78.4218 25.1685 77.9077 26.1198Z" fill="#050606"/>
<path d="M27.4756 37.9327C30.6405 37.9327 33.2062 35.3671 33.2062 32.2022C33.2062 29.0373 30.6405 26.4717 27.4756 26.4717C24.3107 26.4717 21.7451 29.0373 21.7451 32.2022C21.7451 35.3671 24.3107 37.9327 27.4756 37.9327Z" fill="#050606"/>
<path d="M51.1986 31.8366C54.3016 31.8366 56.8172 29.3211 56.8172 26.2181C56.8172 23.1151 54.3016 20.5996 51.1986 20.5996C48.0955 20.5996 45.5801 23.1151 45.5801 26.2181C45.5801 29.3211 48.0955 31.8366 51.1986 31.8366Z" fill="#050606"/>
</g>
<defs>
<clipPath id="clip0_689_1028">
<rect width="81.6327" height="81.6327" fill="white" transform="translate(0.619141 0.428711)"/>
</clipPath>
</defs>
</svg>
