<svg width="68" height="68" viewBox="0 0 68 68" fill="none" xmlns="http://www.w3.org/2000/svg">
<path fill-rule="evenodd" clip-rule="evenodd" d="M24.2172 29.3131C22.6023 28.4322 20.7354 28.1673 18.6397 28.7805C12.1569 30.6775 9.53436 35.7542 9.18028 41.7721C8.66355 50.5594 13.0565 61.3732 16.983 66.7478C17.1687 67.0025 17.5257 67.0573 17.779 66.8716C18.0338 66.6859 18.0899 66.3289 17.9042 66.0742C14.0928 60.8579 9.81794 50.3665 10.3188 41.8383C10.6441 36.3126 13.0061 31.6175 18.9607 29.8758C20.7326 29.3562 22.3072 29.5851 23.6746 30.3263C23.2039 31.2274 22.7649 32.1299 22.359 33.0323C21.2392 35.5239 19.5653 42.4414 20.1899 47.5281C20.639 51.1768 22.2669 53.8814 25.825 53.7864C27.8027 53.7332 29.2334 52.5011 30.1085 50.5407C31.3132 47.8462 31.4485 43.7181 30.6007 39.7628C29.8954 36.4695 28.5137 33.3015 26.5533 31.1756C26.1215 30.7092 25.6638 30.2904 25.1787 29.9305C31.9437 17.5578 44.5107 5.98829 57.416 1.10888C57.7096 0.996611 57.8592 0.668457 57.747 0.37339C57.6361 0.0783219 57.3065 -0.0699401 57.0129 0.0408902C43.8975 5.00091 31.1218 16.7389 24.2172 29.3131ZM24.6332 30.9539C24.1927 31.8017 23.7811 32.6509 23.3997 33.5001C22.3274 35.888 20.7239 42.5148 21.3227 47.3885C21.6897 50.3794 22.8786 52.7241 25.7948 52.6464C27.3263 52.6047 28.3885 51.5928 29.0678 50.0758C29.8134 48.4061 30.0984 46.1449 29.979 43.734C29.7976 40.0737 28.6792 36.0694 26.7332 33.2353C26.1172 32.3371 25.4162 31.5584 24.6332 30.9539Z" fill="#87CEEB"/>
<path fill-rule="evenodd" clip-rule="evenodd" d="M47.2184 19.7799C48.367 13.0725 52.7513 5.93045 57.4767 0.984828C57.694 0.75741 57.6854 0.396118 57.458 0.178775C57.2305 -0.0385675 56.8693 -0.0313539 56.6519 0.196064C51.7783 5.2957 47.2788 12.6724 46.0942 19.587C46.041 19.8965 46.2497 20.1916 46.5606 20.2448C46.8701 20.2981 47.1651 20.0894 47.2184 19.7799Z" fill="#87CEEB"/>
<path fill-rule="evenodd" clip-rule="evenodd" d="M56.5786 0.0756745C51.6589 2.8853 44.1124 3.27393 38.6111 1.85041C38.306 1.77125 37.9936 1.95406 37.9159 2.2592C37.8368 2.56434 38.0195 2.87522 38.3247 2.95438C44.0878 4.44556 51.9899 4.00945 57.1442 1.06597C57.4177 0.910519 57.5128 0.560733 57.3573 0.287255C57.2004 0.013778 56.8521 -0.0812152 56.5786 0.0756745Z" fill="#87CEEB"/>
</svg>
